<svg stroke-width= "1.5px" width="24" height="24" viewBox="0 0 24 24" fill="none" xmlns="http://www.w3.org/2000/svg">
<path d="M19.9321 10.2317C19.1062 5.94114 15.3316 2.70001 10.8 2.70001C5.66375 2.70001 1.5 6.86376 1.5 12C1.5 17.1363 5.66375 21.3 10.8 21.3C11.5539 21.3 12.2869 21.2103 12.9888 21.041" stroke="black" stroke-linecap="round" stroke-linejoin="round"/>
<path fill-rule="evenodd" clip-rule="evenodd" d="M18.3 21C20.7853 21 22.8 18.9853 22.8 16.5C22.8 14.0147 20.7853 12 18.3 12C15.8148 12 13.8 14.0147 13.8 16.5C13.8 18.9853 15.8148 21 18.3 21ZM16.9142 16.1277C16.7223 15.9291 16.4058 15.9237 16.2072 16.1156C16.0086 16.3075 16.0032 16.6241 16.1951 16.8226L17.4172 18.0871C17.5116 18.1849 17.6418 18.24 17.7778 18.2397C17.9137 18.2394 18.0437 18.1837 18.1377 18.0856L20.4728 15.6483C20.6638 15.4489 20.657 15.1324 20.4576 14.9414C20.2582 14.7503 19.9417 14.7571 19.7507 14.9565L17.7751 17.0186L16.9142 16.1277Z" fill="black"/>
<path d="M7.19995 11.7L10.8 15.3L14.4 11.7" stroke="black" stroke-linecap="round" stroke-linejoin="round"/>
<path d="M10.8 14.7V7.20001" stroke="black" stroke-linecap="round" stroke-linejoin="round"/>
</svg>
