<svg stroke-width= "1.5px" width="24" height="24" viewBox="0 0 24 24" fill="none" xmlns="http://www.w3.org/2000/svg">
<path d="M21.1009 13.9231C21.2313 13.3026 21.3 12.6593 21.3 12C21.3 6.86376 17.1362 2.70001 12 2.70001C6.8637 2.70001 2.69995 6.86376 2.69995 12C2.69995 17.1363 6.8637 21.3 12 21.3V21.3C12.763 21.3 13.5046 21.2081 14.2142 21.0348" stroke="black" stroke-linecap="round"/>
<path fill-rule="evenodd" clip-rule="evenodd" d="M18.6 21.6C20.2568 21.6 21.6 20.2568 21.6 18.6C21.6 16.9431 20.2568 15.6 18.6 15.6C16.9431 15.6 15.6 16.9431 15.6 18.6C15.6 20.2568 16.9431 21.6 18.6 21.6ZM17.796 18.236C17.6041 18.0375 17.2876 18.0321 17.089 18.224C16.8904 18.4158 16.885 18.7324 17.0769 18.931L17.8916 19.774C17.9861 19.8717 18.1163 19.9268 18.2522 19.9265C18.3882 19.9262 18.5182 19.8706 18.6122 19.7724L20.1689 18.1476C20.3599 17.9482 20.3532 17.6317 20.1538 17.4406C19.9544 17.2496 19.6379 17.2564 19.4468 17.4558L18.2496 18.7054L17.796 18.236Z" fill="black"/>
<path d="M11.9006 7.60791L12.7451 8.60541" stroke="black" stroke-linecap="round" stroke-linejoin="round"/>
<path d="M15.1147 7.60583L14.2921 8.62878" stroke="black" stroke-linecap="round" stroke-linejoin="round"/>
<path d="M7.49934 8.03931H9.35057C9.51626 8.03931 9.65057 8.17362 9.65057 8.33931V10.3789H8.10332C7.9482 10.3789 7.81867 10.4972 7.80456 10.6516L7.6427 12.4235C7.62665 12.5992 7.765 12.7508 7.94146 12.7508H9.28031C9.45099 12.7508 9.58728 12.893 9.58004 13.0635L9.48481 15.3079C9.46436 15.7897 9.06783 16.1697 8.58562 16.1697H7.47803" stroke="black" stroke-linecap="round" stroke-linejoin="round"/>
<rect x="10.5217" y="14.0382" width="6" height="0.51" rx="0.255" fill="black"/>
<rect x="11.0889" y="8.70581" width="4.90196" height="4.07633" stroke="black" stroke-linejoin="round"/>
<path d="M11.2952 10.6755H15.8266" stroke="black" stroke-linecap="round" stroke-linejoin="round"/>
<path d="M10.8269 14.2932L16.2278 14.2932" stroke="black" stroke-linecap="round" stroke-linejoin="round"/>
<path d="M13.519 8.98669V16.3941" stroke="black" stroke-linecap="round" stroke-linejoin="round"/>
</svg>
