<svg stroke-width= "1.5px" width="24" height="24" viewBox="0 0 24 24" fill="none" xmlns="http://www.w3.org/2000/svg">
<path d="M7.25356 4.81968C6.43988 4.81968 5.62575 5.03036 5.17197 5.55233L5.07742 5.66951C5.05952 5.69356 5.05283 5.70222 5.03873 5.71832C4.92437 5.84886 4.82713 5.99615 4.6874 6.03216C4.38464 6.11017 4.4324 5.60208 4.5098 5.39391C4.92964 4.26483 5.90264 3.59985 7.25352 3.59985H16.5464C17.8972 3.59985 18.8702 4.26483 19.2901 5.39391C19.3675 5.60208 19.4152 6.11017 19.1125 6.03216C18.9727 5.99615 18.8755 5.84886 18.7611 5.71832C18.747 5.70222 18.7404 5.69356 18.7224 5.66951L18.6279 5.55233C18.1741 5.03036 17.36 4.81968 16.5463 4.81968H7.25356Z" fill="black"/>
<rect x="3.49951" y="6.59985" width="16.8" height="13.8" rx="4" stroke="black"/>
<path d="M11.9007 10.2001V16.8001" stroke="black" stroke-linecap="round"/>
<path d="M8.6001 13.5001L15.2001 13.5001" stroke="black" stroke-linecap="round"/>
</svg>
