<svg stroke-width= "1.5px" width="24" height="24" viewBox="0 0 24 24" fill="none" xmlns="http://www.w3.org/2000/svg">
<path d="M21.7822 12.0212V12.0224C21.7821 14.6175 21.2045 16.2417 19.7435 17.2398C18.257 18.2553 15.8135 18.6571 11.9771 18.6571C8.15984 18.6571 5.72584 18.2553 4.24412 17.24C2.78757 16.2418 2.20996 14.6172 2.20996 12.0217C2.20996 9.41256 2.78479 7.77699 4.24007 6.77152C5.72005 5.74899 8.1537 5.34283 11.9771 5.34283C15.8133 5.34283 18.2599 5.74897 19.7479 6.7718C21.2108 7.77734 21.7886 9.41273 21.7822 12.0212Z" stroke="black"/>
<path fill-rule="evenodd" clip-rule="evenodd" d="M12.5923 9.11133V14.9091H11.5102V10.9957H11.478L9.90108 14.8528H9.13677L7.55985 10.9957H7.52767V14.9091H6.44556V9.11133H7.85351L9.50283 13.2216H9.53502L11.1843 9.11133H12.5923Z" fill="black"/>
<path fill-rule="evenodd" clip-rule="evenodd" d="M16.6029 14.9091H15.1386L13.1876 9.11133H14.5473L15.8748 13.6595H15.903L17.2305 9.11133H18.5539L16.6029 14.9091Z" fill="black"/>
</svg>
