<svg width="24" height="24" viewBox="0 0 24 24" fill="none" xmlns="http://www.w3.org/2000/svg">
<path d="M11.7 20.4H5.69997C3.71175 20.4 2.09998 18.7882 2.09998 16.8L2.09998 7.8C2.09998 5.81177 3.71175 4.2 5.69998 4.2H17.1C19.0882 4.2 20.7 5.81177 20.7 7.8V9" stroke="black" stroke-linecap="round"/>
<path d="M10.5 15.6C10.5 15.6 8.73818 12 7.2 12C5.66182 12 3.9 14.88 3.9 14.88" stroke="black" stroke-linecap="round"/>
<path d="M13.5 13.2C12.5618 13.2 11.4647 14.0155 10.5 15.6" stroke="black" stroke-linecap="round"/>
<circle cx="12" cy="8.72845" r="0.6" fill="black"/>
<circle cx="18.3" cy="12.9" r="2.5" stroke="black"/>
<path d="M22.8 20.4C22.8 17.749 20.7853 15.6 18.3 15.6C15.8148 15.6 13.8 17.749 13.8 20.4" stroke="black" stroke-linecap="round"/>
</svg>
