<svg width="24" height="24" viewBox="0 0 24 24" fill="none" xmlns="http://www.w3.org/2000/svg">
<path fill-rule="evenodd" clip-rule="evenodd" d="M3.44065 6.75754L3.8645 7.42514L3.60307 7.59335L3.17012 6.93161L3.44065 6.75754ZM3.17197 7.88822L2.70871 7.24734C2.61491 7.31514 2.52644 7.38185 2.44247 7.44832L2.93326 8.06837C3.00786 8.00932 3.08719 7.9495 3.17197 7.88822ZM2.01765 7.82049L2.57209 8.38436C2.50256 8.45272 2.43905 8.52086 2.38139 8.5891L1.77738 8.07869C1.85119 7.99134 1.93123 7.90546 2.01765 7.82049ZM2.12212 8.96777L1.42228 8.59957C1.36291 8.71243 1.31289 8.82805 1.27251 8.94672L2.02114 9.20145C2.04805 9.12237 2.08169 9.04462 2.12212 8.96777ZM1.15242 9.56838L1.94193 9.6133C1.93711 9.69807 1.93847 9.78477 1.94588 9.8746L1.15777 9.93963C1.1474 9.81396 1.14547 9.69058 1.15242 9.56838ZM2.02726 10.3346L1.26116 10.5306C1.28776 10.6346 1.31902 10.7421 1.35559 10.8567L2.10893 10.6162L2.05132 10.4244L2.02726 10.3346ZM2.2765 11.0959L2.38634 11.3913L1.6452 11.6671L1.53456 11.3695L2.2765 11.0959ZM2.56968 11.8981L1.82239 12.1567C1.85703 12.2568 1.88897 12.3528 1.91892 12.4471L2.67267 12.208C2.64057 12.1068 2.60648 12.0044 2.56968 11.8981ZM2.05867 12.9332L2.82483 12.7374C2.85236 12.8451 2.87765 12.9526 2.90072 13.0605L2.12742 13.2259C2.10657 13.1284 2.08366 13.031 2.05867 12.9332ZM2.99807 13.6099L2.21494 13.7197C2.22834 13.8153 2.24036 13.9149 2.25122 14.0196L3.03779 13.938C3.02598 13.8242 3.01283 13.7152 2.99807 13.6099ZM2.29342 14.5322L3.08252 14.4806L3.10141 14.8009L2.31177 14.8435L2.29342 14.5322ZM3.14488 15.629L3.12772 15.3163L2.33798 15.357L2.3555 15.676L3.14488 15.629ZM2.39539 16.2225L3.18299 16.1516C3.19249 16.2571 3.2029 16.3579 3.21443 16.4551L2.42915 16.5483C2.4167 16.4433 2.40553 16.3352 2.39539 16.2225ZM18.6108 16.9442L17.898 16.617L17.9716 16.442C17.9798 16.4232 17.9893 16.4027 18.0011 16.3786L18.7298 16.6695C18.7038 16.7229 18.6809 16.7779 18.6575 16.8343C18.6425 16.8703 18.6272 16.907 18.6108 16.9442ZM18.3801 17.5414L17.6389 17.2658L17.7539 16.964L18.4903 17.2521L18.3801 17.5414ZM17.4572 17.7675L17.3513 18.0656L18.0965 18.3304L18.2022 18.0326L17.4572 17.7675ZM17.8016 19.1333L17.0643 18.8474L17.1739 18.5573L17.9157 18.8314L17.8016 19.1333ZM16.7446 19.5942L17.4571 19.9373C17.5036 19.8408 17.5494 19.7408 17.595 19.6366L16.8705 19.3197C16.8286 19.4153 16.7868 19.5066 16.7446 19.5942ZM17.011 20.7234L16.3566 20.2794C16.4095 20.2016 16.4611 20.1197 16.5117 20.0335L17.1934 20.4343C17.1343 20.5349 17.0736 20.6311 17.011 20.7234ZM15.8707 20.8503L16.4036 21.4346C16.4902 21.3556 16.5735 21.2715 16.6538 21.1822L16.0659 20.6533C16.0027 20.7236 15.9377 20.7892 15.8707 20.8503ZM15.5907 21.9762L15.2644 21.2558L15.3269 21.2261C15.3871 21.1959 15.4458 21.1632 15.503 21.1281L15.9168 21.802C15.8403 21.849 15.7616 21.8928 15.6804 21.9334L15.5907 21.9762ZM14.5699 21.4357L14.6564 22.2218C14.7773 22.2085 14.8946 22.1898 15.0084 22.1654L14.8427 21.3921C14.7557 21.4108 14.6647 21.4253 14.5699 21.4357ZM13.725 22.2265L13.7913 21.4385C13.8915 21.4469 13.9889 21.4523 14.0834 21.4545L14.0645 22.2451C13.9538 22.2424 13.8407 22.2362 13.725 22.2265ZM13.0064 21.3232L12.8509 22.0986C12.9615 22.1208 13.0699 22.1405 13.1763 22.1578L13.3032 21.3773C13.2066 21.3616 13.1077 21.3435 13.0064 21.3232ZM11.9959 21.8927L12.2062 21.1303L12.5033 21.2088L12.3102 21.9757C12.2075 21.9498 12.1028 21.9222 11.9959 21.8927ZM11.4213 20.8949L11.1806 21.6482L11.4871 21.7442L11.7186 20.988L11.4213 20.8949ZM10.6225 20.6315L10.9221 20.7316L10.6724 21.4819L10.3718 21.3815L10.6225 20.6315ZM9.80623 20.3671L9.57722 21.124L9.87214 21.2165L10.1149 20.4639L9.80623 20.3671ZM8.79713 20.9335L8.93852 20.1554C9.05114 20.1759 9.15938 20.1977 9.26421 20.2212L9.0913 20.9929C8.99728 20.9718 8.89951 20.9521 8.79713 20.9335ZM8.07988 20.0309L7.98627 20.8161L8.294 20.855L8.39977 20.0713L8.07988 20.0309ZM7.24009 19.9357L7.55211 19.9711L7.46475 20.757L7.1484 20.7212L7.24009 19.9357ZM6.42537 19.8227L6.29201 20.6021L6.61498 20.6527L6.72744 19.87C6.6219 19.8548 6.52174 19.8392 6.42537 19.8227ZM5.42388 20.406L5.64681 19.6473C5.73879 19.6743 5.83399 19.6995 5.93285 19.7231L5.74944 20.4923C5.63761 20.4657 5.52927 20.437 5.42388 20.406ZM4.92699 19.3647L4.5646 20.0676C4.66645 20.1201 4.7715 20.1689 4.87991 20.2143L5.18533 19.4849C5.09597 19.4475 5.00992 19.4075 4.92699 19.3647ZM3.78836 19.5397L4.31208 18.9472C4.38153 19.0086 4.45382 19.0665 4.52906 19.1209L4.06524 19.7614C3.96938 19.692 3.8771 19.6182 3.78836 19.5397ZM3.82481 18.3858L3.16421 18.8204C3.22943 18.9196 3.29927 19.0152 3.37388 19.1073L3.98841 18.6096C3.93028 18.5379 3.87581 18.4633 3.82481 18.3858ZM2.74715 17.9799L3.49046 17.7101C3.5235 17.801 3.55928 17.8888 3.59796 17.9736L2.87856 18.3019C2.831 18.1977 2.78727 18.0904 2.74715 17.9799ZM3.29004 16.9573L2.5128 17.103C2.53398 17.216 2.55742 17.3257 2.58333 17.4326L3.35186 17.2463C3.32928 17.1532 3.30873 17.0569 3.29004 16.9573ZM20.2803 9.42165L20.8586 8.88228C20.7846 8.80289 20.7064 8.72333 20.6235 8.64275L20.0723 9.20978C20.1462 9.28161 20.2154 9.352 20.2803 9.42165ZM21.4252 9.61382L20.7521 10.0288C20.7038 9.95043 20.6509 9.87265 20.5934 9.79498L21.2287 9.32411C21.2994 9.41955 21.3649 9.51595 21.4252 9.61382ZM21.0508 10.6993L21.8114 10.4827C21.7785 10.3673 21.7395 10.2543 21.6946 10.1434L20.9617 10.4405C20.9961 10.5251 21.0257 10.6113 21.0508 10.6993ZM21.9243 11.4882L21.1404 11.3838C21.1468 11.3361 21.1484 11.2925 21.1456 11.2515L21.1378 11.1583L21.9246 11.0791L21.9346 11.1982C21.941 11.2934 21.9374 11.3896 21.9243 11.4882ZM20.8888 12.0359L21.5805 12.4191C21.6405 12.3108 21.6929 12.2068 21.7378 12.1061L21.0157 11.7839C20.9804 11.8628 20.9382 11.9467 20.8888 12.0359ZM21.1017 13.1655L20.4562 12.7088L20.6293 12.4573L21.2874 12.8958L21.1668 13.0728L21.1017 13.1655ZM20.1475 13.1317L19.9588 13.3825L20.5893 13.8597L20.7811 13.6049L20.1475 13.1317ZM19.4532 14.0514L19.6448 13.7966L20.2756 14.2736L20.0868 14.5246L19.4532 14.0514ZM18.9498 14.7476L19.5997 15.1981L19.7784 14.945L19.136 14.4838L18.9498 14.7476ZM19.152 15.8867L18.4742 15.4793C18.5293 15.3877 18.5868 15.2951 18.6469 15.2012L19.313 15.6274C19.2568 15.7152 19.2032 15.8016 19.152 15.8867ZM18.1384 16.0647L18.8221 16.4382C18.8291 16.4238 18.8389 16.4066 18.8501 16.3879L18.9234 16.2697L18.9528 16.2188L18.2597 15.8409L18.1763 15.9925L18.1384 16.0647Z" fill="#060606"/>
<path d="M5.71759 10.5C5.32272 11.2862 5.09998 12.1765 5.09998 13.1192C5.09998 16.3116 7.65201 18.9 10.8003 18.9C13.9479 18.9 16.5 16.3116 16.5 13.1192" stroke="#060606" stroke-linecap="round" stroke-linejoin="round"/>
<path d="M16.5 13.1192V9.75216C16.5 8.82938 17.1956 8.08129 18.2053 8.08224L18.1939 8.08287C20.5711 8.08572 22.5 6.32513 22.5 4.15259V2.70001H17.4355C14.6569 2.70001 13.6719 4.12948 13.5 5.70001" stroke="#060606" stroke-linecap="round" stroke-linejoin="round"/>
<path d="M10.5 11.7V9.67893C10.5 8.76545 9.80459 8.02548 8.79449 8.02642L8.8059 8.02705C6.4286 8.02955 4.5 6.28763 4.5 4.13775V2.70001H9.56434C12.3312 2.70001 13.3222 4.12893 13.5 5.70001" stroke="#060606" stroke-linecap="round" stroke-linejoin="round"/>
</svg>
