<svg width="24" height="24" viewBox="0 0 24 24" fill="none" xmlns="http://www.w3.org/2000/svg">
<path d="M12 21.1C17.0258 21.1 21.1 17.0258 21.1 12C21.1 6.9742 17.0258 2.89999 12 2.89999C6.97423 2.89999 2.90002 6.9742 2.90002 12C2.90002 17.0258 6.97423 21.1 12 21.1Z" stroke="black"/>
<path d="M12 16.9244C12.3314 16.9244 12.6 16.6558 12.6 16.3244C12.6 15.9931 12.3314 15.7244 12 15.7244C11.6687 15.7244 11.4 15.9931 11.4 16.3244C11.4 16.6558 11.6687 16.9244 12 16.9244Z" fill="black"/>
<path d="M11.94 14.296C11.67 14.296 11.449 14.086 11.44 13.816C11.438 13.753 11.414 12.254 13.284 11.175C13.93 10.802 13.99 10.063 13.845 9.54198C13.674 8.92998 13.126 8.24898 12.191 8.30098C10.406 8.33698 10.106 10.206 10.095 10.285C10.054 10.558 9.80097 10.746 9.52597 10.706C9.25297 10.665 9.06497 10.411 9.10497 10.138C9.24897 9.17498 10.075 7.34298 12.17 7.30098C13.449 7.26098 14.467 8.04998 14.809 9.27398C15.121 10.396 14.709 11.507 13.785 12.042C12.458 12.807 12.441 13.754 12.441 13.793C12.44 14.066 12.221 14.293 11.948 14.297C11.945 14.296 11.943 14.296 11.94 14.296Z" fill="black"/>
</svg>
