<svg width="24" height="24" viewBox="0 0 24 24" fill="none" xmlns="http://www.w3.org/2000/svg">
<path d="M3 18.371C3.16623 18.371 3.96536 18.371 5.39741 18.371C11.7733 18.371 9.63243 5.67706 17.0998 5.67706C17.6099 5.67706 18.0541 5.67706 18.4324 5.67706" stroke="black" stroke-linecap="round" stroke-linejoin="round"/>
<path d="M18.4324 18.371C18.2661 18.371 17.467 18.371 16.035 18.371C13.688 18.371 12.495 16.6509 11.552 14.4772M9.53227 9.47866C8.48687 7.34866 7.04233 5.67706 4.33253 5.67706C3.82247 5.67706 3.37829 5.67706 2.99998 5.67706" stroke="black" stroke-linecap="round" stroke-linejoin="round"/>
<path fill-rule="evenodd" clip-rule="evenodd" d="M21.3978 5.35821C21.6659 5.52954 21.6689 5.80544 21.3978 5.97866L18.7689 7.65849C18.5008 7.82983 18.2835 7.70819 18.2835 7.38606V3.95082C18.2835 3.62902 18.4979 3.50516 18.7689 3.67838L21.3978 5.35821Z" fill="black"/>
<path fill-rule="evenodd" clip-rule="evenodd" d="M21.3978 18.0221C21.6659 18.1934 21.6689 18.4693 21.3978 18.6425L18.7689 20.3224C18.5008 20.4937 18.2835 20.3721 18.2835 20.0499V16.6147C18.2835 16.2929 18.4979 16.169 18.7689 16.3423L21.3978 18.0221Z" fill="black"/>
</svg>
