<svg stroke-width= "1.5px" width="24" height="24" viewBox="0 0 24 24" fill="none" xmlns="http://www.w3.org/2000/svg">
<path d="M2.39941 13.1999V9.41492C2.39941 7.81019 2.5665 7.22827 2.88025 6.6416C3.19401 6.05494 3.65443 5.59452 4.24109 5.28077C4.82776 4.96701 5.40967 4.79993 7.01441 4.79993H16.9844C18.5892 4.79993 19.1711 4.96701 19.7577 5.28077C20.3444 5.59452 20.8048 6.05494 21.1186 6.6416C21.4323 7.22827 21.5994 7.81019 21.5994 9.41492V14.5849C21.5994 16.1897 21.4323 16.7716 21.1186 17.3582C20.8048 17.9449 20.3444 18.4053 19.7577 18.7191C19.1711 19.0328 18.5892 19.1999 16.9844 19.1999H12.8994" stroke="black" stroke-linecap="round" stroke-linejoin="round"/>
<rect x="1.80029" y="15" width="9.6" height="5.4" rx="1.8" fill="black"/>
<path d="M17.9997 13.2001H13.1997V8.40015" stroke="black" stroke-linecap="round" stroke-linejoin="round"/>
<path d="M17.8422 8.25832L13.2006 12.8999" stroke="black" stroke-linecap="round" stroke-linejoin="round"/>
</svg>
