<svg stroke-width= "1.5px" width="24" height="24" viewBox="0 0 24 24" fill="none" xmlns="http://www.w3.org/2000/svg">
<path d="M2.69995 12C2.69995 17.1363 6.8637 21.3 12 21.3M21.3 12C21.3 6.86376 17.1362 2.70001 12 2.70001" stroke="black" stroke-linecap="round" stroke-linejoin="round"/>
<path d="M5.25446 10.3456C6.66035 11.7514 8.93975 11.7514 10.3456 10.3456C11.7515 8.93967 11.7515 6.66027 10.3456 5.25439C8.93975 3.8485 6.66035 3.8485 5.25446 5.25439C3.84858 6.66027 3.84858 8.93967 5.25446 10.3456Z" fill="black"/>
<path d="M13.8665 18.5334C15.1552 19.8222 17.2447 19.8222 18.5334 18.5334C19.8221 17.2447 19.8221 15.1553 18.5334 13.8665C17.2447 12.5778 15.1552 12.5778 13.8665 13.8665C12.5778 15.1553 12.5778 17.2447 13.8665 18.5334Z" stroke="black"/>
</svg>
