<svg stroke-width= "1.5px" width="24" height="24" viewBox="0 0 24 24" fill="none" xmlns="http://www.w3.org/2000/svg">
<path fill-rule="evenodd" clip-rule="evenodd" d="M20.2157 16.289C20.6251 16.1967 20.991 16.5626 20.8988 16.972L20.3883 19.2375C20.2893 19.6767 19.745 19.8343 19.4267 19.516L17.6718 17.761C17.3535 17.4427 17.5111 16.8984 17.9502 16.7995L20.2157 16.289Z" fill="black"/>
<path d="M21.3 12C21.3 6.86376 17.1362 2.70001 12 2.70001C6.8637 2.70001 2.69995 6.86376 2.69995 12C2.69995 17.1363 6.8637 21.3 12 21.3V21.3C14.5531 21.3 16.8659 20.2712 18.5465 18.6055" stroke="black" stroke-linecap="round"/>
<path fill-rule="evenodd" clip-rule="evenodd" d="M15.0124 11.4638C15.3999 11.713 15.3999 12.2793 15.0124 12.5285L10.8753 15.1891C10.4541 15.46 9.90005 15.1576 9.90005 14.6568V9.33581C9.90005 8.83503 10.4541 8.5326 10.8753 8.80346L15.0124 11.4638Z" stroke="black"/>
</svg>
