<svg stroke-width= "1.5px" width="24" height="24" viewBox="0 0 24 24" fill="none" xmlns="http://www.w3.org/2000/svg">
<path fill-rule="evenodd" clip-rule="evenodd" d="M17.5528 19.3604C17.6039 19.5176 17.8262 19.5176 17.8774 19.3605L18.1547 18.509L19.0518 18.2218C19.21 18.1711 19.21 17.9474 19.0518 17.8967L18.1547 17.6095L17.8774 16.758C17.8262 16.6009 17.6039 16.6009 17.5528 16.7581L17.2761 17.6095L16.4322 17.8977C16.2782 17.9504 16.2782 18.1681 16.4322 18.2208L17.2761 18.509L17.5528 19.3604Z" fill="black"/>
<path fill-rule="evenodd" clip-rule="evenodd" d="M5.19521 14.7429C5.22076 14.8215 5.33192 14.8215 5.35751 14.7429L5.56946 14.0922L6.25213 13.8736C6.33122 13.8483 6.33122 13.7364 6.25213 13.711L5.56946 13.4925L5.35751 12.8417C5.33192 12.7631 5.22076 12.7632 5.19521 12.8417L4.9837 13.4925L4.34234 13.7116C4.26534 13.7379 4.26534 13.8468 4.34234 13.8731L4.9837 14.0922L5.19521 14.7429Z" fill="black"/>
<path d="M4.22125 20.1651L10.9517 13.4347" stroke="black" stroke-linecap="round"/>
<path d="M18.719 5.89176L17.6459 9.26942C17.5395 9.56719 17.6308 9.96926 17.8265 10.1735L19.9677 12.9203C20.1612 13.2246 19.9527 13.6201 19.6527 13.6137L16.1514 13.6382C15.8515 13.6318 15.5472 13.8252 15.3408 14.1209L13.3787 16.9792C13.1723 17.2749 12.6724 17.2641 12.5811 16.862L11.4525 13.5369C11.359 13.2348 11.0634 13.0284 10.7656 12.922L7.38576 11.9489C6.98801 11.8403 6.99879 11.3404 7.20305 11.1448L10.0477 9.10561C10.3519 8.91212 10.4584 8.61435 10.4648 8.31442L10.4403 4.81307C10.4489 4.41317 10.8531 4.22183 11.1487 4.42825L14.005 6.4903C14.3006 6.69672 14.6005 6.70318 14.9026 6.60967L18.2298 5.3811C18.5341 5.18761 18.8254 5.59399 18.719 5.89176Z" stroke="black" stroke-linecap="round"/>
</svg>
