<svg stroke-width= "1.5px" width="24" height="24" viewBox="0 0 24 24" fill="none" xmlns="http://www.w3.org/2000/svg">
<path d="M20.8446 16.7157C19.8705 16.7157 18.7517 16.7157 17.4876 16.7164C15.452 16.7164 13.5975 15.51 12.6999 13.6069L11.2955 10.6255C10.4005 8.72568 8.54663 7.51868 6.51046 7.51868C4.07457 7.51868 2.09705 9.57929 2.09705 12.1175C2.09705 14.6558 4.07457 16.7164 6.51046 16.7164C8.09018 16.7164 9.56115 15.9898 10.5601 14.7749M13.5162 9.36758C14.512 8.20907 15.9476 7.51888 17.4878 7.51888C19.9237 7.51888 21.9012 9.57949 21.9012 12.1177C21.9012 12.6691 21.8075 13.1985 21.6367 13.6888" stroke="black" stroke-linecap="round"/>
<path fill-rule="evenodd" clip-rule="evenodd" d="M18.9027 15.3129L21.2969 16.7053L18.9027 18.1261L18.9027 15.3129Z" fill="black" stroke="black" stroke-linecap="round" stroke-linejoin="round"/>
</svg>
