<svg width="24" height="24" viewBox="0 0 24 24" fill="none" xmlns="http://www.w3.org/2000/svg">
<path d="M3.58081 20.1853L3.59019 20.1658L3.59784 20.1456C3.67631 19.9381 3.88248 19.495 4.23921 18.7752C4.44248 18.365 4.55979 17.9828 4.52821 17.5714C4.49735 17.1693 4.32856 16.8058 4.10513 16.4274C3.31848 15.0952 2.90002 13.5383 2.90002 11.8988C2.90002 6.87298 6.97423 2.79877 12 2.79877C17.0258 2.79877 21.1 6.87298 21.1 11.8988C21.1 16.8198 17.1876 20.8457 12.2678 20.9947L4.13768 20.9988C4.13762 20.9988 4.13755 20.9988 4.13749 20.9988C3.80749 20.9987 3.54031 20.7313 3.54031 20.4016C3.54031 20.3049 3.56319 20.222 3.58081 20.1853Z" stroke="black"/>
<path d="M7.5 9.49939L16.4971 9.50918" stroke="black" stroke-linecap="round" stroke-linejoin="round"/>
<path d="M7.5 14.2963H14.7074" stroke="black" stroke-linecap="round" stroke-linejoin="round"/>
</svg>
