<svg width="24" height="24" viewBox="0 0 24 24" fill="none" xmlns="http://www.w3.org/2000/svg">
<path d="M17.0198 3.5246C16.7879 3.29099 15.1688 2.12234 13.7804 3.05737C12.3919 3.9924 12.8352 5.33717 12.8352 5.33717C12.8352 5.33717 14.6038 12.0138 14.6476 12.1847C14.6913 12.3557 14.7056 12.6438 14.7056 12.6438C14.7056 14.194 13.4629 15.4494 11.9293 15.4494C10.396 15.4494 9.31373 14.1847 9.15306 12.6438C8.68989 8.20115 13.9906 6.70787 16.7879 8.54579C21.4152 11.5851 19.3326 16.4955 19.3326 16.4955C18.1763 19.3014 15.6311 21.1718 12.1606 21.2949C7.43583 21.4637 3.59998 17.4221 3.59998 12.6438C3.59998 8.93525 5.90919 5.77256 9.15306 4.54192" stroke="black" stroke-linecap="round"/>
</svg>
