<svg stroke-width= "1.5px" width="24" height="24" viewBox="0 0 24 24" fill="none" xmlns="http://www.w3.org/2000/svg">
<path d="M11.1354 3.57768C11.5269 3.31752 12.0363 3.31752 12.4279 3.57768L20.0652 8.65208C20.5868 8.9986 20.5868 9.76458 20.0652 10.1111L12.4279 15.1855C12.0363 15.4457 11.5269 15.4457 11.1353 15.1855L3.498 10.1111C2.97646 9.76458 2.97646 8.9986 3.498 8.65208L11.1354 3.57768Z" stroke="black" stroke-linecap="round" stroke-linejoin="round"/>
<path d="M16.6802 12.4039C17.4324 12.9037 18.5607 13.6533 20.0652 14.6529C20.4681 14.9206 20.5777 15.4642 20.31 15.8671C20.2455 15.9642 20.1623 16.0474 20.0652 16.1119L12.4278 21.1863C12.0363 21.4465 11.5269 21.4465 11.1353 21.1863L3.49793 16.1119C3.09504 15.8442 2.98543 15.3006 3.25312 14.8977C3.31763 14.8006 3.40085 14.7174 3.49793 14.6529C5.0156 13.6445 6.15385 12.8883 6.91269 12.3841" stroke="black" stroke-linecap="round" stroke-linejoin="round"/>
</svg>
