<svg stroke-width= "1.5px" width="24" height="24" viewBox="0 0 24 24" fill="none" xmlns="http://www.w3.org/2000/svg">
<path d="M9.6978 14.2848V11.9748C9.6978 10.9308 8.8806 10.0854 7.8372 10.086L7.8492 10.0866C5.3928 10.0896 3.3996 8.09882 3.3996 5.64182V3.99902H8.6328C11.8464 3.99902 12.6996 6.03062 12.6996 8.24342L12.699 8.24522H12.6996L12.699 8.24342C12.699 6.03062 13.5522 3.99902 16.7658 3.99902H21.999V5.64182C21.999 8.09882 20.0484 10.0902 17.592 10.0866L17.604 10.086C16.5606 10.0848 15.7002 10.9308 15.7002 11.9748L15.699 14.7684C15.699 18.0222 13.08 20.6598 9.8496 20.6598C6.6186 20.6598 3.999 18.0216 3.999 14.7684C3.999 13.8078 4.2276 12.9006 4.6326 12.099" stroke="black" stroke-linecap="round" stroke-linejoin="round"/>
</svg>
