<svg stroke-width= "1.5px" width="24" height="24" viewBox="0 0 24 24" fill="none" xmlns="http://www.w3.org/2000/svg">
<path d="M11.8 21.1C11.7 21 11.6 21 11.4 20.9C11.1 20.7 10.7 20.5 10.4 20.2C9.30002 19.4 8.20002 18.6 7.20002 17.7C4.30002 15.1 2.90002 12.7 2.90002 9.8C2.90002 6.3 5.40002 3.6 8.40002 3.6C9.60002 3.6 10.7 4 11.7 4.8L12 5L12.3 4.7C13.2 3.9 14.4 3.5 15.6 3.5C18.6 3.5 21.1 6.2 21.1 9.7C21.1 12.6 19.8 15 16.8 17.6C15.8 18.5 14.7 19.3 13.6 20.1L12.2 21C12.1 21.1 11.9 21.1 11.8 21.1Z" stroke="black"/>
<path d="M7.5 11.7L9.6 9.90001C9.8 9.80001 10 9.80001 10.2 9.90001L13.8 12.5C14 12.6 14.2 12.6 14.4 12.5L16.5 10.6" stroke="black" stroke-linecap="round" stroke-linejoin="round"/>
</svg>
