<svg width="24" height="24" viewBox="0 0 24 24" fill="none" xmlns="http://www.w3.org/2000/svg">
<path d="M3.29993 6.19874H20.6999" stroke="black" stroke-linecap="round" stroke-linejoin="round"/>
<path d="M18.9 6.19873V16.5837C18.9 18.1885 18.7329 18.7704 18.4191 19.3571C18.1054 19.9437 17.645 20.4041 17.0583 20.7179C16.4716 21.0316 15.8897 21.1987 14.285 21.1987H9.71497C8.11024 21.1987 7.52832 21.0316 6.94165 20.7179C6.35499 20.4041 5.89457 19.9437 5.58081 19.3571C5.26706 18.7704 5.09998 18.1885 5.09998 16.5837V6.19873" stroke="black"/>
<path d="M6.90002 5.59872V4.90622C6.90002 4.10385 6.98357 3.8129 7.14044 3.51956C7.29732 3.22623 7.52753 2.99602 7.82086 2.83914C8.1142 2.68227 8.40515 2.59872 9.20752 2.59872H14.7925C15.5949 2.59872 15.8859 2.68227 16.1792 2.83914C16.4725 2.99602 16.7027 3.22623 16.8596 3.51956C17.0165 3.8129 17.1 4.10385 17.1 4.90622V5.59872" stroke="black" stroke-linecap="square" stroke-linejoin="round"/>
<path d="M8.70002 10.9987V16.3987" stroke="black" stroke-linecap="round" stroke-linejoin="round"/>
<path d="M12.0001 10.9987V16.3987" stroke="black" stroke-linecap="round" stroke-linejoin="round"/>
<path d="M15.3 10.9987V16.3987" stroke="black" stroke-linecap="round" stroke-linejoin="round"/>
</svg>
