<svg width="24" height="24" viewBox="0 0 24 24" fill="none" xmlns="http://www.w3.org/2000/svg">
<path d="M3.501 7.68998C3.482 8.48998 3.75 9.17098 4.308 9.74398C4.866 10.316 5.541 10.6 6.34 10.6H10.146C10.395 10.6 10.6 10.395 10.6 10.145V6.33998C10.6 5.54098 10.316 4.86598 9.743 4.30798C9.171 3.74898 8.489 3.48098 7.69 3.50098C5.412 3.55698 3.557 5.41098 3.501 7.68998Z" stroke="black"/>
<path d="M16.31 3.50098C17.449 3.52898 18.482 4.00598 19.237 4.76198C19.992 5.51698 20.47 6.55098 20.499 7.68998C20.518 8.48998 20.25 9.17098 19.692 9.74398C19.134 10.316 18.459 10.6 17.66 10.6H13.854C13.605 10.6 13.4 10.395 13.4 10.145V6.33998C13.4 5.54098 13.684 4.86598 14.257 4.30798C14.829 3.74898 15.511 3.48098 16.31 3.50098Z" stroke="black"/>
<path d="M16.31 20.499C15.51 20.518 14.829 20.25 14.256 19.692C13.684 19.134 13.399 18.459 13.399 17.66V13.854C13.399 13.605 13.604 13.4 13.853 13.4H17.659C18.458 13.4 19.133 13.684 19.691 14.257C20.249 14.829 20.517 15.511 20.498 16.311C20.443 18.588 18.588 20.443 16.31 20.499Z" stroke="black"/>
<path d="M3.501 16.31C3.482 15.511 3.75 14.829 4.308 14.257C4.866 13.684 5.541 13.4 6.34 13.4H10.146C10.395 13.4 10.6 13.605 10.6 13.854V17.66C10.6 18.459 10.316 19.134 9.743 19.692C9.171 20.25 8.489 20.518 7.689 20.499C5.412 20.443 3.557 18.588 3.501 16.31Z" stroke="black"/>
</svg>
