<svg width="24" height="24" viewBox="0 0 24 24" fill="none" xmlns="http://www.w3.org/2000/svg">
<path fill-rule="evenodd" clip-rule="evenodd" d="M14.2835 21.3C14.1313 21.3 14.0095 21.2675 13.8994 21.1815C13.6769 21.0073 13.6652 20.7215 13.6488 20.3614C13.5668 18.5307 12.712 17.16 11.0374 16.1703C11.007 16.1517 10.9765 16.1331 10.9484 16.1145C11.0421 17.081 10.9695 17.922 10.7212 18.7235C10.4425 19.6296 9.89917 20.3916 9.10756 20.991C8.83322 21.2117 8.23207 21.2012 7.92337 21.0827C6.23882 20.4361 4.98436 19.3874 4.14944 18.461C3.63056 17.8853 2.60751 16.5367 2.70674 14.2675C2.79574 12.2323 3.73958 10.3505 5.51017 8.68008C6.36217 7.87628 7.66252 6.67046 8.34405 5.82479C9.13801 4.83741 9.57597 4.00336 9.76802 3.12052L9.85936 2.70001L10.2435 2.89517C12.274 3.92669 13.7825 5.05858 14.9486 6.27086C16.6413 8.03055 17.1548 10.3087 17.1548 10.3087C17.1548 10.3087 17.4677 9.67472 17.5605 8.86123C17.6251 8.29502 17.5427 7.62179 17.4794 7.23032C17.4615 7.11932 17.5875 7.0425 17.6715 7.11722C18.4344 7.7957 20.6979 10.0339 21.2113 13.1105C21.5223 14.9743 21.0052 16.8324 19.8271 18.3332C18.6608 19.8178 16.9159 20.84 14.9112 21.2117C14.6488 21.2628 14.4474 21.3 14.2835 21.3Z" stroke="black" stroke-linejoin="round"/>
</svg>
