<svg stroke-width= "1.5px" width="24" height="24" viewBox="0 0 24 24" fill="none" xmlns="http://www.w3.org/2000/svg">
<path fill-rule="evenodd" clip-rule="evenodd" d="M19.7404 19.2C20.251 19.2 20.5379 18.5955 20.2292 18.1888C19.6273 17.3956 18.8611 16.2991 18.5781 15.5193C17.9538 13.7988 17.9538 9.84361 17.9538 9.84361C17.9538 6.39536 15.6573 3.60001 12.0055 3.60001C8.35365 3.60001 6.07458 6.39536 6.07458 9.84361C6.07458 9.84361 6.07458 13.9462 5.45028 15.5193C5.14312 16.2932 4.36764 17.3991 3.76636 18.1964C3.46047 18.602 3.74706 19.2 4.25509 19.2H19.7404Z" stroke="black" stroke-linecap="round" stroke-linejoin="round"/>
<ellipse rx="1.8" ry="0.9" transform="matrix(1 0 0 -1 12 20.4011)" stroke="black" stroke-linecap="round" stroke-linejoin="round"/>
<path d="M11.4 3.59999V2.7091C11.4 2.20701 11.803 1.79999 12.3 1.79999C12.7971 1.79999 13.2 2.20701 13.2 2.7091V3.49203" stroke="black" stroke-linecap="round" stroke-linejoin="round"/>
</svg>
