<svg stroke-width= "1.5px" width="24" height="24" viewBox="0 0 24 24" fill="none" xmlns="http://www.w3.org/2000/svg">
<path d="M15.7153 3.29999L16.4233 3.29999C17.4932 3.29999 17.8811 3.41138 18.2722 3.62055C18.6633 3.82972 18.9703 4.13666 19.1794 4.52777C19.3886 4.91888 19.5 5.30683 19.5 6.37665V18.2233C19.5 19.2931 19.3886 19.6811 19.1794 20.0722C18.9703 20.4633 18.6633 20.7703 18.2722 20.9794C17.8811 21.1886 17.4932 21.3 16.4233 21.3H7.57666C6.50684 21.3 6.1189 21.1886 5.72779 20.9794C5.33667 20.7703 5.02973 20.4633 4.82056 20.0722C4.61139 19.6811 4.5 19.2931 4.5 18.2233V6.37665C4.5 5.30683 4.61139 4.91888 4.82056 4.52777C5.02973 4.13666 5.33667 3.82972 5.72779 3.62055C6.1189 3.41138 6.50684 3.29999 7.57666 3.29999H8.2895" stroke="black" stroke-linecap="round" stroke-linejoin="round"/>
<path d="M9.59998 9.29999L12 11.7L14.4 9.29999" stroke="black" stroke-linecap="round"/>
<path d="M9 11.7H15" stroke="black" stroke-linecap="round"/>
<path d="M9 14.1H15" stroke="black" stroke-linecap="round"/>
<path d="M12 11.7V16.5" stroke="black" stroke-linecap="round"/>
<rect x="8.60107" y="2.29739" width="6.79737" height="2.01091" rx="0.5" stroke="black"/>
</svg>
