<svg width="24" height="24" viewBox="0 0 24 24" fill="none" xmlns="http://www.w3.org/2000/svg">
<path d="M20.6897 16.987C20.6897 18.8043 19.197 20.2878 17.3429 20.2878C15.4888 20.2878 13.996 18.8043 13.996 16.987C13.996 15.1696 15.4888 13.6862 17.3429 13.6862C19.197 13.6862 20.6897 15.1696 20.6897 16.987Z" stroke="black"/>
<path d="M10.004 16.987C10.004 18.8043 8.51126 20.2878 6.65714 20.2878C4.80302 20.2878 3.31027 18.8043 3.31027 16.987C3.31027 15.1696 4.80302 13.6862 6.65714 13.6862C8.51126 13.6862 10.004 15.1696 10.004 16.987Z" stroke="black"/>
<path d="M15.1427 14.1582L6.4434 3.6142" stroke="black" stroke-linecap="round" stroke-linejoin="round"/>
<path d="M8.59464 14.0213L17.1811 3.6142" stroke="black" stroke-linecap="round" stroke-linejoin="round"/>
</svg>
