<svg stroke-width= "1.5px" width="24" height="24" viewBox="0 0 24 24" fill="none" xmlns="http://www.w3.org/2000/svg">
<circle cx="16.5" cy="13.2" r="2.7" stroke="black" stroke-linecap="round" stroke-linejoin="round"/>
<path d="M21.3 20.7C21.3 18.0491 19.151 15.9 16.5 15.9C13.849 15.9 11.7 18.0491 11.7 20.7" stroke="black" stroke-linecap="round" stroke-linejoin="round"/>
<path d="M6.90002 6.89998H15.3" stroke="black" stroke-linecap="round" stroke-linejoin="round"/>
<path d="M6.90002 11.1H11.1" stroke="black" stroke-linecap="round" stroke-linejoin="round"/>
<path d="M6.90002 15.3H9.30002" stroke="black" stroke-linecap="round" stroke-linejoin="round"/>
<path d="M9.30428 21.3H7.91504C6.31031 21.3 5.72839 21.1329 5.14173 20.8192C4.55506 20.5054 4.09464 20.045 3.78089 19.4583C3.46713 18.8717 3.30005 18.2898 3.30005 16.685V7.31501C3.30005 5.71027 3.46713 5.12836 3.78089 4.54169C4.09464 3.95502 4.55506 3.4946 5.14173 3.18085C5.72839 2.8671 6.31031 2.70001 7.91504 2.70001H14.3833C15.8701 2.70001 16.4717 2.8671 17.0584 3.18085C17.645 3.4946 18.1055 3.95502 18.4192 4.54169C18.733 5.12836 18.9 5.72993 18.9 7.21672V8.10038" stroke="black" stroke-linecap="round" stroke-linejoin="round"/>
</svg>
