<svg stroke-width= "1.5px" width="24" height="24" viewBox="0 0 24 24" fill="none" xmlns="http://www.w3.org/2000/svg">
<path d="M6.09999 14C4.49999 13 3.39999 11.7 3.59999 10.6C3.59999 10.4 3.69999 10.1 3.89999 9.79999C4.39999 9.29999 5.19999 9.59999 6.29999 9.29999C6.99999 9.29999 7.49999 8.99999 7.99999 8.59999C9.09999 7.79999 9.29999 7.19999 10.3 6.19999C11.2 5.19999 12.2 4.29999 13.6 3.99999C15.4 3.69999 16.8 4.59999 17.3 4.99999C17.7 5.29999 19 6.39999 19.2 8.19999C19.2 8.39999 19.3 9.29999 19 10.4C18.8 11.2 18.6 11.3 18.3 11.9C17.3 14 18.1 16.9 18.2 17.2C18.3 17.6 18.6 18.3 18.2 18.9C18 19.2 17.8 19.3 17.7 19.4C16.6 20.1 14.4 19 14.2 18.9" stroke="black" stroke-linecap="round" stroke-linejoin="round"/>
<path d="M15.5 3.79999C16.3 2.79999 17.6 2.59999 18.5 3.19999C19.5 3.89999 19.7 5.49999 19 6.59999" stroke="black" stroke-linecap="round" stroke-linejoin="round"/>
<path d="M8.79998 20.9C9.99998 20.9 11 19.9 11 18.7C11 17.5 9.99998 16.5 8.79998 16.5C7.59998 16.5 6.59998 17.5 6.59998 18.7C6.59998 19.9 7.59998 20.9 8.79998 20.9Z" stroke="black"/>
<path d="M11 18.7V14V12C11 11.7 11.1 11 11.9 10.8C12.7 10.6 14.1 10.2 14.7 10C14.6 11.1 13.6 13.5 11.1 14" stroke="black" stroke-linecap="round"/>
</svg>
