<svg width="24" height="24" viewBox="0 0 24 24" fill="none" xmlns="http://www.w3.org/2000/svg">
<path d="M5.70001 11.682V9.00001C5.70001 5.52062 8.52062 2.70001 12 2.70001V2.70001C15.4794 2.70001 18.3 5.52062 18.3 9.00001V11.7" stroke="black" stroke-linecap="round"/>
<path d="M10.8463 21.2047C11.2037 21.2576 11.5723 21.2853 11.9492 21.2853C14.7565 21.2853 17.1087 19.7493 17.7272 17.6853" stroke="black" stroke-linecap="round"/>
<path d="M6.22 17.489H5.372C4.338 17.489 3.5 16.651 3.5 15.617V13.772C3.5 12.738 4.338 11.9 5.372 11.9H6.22C6.492 11.9 6.713 12.121 6.713 12.393V16.997C6.713 17.269 6.492 17.489 6.22 17.489Z" stroke="black" stroke-linecap="round"/>
<path d="M17.793 17.489H18.641C19.675 17.489 20.513 16.651 20.513 15.617V13.772C20.513 12.738 19.675 11.9 18.641 11.9H17.793C17.521 11.9 17.3 12.121 17.3 12.393V16.997C17.301 17.269 17.521 17.489 17.793 17.489Z" stroke="black" stroke-linecap="round"/>
</svg>
