<svg stroke-width= "1.5px" width="24" height="24" viewBox="0 0 24 24" fill="none" xmlns="http://www.w3.org/2000/svg">
<path d="M7.20002 17.6C4.30002 15 2.90002 12.6 2.90002 9.7C2.90002 6.2 5.40002 3.5 8.40002 3.5C9.60002 3.5 10.7 3.9 11.7 4.7L12 5L12.3 4.7C13.2 3.9 14.4 3.5 15.6 3.5C18.6 3.5 21.1 6.2 21.1 9.7C21.1 12.6 19.8 15 16.8 17.6C15.8 18.5 14.7 19.3 13.6 20.1C13.2 20.3 12.3 21 12.2 21C12.1 21.1 12 21.1 11.9 21C11.8 20.9 10.8 20.3 10.5 20.1C9.30002 19.4 8.20002 18.5 7.20002 17.6Z" stroke="black"/>
</svg>
