<svg stroke-width= "1.5px" width="24" height="24" viewBox="0 0 24 24" fill="none" xmlns="http://www.w3.org/2000/svg">
<path fill-rule="evenodd" clip-rule="evenodd" d="M21.2995 9.81202C21.2995 4.84615 14.1148 3.52338 11.8156 3.52338C9.51662 3.52338 2.69946 4.84615 2.69946 9.81202C2.69946 14.7779 9.22924 20.4051 11.9593 20.57C14.6895 20.7349 21.2995 14.7778 21.2995 9.81202Z" stroke="black" stroke-linecap="round" stroke-linejoin="round"/>
<path d="M13.6644 10.3896C12.0468 10.2428 10.711 11.0075 10.1336 11.6837C9.40201 12.5401 9.10881 13.689 9.47362 14.7517C9.83844 15.8143 10.8732 16.6426 12.2207 16.6425C13.3525 16.6499 14.4524 15.777 14.6063 14.6649C14.6712 14.1961 14.5714 13.6956 14.2803 13.3207C13.7901 12.6901 12.693 12.6628 12.207 13.081C12.0103 13.2501 11.7691 13.5799 11.7944 13.9562C11.7998 14.0387 11.8199 14.1389 11.8346 14.1859" stroke="black" stroke-linecap="round" stroke-linejoin="round"/>
<path d="M6.91052 10.7894C7.80752 10.6025 9.65067 10.2796 11.6728 10.2822C13.6553 10.2848 15.5609 10.5314 16.5292 10.7583" stroke="black" stroke-linecap="round" stroke-linejoin="round"/>
<path d="M14.251 7.8969C13.0601 7.66008 10.612 7.66008 9.4212 7.897" stroke="black" stroke-linecap="round" stroke-linejoin="round"/>
</svg>
