<svg stroke-width= "1.5px" width="24" height="24" viewBox="0 0 24 24" fill="none" xmlns="http://www.w3.org/2000/svg">
<rect x="2.29999" y="7.70001" width="19.4" height="12.8" rx="6.4" stroke="black" stroke-linecap="round" stroke-linejoin="round"/>
<circle cx="7.79998" cy="14.1" r="2.2" stroke="black" stroke-linecap="round" stroke-linejoin="round"/>
<path fill-rule="evenodd" clip-rule="evenodd" d="M14.1 13.2C13.6029 13.2 13.2 13.6029 13.2 14.1C13.2 14.5972 13.6029 15 14.1 15C14.5972 15 15 14.5972 15 14.1C15 13.6029 14.5972 13.2 14.1 13.2Z" fill="black"/>
<path fill-rule="evenodd" clip-rule="evenodd" d="M17.7 13.2C17.2028 13.2 16.8 13.6029 16.8 14.1C16.8 14.5972 17.2028 15 17.7 15C18.1971 15 18.6 14.5972 18.6 14.1C18.6 13.6029 18.1971 13.2 17.7 13.2Z" fill="black"/>
<path d="M11.9925 2.6944V7.4944" stroke="black" stroke-linecap="round" stroke-linejoin="round"/>
</svg>
