<svg width="24" height="24" viewBox="0 0 24 24" fill="none" xmlns="http://www.w3.org/2000/svg">
<path d="M15.2588 14.4593C15.1383 14.5667 15.077 14.7257 15.0943 14.8862C15.0981 14.9206 15.1 14.9585 15.1 15V18C15.1 18.718 14.5179 19.3 13.8 19.3H10.2C9.48201 19.3 8.89998 18.718 8.89998 18V15C8.89998 14.9588 8.90188 14.9181 8.90558 14.8781C8.92021 14.72 8.85891 14.5644 8.74041 14.4588C7.73345 13.5612 7.09998 12.2549 7.09998 10.8C7.09998 8.0938 9.29378 5.89999 12 5.89999C14.7062 5.89999 16.9 8.0938 16.9 10.8C16.9 12.2549 16.2665 13.5612 15.2588 14.4593Z" stroke="black" stroke-linecap="round" stroke-linejoin="round"/>
<path d="M9.58295 11.2526L12.0097 13.6694L14.4265 11.2526" stroke="black" stroke-linecap="round" stroke-linejoin="round"/>
<path d="M13.7943 21.303L10.0677 21.303" stroke="black" stroke-linecap="round" stroke-linejoin="round"/>
<path d="M20.8417 6.60301L18.7706 7.79876" stroke="black" stroke-linecap="round" stroke-linejoin="round"/>
<path d="M20.8417 16.797L18.7706 15.6013" stroke="black" stroke-linecap="round" stroke-linejoin="round"/>
<path d="M3.18521 16.797L5.25631 15.6012" stroke="black" stroke-linecap="round" stroke-linejoin="round"/>
<path d="M3.18521 6.60302L5.25632 7.79877" stroke="black" stroke-linecap="round" stroke-linejoin="round"/>
<path d="M12.0134 1.50601V3.89752" stroke="black" stroke-linecap="round" stroke-linejoin="round"/>
<path d="M12.0075 17.6854V13.564" stroke="black" stroke-linecap="round" stroke-linejoin="round"/>
</svg>
