<svg width="24" height="24" viewBox="0 0 24 24" fill="none" xmlns="http://www.w3.org/2000/svg">
<path d="M12.0014 2.70001C12.3159 2.70001 12.6256 2.78157 12.8965 2.93743L19.5072 6.70903C20.0594 7.02316 20.4 7.60782 20.4 8.23568V15.7643C20.4 16.3922 20.057 16.9769 19.5072 17.291L12.8965 21.0626C12.6256 21.2185 12.3131 21.3 12.0014 21.3C11.6892 21.3 11.3771 21.2185 11.1062 21.0626L4.49274 17.291C3.94331 16.9769 3.59998 16.3922 3.59998 15.7643V8.23568C3.59998 7.60782 3.94331 7.02316 4.49274 6.70903L11.1062 2.93743C11.3771 2.78157 11.6868 2.70001 12.0014 2.70001" stroke="black"/>
<circle cx="12" cy="12" r="3.1" stroke="black" stroke-linecap="round" stroke-linejoin="round"/>
</svg>
