<svg width="24" height="24" viewBox="0 0 24 24" fill="none" xmlns="http://www.w3.org/2000/svg">
<path d="M5.409 13.983V10.4C5.409 6.75499 8.364 3.79999 12.009 3.79999C15.654 3.79999 18.609 6.75499 18.609 10.4V14" stroke="black" stroke-linecap="round"/>
<path d="M5.62002 20.097H4.77202C3.73802 20.097 2.90002 19.259 2.90002 18.225V16.38C2.90002 15.346 3.73802 14.508 4.77202 14.508H5.62002C5.89202 14.508 6.11302 14.729 6.11302 15.001V19.605C6.11302 19.877 5.89202 20.097 5.62002 20.097Z" stroke="black" stroke-linecap="round"/>
<path d="M18.395 20.097H19.243C20.277 20.097 21.115 19.259 21.115 18.225V16.38C21.115 15.346 20.277 14.508 19.243 14.508H18.395C18.123 14.508 17.902 14.729 17.902 15.001V19.605C17.903 19.877 18.123 20.097 18.395 20.097Z" stroke="black" stroke-linecap="round"/>
<path d="M9.42902 17.02L12.034 19.625L14.639 17.02" stroke="black" stroke-linecap="round" stroke-linejoin="round"/>
<path d="M12.034 14V19.136" stroke="black" stroke-linecap="round"/>
</svg>
