<svg width="25" height="24" viewBox="0 0 25 24" fill="none" xmlns="http://www.w3.org/2000/svg">
<path d="M12.5 2.70001C7.40001 2.70001 3.20001 6.90001 3.20001 12C3.20001 17.1 7.40001 21.3 12.5 21.3C17.6 21.3 21.8 17.1 21.8 12C21.8 10.1 21.2 8.40001 20.3 6.90001" stroke="black" stroke-linecap="round"/>
<path d="M12.7 14.5C14.0807 14.5 15.2 13.3807 15.2 12C15.2 10.6193 14.0807 9.5 12.7 9.5C11.3193 9.5 10.2 10.6193 10.2 12C10.2 13.3807 11.3193 14.5 12.7 14.5Z" stroke="black"/>
<path d="M15.2 12V5.70001V3.70001C15.2 3.40001 15.3 2.70001 16.1 2.50001C16.9 2.30001 18.3 1.90001 18.9 1.70001C18.8 2.80001 17.8 5.20001 15.3 5.70001" stroke="black" stroke-linecap="round"/>
</svg>
