<svg width="24" height="24" viewBox="0 0 24 24" fill="none" xmlns="http://www.w3.org/2000/svg">
<path d="M20 11.2175V15.4911C20 17.0589 19.8368 17.6275 19.5302 18.2007C19.2237 18.7738 18.7738 19.2237 18.2007 19.5302C17.6275 19.8368 17.0589 20 15.4911 20H7.5089C5.94106 20 5.37252 19.8368 4.79934 19.5302C4.22616 19.2237 3.77633 18.7738 3.46979 18.2007C3.16325 17.6275 3 17.0589 3 15.4911V7.5089C3 5.94106 3.16325 5.37252 3.46979 4.79934C3.77633 4.22616 4.22616 3.77633 4.79934 3.46979C5.37252 3.16325 5.94106 3 7.5089 3H11.8128" stroke="black" stroke-linecap="round"/>
<path fill-rule="evenodd" clip-rule="evenodd" d="M18.2928 3.70723C18.6834 3.31664 19.3166 3.31664 19.7072 3.70723V3.70723C20.098 4.098 20.0978 4.73161 19.7068 5.12213L13.0778 11.7428C12.4512 12.3686 11.7296 12.8913 10.9397 13.2917L10.8394 13.3426C10.3442 13.5936 9.81363 13.0716 10.0565 12.5724V12.5724C10.4508 11.7617 10.9776 11.0224 11.615 10.385L18.2928 3.70723Z" stroke="black"/>
<path d="M16.6464 5.35355L18.0607 6.76777" stroke="black" stroke-linecap="square"/>
</svg>
