<svg stroke-width= "1.5px" width="24" height="24" viewBox="0 0 24 24" fill="none" xmlns="http://www.w3.org/2000/svg">
<path fill-rule="evenodd" clip-rule="evenodd" d="M16.9867 7.62554C16.9867 10.3408 14.7753 12.5414 12.0481 12.5414C9.32031 12.5414 7.10956 10.3408 7.10956 7.62554C7.10956 4.91028 9.32031 2.70972 12.0481 2.70972C14.7753 2.70972 16.9867 4.91028 16.9867 7.62554Z" stroke="black" stroke-linecap="round" stroke-linejoin="round"/>
<path fill-rule="evenodd" clip-rule="evenodd" d="M10.8 15.6C10.8 14.9373 11.3372 14.4 12 14.4V14.4C12.6627 14.4 13.2 14.9373 13.2 15.6V17.1C13.2 17.7628 12.6627 18.3 12 18.3V18.3C11.3372 18.3 10.8 17.7628 10.8 17.1V15.6Z" stroke="black"/>
<path d="M12 18.6V20.9992" stroke="black" stroke-linecap="round" stroke-linejoin="round"/>
<path d="M5.58752 21.2881C4.66165 21.2881 3.91125 20.5021 3.91125 19.5805C3.91125 15.9734 6.28006 12.9169 9.55419 11.869" stroke="black" stroke-linecap="round" stroke-linejoin="round"/>
<path d="M18.5088 21.2881C19.4346 21.2881 20.185 20.5021 20.185 19.5805C20.185 15.9721 17.815 12.915 14.5396 11.8677" stroke="black" stroke-linecap="round" stroke-linejoin="round"/>
</svg>
