<svg width="24" height="24" viewBox="0 0 24 24" fill="none" xmlns="http://www.w3.org/2000/svg">
<circle cx="12" cy="12" r="9.1" stroke="black"/>
<path d="M10.7448 10.127C10.7056 10.0797 10.6508 10.0232 10.5805 9.95746C10.4738 9.85877 10.3251 9.76248 10.1335 9.66944C9.94257 9.57644 9.71262 9.496 9.44421 9.42904C9.1752 9.36206 8.87626 9.31992 8.54676 9.30304C8.23546 9.2871 7.93755 9.30504 7.65363 9.35735C7.3697 9.40966 7.12016 9.49011 6.90439 9.59912C6.68922 9.70816 6.51631 9.8462 6.38689 10.0128C6.25808 10.1795 6.18723 10.366 6.17616 10.5723C6.1651 10.7787 6.1977 10.9536 6.27516 11.0976C6.35263 11.2417 6.50458 11.4038 6.65391 11.5023C6.80323 11.6008 7.04136 11.7079 7.30869 11.7948C7.57663 11.8818 7.8579 11.9418 8.23978 11.9886C8.62165 12.0355 9.11697 12.0336 9.47337 12.0791C9.82976 12.1246 10.0529 12.1847 10.2428 12.2977C10.4332 12.4106 10.567 12.5322 10.6704 12.6912C10.7726 12.8497 10.809 13.0438 10.7962 13.2832C10.7833 13.5227 10.6832 13.7744 10.5261 13.9564C10.3697 14.1385 10.2153 14.2489 9.97253 14.3734C9.72915 14.4978 9.41205 14.5876 9.11016 14.6458C8.80829 14.7036 8.52055 14.7044 8.21774 14.6888C7.85304 14.6702 7.52299 14.6182 7.22878 14.5331C6.93458 14.448 6.68548 14.3502 6.48147 14.2398C6.27808 14.1293 6.08623 13.9867 6 13.9048" stroke="black" stroke-linecap="round"/>
<circle cx="15" cy="12" r="2.7" stroke="black"/>
<path d="M16.2 13.2L17.7 14.7" stroke="black" stroke-linecap="round"/>
</svg>
