<svg width="24" height="24" viewBox="0 0 24 24" fill="none" xmlns="http://www.w3.org/2000/svg">
<circle cx="12.1616" cy="11.8385" r="2.30769" stroke="black" stroke-linecap="round"/>
<path d="M8.00777 7.50885C6.86993 8.60079 6.16162 10.1369 6.16162 11.8385C6.16162 13.54 6.86993 15.0762 8.00777 16.1681" stroke="black" stroke-linecap="round"/>
<path d="M16.3155 7.50885C17.4533 8.60079 18.1616 10.1369 18.1616 11.8385C18.1616 13.54 17.4533 15.0762 16.3155 16.1681" stroke="black" stroke-linecap="round"/>
<path d="M6.16155 4.22607C3.9127 6.00102 2.46924 8.75118 2.46924 11.8385C2.46924 14.9258 3.9127 17.6759 6.16155 19.4509" stroke="black" stroke-linecap="round"/>
<path d="M18.1616 4.22607C20.4104 6.00102 21.8539 8.75118 21.8539 11.8385C21.8539 14.9258 20.4104 17.6759 18.1616 19.4509" stroke="black" stroke-linecap="round"/>
</svg>
