<svg stroke-width= "1.5px" width="24" height="24" viewBox="0 0 24 24" fill="none" xmlns="http://www.w3.org/2000/svg">
<path d="M5.29403 5.73014C4.84179 6.16929 4.56 6.78878 4.56 7.47529V18.9C4.56 20.2255 5.63451 21.3 6.96 21.3H17.16C18.4855 21.3 19.56 20.2255 19.56 18.9V7.47529C19.56 6.77292 19.265 6.14069 18.7943 5.69999" stroke="black" stroke-linecap="round" stroke-linejoin="round"/>
<circle r="2.7" transform="matrix(1 0 0 -1 14.4 5.40001)" stroke="black" stroke-linecap="round" stroke-linejoin="round"/>
<path d="M10.9 7.76703C10.5144 7.97926 10.0713 8.10001 9.60002 8.10001C8.10886 8.10001 6.90002 6.89117 6.90002 5.40001C6.90002 3.90884 8.10886 2.70001 9.60002 2.70001C10.0708 2.70001 10.5134 2.82049 10.8988 3.03231" stroke="black" stroke-linecap="round" stroke-linejoin="round"/>
<path d="M8.09998 15.9H14.1" stroke="black" stroke-linecap="round" stroke-linejoin="round"/>
<path d="M8.09998 11.7H15.9" stroke="black" stroke-linecap="round" stroke-linejoin="round"/>
</svg>
