<svg width="24" height="24" viewBox="0 0 24 24" fill="none" xmlns="http://www.w3.org/2000/svg">
<circle cx="11.9057" cy="12" r="9" stroke="black" stroke-linecap="round" stroke-linejoin="round"/>
<path d="M12.8144 9.80216C11.0338 10.206 9.84217 11.34 9.45773 12.2523C8.97054 13.4079 9.05298 14.7205 9.80941 15.7149C10.5658 16.7093 11.9579 17.2252 13.3989 16.7598C14.6119 16.3767 15.4873 15.0765 15.2686 13.8508C15.1764 13.3341 14.8971 12.8408 14.4566 12.5462C13.715 12.0506 12.5324 12.4007 12.1568 13.0094C12.0046 13.2557 11.8604 13.6867 12.0171 14.0748C12.0513 14.1598 12.1073 14.2585 12.1393 14.303" stroke="black" stroke-linecap="round" stroke-linejoin="round"/>
<path d="M13.1337 7.04332C11.5984 7.01083 8.41045 7.95267 7.36204 8.9075" stroke="black" stroke-linecap="round" stroke-linejoin="round"/>
<path d="M21.0211 12.4483C21.0211 12.4483 21.2722 12.2993 21.437 12.1718C22.6813 11.2096 23.6047 10.2566 23.3729 9.60141C22.7832 7.93489 17.2109 8.29116 10.9268 10.3972C4.64265 12.5032 0.0264063 15.5614 0.616098 17.228C0.861328 17.921 2.74676 18.1809 4.5404 17.6042" stroke="black" stroke-linecap="round" stroke-linejoin="round"/>
</svg>
