<svg width="25" height="25" viewBox="0 0 25 25" fill="none" xmlns="http://www.w3.org/2000/svg">
<path d="M8.09993 18.5316C5.19993 15.9316 3.79993 13.5316 3.79993 10.6316C3.79993 7.13164 6.29993 4.43164 9.29993 4.43164C10.4999 4.43164 11.5999 4.83164 12.5999 5.63164L12.8999 5.93164L13.1999 5.63164C14.0999 4.83164 15.2999 4.43164 16.4999 4.43164C19.4999 4.43164 21.9999 7.13164 21.9999 10.6316C21.9999 13.5316 20.6999 15.9316 17.6999 18.5316C16.6999 19.4316 15.5999 20.2316 14.4999 21.0316C14.0999 21.2316 13.1999 21.9316 13.0999 21.9316C12.9999 22.0316 12.8999 22.0316 12.7999 21.9316C12.6999 21.8316 11.6999 21.2316 11.3999 21.0316C10.1999 20.3316 9.09993 19.4316 8.09993 18.5316Z" stroke="black"/>
<path d="M21.8186 4.64417L6.28113 20.1816" stroke="black" stroke-linecap="round" stroke-linejoin="round"/>
</svg>
