<svg width="24" height="24" viewBox="0 0 24 24" fill="none" xmlns="http://www.w3.org/2000/svg">
<rect x="2.90002" y="2.90002" width="18.2" height="18.2" rx="9.1" stroke="black"/>
<path d="M12 7.20001V8.84813" stroke="black" stroke-linecap="round" stroke-linejoin="round"/>
<path d="M9.00002 7.79998L10.2124 8.91543" stroke="black" stroke-linecap="round" stroke-linejoin="round"/>
<path d="M15.0123 7.79999L13.8 8.91545" stroke="black" stroke-linecap="round" stroke-linejoin="round"/>
<path d="M8.70331 14.7048L8.70331 13.4698C8.70331 13.1384 8.97194 12.8698 9.30331 12.8698L14.6985 12.8698C15.0298 12.8698 15.2985 13.1384 15.2985 13.4698C15.2985 13.823 15.2985 14.282 15.2985 14.7048" stroke="black" stroke-linecap="round"/>
<path d="M12 14.1C12 15.81 9.87296 16.5 7.79999 16.5" stroke="black" stroke-linecap="round" stroke-linejoin="round"/>
<path d="M12 15C14.04 15.5974 16.08 16.74 16.08 16.74" stroke="black" stroke-linecap="round" stroke-linejoin="round"/>
<rect x="9.09796" y="10.1602" width="5.80822" height="1.54297" stroke="black" stroke-linejoin="round"/>
<path d="M16.196 10.5144V9.55044C16.196 9.21907 15.9273 8.95044 15.596 8.95044H8.42275C8.09138 8.95044 7.82275 9.21907 7.82275 9.55044V10.5144" stroke="black" stroke-linecap="round"/>
</svg>
