<svg stroke-width= "1.5px" width="24" height="24" viewBox="0 0 24 24" fill="none" xmlns="http://www.w3.org/2000/svg">
<path d="M6.50002 15.15C7.38402 15.15 8.10002 14.434 8.10002 13.55C8.10002 12.666 7.38402 11.95 6.50002 11.95C5.61602 11.95 4.90002 12.666 4.90002 13.55C4.90002 14.434 5.61602 15.15 6.50002 15.15Z" stroke="black"/>
<path d="M17.5 15.05C18.328 15.05 19 14.378 19 13.55C19 12.722 18.328 12.05 17.5 12.05C16.672 12.05 16 12.722 16 13.55C16 14.378 16.671 15.05 17.5 15.05Z" stroke="black"/>
<path d="M8.40002 16.25H15.6" stroke="black" stroke-linecap="round"/>
<path d="M17.5 18.35V19.75" stroke="black" stroke-miterlimit="10" stroke-linecap="round"/>
<path d="M6.5 18.35V19.75" stroke="black" stroke-miterlimit="10" stroke-linecap="round"/>
<path d="M5.30001 18.35C3.81801 18.35 2.70001 17.233 2.70001 15.75V12.65C2.70001 11.577 3.40901 10.562 4.42501 10.182C4.67601 10.053 4.85701 9.86 4.91501 9.629L5.40801 6.96C5.76601 5.405 7.17901 4.25 8.70001 4.25H15.3C16.94 4.25 18.356 5.421 18.594 6.975L19.091 9.66C19.151 9.889 19.338 10.12 19.522 10.166C20.591 10.562 21.3 11.578 21.3 12.65V15.75C21.3 17.232 20.183 18.35 18.7 18.35H5.30001Z" stroke="black"/>
</svg>
