<svg width="24" height="24" viewBox="0 0 24 24" fill="none" xmlns="http://www.w3.org/2000/svg">
<path d="M6 17.8638C6.8541 18.2796 7.81347 18.513 8.82734 18.513C12.3987 18.513 15.2938 15.6178 15.2938 12.0465C15.2938 8.47515 12.3987 5.58 8.82734 5.58C7.84794 5.58 6.91939 5.79774 6.08746 6.18745" stroke="black" stroke-linecap="round"/>
<path d="M14.22 18.2121C14.8037 18.3864 15.422 18.48 16.0621 18.48C19.6177 18.48 22.5 15.5922 22.5 12.03C22.5 8.46774 19.6177 5.57998 16.0621 5.57998C15.4277 5.57998 14.8148 5.67192 14.2358 5.84321" stroke="black" stroke-linecap="round"/>
<path d="M3.94025 9.58387L1.50519 12.0189L3.94025 14.454" stroke="black" stroke-linecap="round" stroke-linejoin="round"/>
<path d="M1.79999 12H8.39999" stroke="black" stroke-linecap="round" stroke-linejoin="round"/>
</svg>
