<svg width="24" height="24" viewBox="0 0 24 24" fill="none" xmlns="http://www.w3.org/2000/svg">
<path d="M16.8435 7.25282C17.7091 8.11847 19.0706 8.20412 20.033 7.48692L21.0578 8.51147C21.0578 8.51149 21.0578 8.5115 21.0579 8.51151C21.917 9.37067 21.917 10.7636 21.0578 11.6227L11.8902 20.7904C11.031 21.6495 9.63806 21.6495 8.77891 20.7904L7.75425 19.7657C8.47156 18.8033 8.38595 17.4417 7.52026 16.576C6.65456 15.7103 5.29294 15.6247 4.33054 16.342L3.3059 15.3174C2.44675 14.4582 2.44675 13.0653 3.3059 12.2061L12.4735 3.03847C13.3327 2.17933 14.7256 2.17931 15.5848 3.03845C15.5848 3.03847 15.5848 3.03848 15.5848 3.03849L16.6094 4.06324C15.8922 5.02565 15.9778 6.38718 16.8435 7.25282Z" stroke="black"/>
<path d="M15.8765 11.1755L11.4429 15.6091" stroke="black" stroke-linecap="round" stroke-linejoin="round"/>
<path d="M12.9208 8.21983L8.48726 12.6534" stroke="black" stroke-linecap="round" stroke-linejoin="round"/>
</svg>
