<svg width="24" height="24" viewBox="0 0 24 24" fill="none" xmlns="http://www.w3.org/2000/svg">
<path d="M8.33938 8.9784L8.35138 8.979C5.89378 8.982 3.89998 7.02 3.89998 4.5984V2.979H9.13498C11.3334 2.979 12.5772 4.4448 12.9 5.979C13.2498 4.6854 14.4738 2.979 16.6584 2.979H21.9V4.6134C21.9 7.0578 20.2452 9.0384 17.7852 9.0348L17.4516 9.0342C16.4064 9.033 15.9 9.8748 15.9 10.9128V13.779V13.9596C15.9 17.8362 12.8106 20.979 9.00058 20.979C5.18938 20.979 2.09998 17.8356 2.09998 13.9596C2.09998 12.8148 2.36938 11.7336 2.84758 10.779" stroke="black" stroke-linecap="round" stroke-linejoin="round"/>
<path d="M8.89384 16.4886C10.0705 16.4886 11.0244 15.5347 11.0244 14.358C11.0244 13.1813 10.0705 12.2274 8.89384 12.2274C7.71715 12.2274 6.76324 13.1813 6.76324 14.358C6.76324 15.5347 7.71715 16.4886 8.89384 16.4886Z" stroke="black"/>
<path d="M11.0226 14.3694V9.68402" stroke="black" stroke-linecap="round" stroke-linejoin="round"/>
<path d="M11.025 9.75539V11.3988C13.1388 11.0178 13.9026 9.04859 14.0202 8.11139C13.5234 8.24939 12.3738 8.57519 11.7468 8.77199C11.1204 8.96879 11.0046 9.50939 11.025 9.75539Z" stroke="black" stroke-linecap="round"/>
</svg>
