<svg stroke-width= "1.5px" width="24" height="24" viewBox="0 0 24 24" fill="none" xmlns="http://www.w3.org/2000/svg">
<path d="M8.88661 3.42751L8.88659 3.42748C8.63306 3.07775 8.14765 2.99245 7.79007 3.2348L2.8097 6.61019L2.79119 6.62274L2.77387 6.63689L2.73194 6.67114L2.71448 6.68541L2.69837 6.7012C2.42721 6.96687 2.37565 7.39571 2.59629 7.72125L2.60805 7.73861L2.62123 7.75492L4.49219 10.0712L4.50693 10.0894L4.52331 10.1062L4.56267 10.1465L4.57909 10.1634L4.59703 10.1786C4.86091 10.4025 5.24647 10.4348 5.54734 10.2412L6.07982 9.89855V19.1399C6.07982 20.5282 7.16757 21.662 8.5376 21.7361L8.53759 21.7363L8.55112 21.7367L8.66635 21.7398L8.66634 21.74H8.67982H15.2798C16.6681 21.74 17.8019 20.6522 17.876 19.2822L17.8762 19.2822L17.8765 19.2686L17.8796 19.1534L17.8798 19.1534V19.1399V9.85039L18.4476 10.2281L18.4673 10.2411L18.4881 10.2523L18.5383 10.2793L18.5593 10.2905L18.5812 10.2997C18.9037 10.4351 19.2854 10.3463 19.5129 10.0649L21.3636 7.77534L21.3776 7.75795L21.3901 7.73937L21.4202 7.69439L21.4328 7.67566L21.4436 7.65587C21.6257 7.32277 21.5502 6.8975 21.2443 6.65027L21.228 6.63706L21.2106 6.62527L16.2099 3.23484L16.1918 3.22252L16.1726 3.21183L16.1263 3.18606L16.107 3.17532L16.0868 3.16633C15.7474 3.01484 15.339 3.11624 15.1133 3.42752C14.2662 4.59625 13.2275 5.15166 11.9962 5.15177C10.7694 5.14989 9.73259 4.5946 8.88661 3.42751Z" stroke="black"/>
<path d="M6.5 19H17.5" stroke="black"/>
</svg>
