<svg width="24" height="24" viewBox="0 0 24 24" fill="none" xmlns="http://www.w3.org/2000/svg">
<path d="M5.45459 19.6431C5.45459 19.6431 5.4529 14.3678 9.71105 12.1749" stroke="black" stroke-linecap="round" stroke-linejoin="round"/>
<path d="M19.0823 19.6431C19.0823 19.6431 18.9831 14.2738 14.7249 12.0809" stroke="black" stroke-linecap="round" stroke-linejoin="round"/>
<path d="M5.74 11.9061C4.92694 11.0737 4.56624 9.67203 4.61383 8.30917C4.66142 6.94631 5.69612 5.25028 6.82996 4.64661" stroke="black" stroke-linecap="round"/>
<path d="M2.40001 16.9565C2.40001 14.3826 4.06957 12.7826 5.73914 11.9478" stroke="black" stroke-linecap="round"/>
<path d="M18.264 11.9208C19.0771 11.0883 19.4338 9.67203 19.3862 8.30917C19.3386 6.94631 18.3039 5.25028 17.17 4.64661" stroke="black" stroke-linecap="round"/>
<path d="M21.6 16.9565C21.6 14.3826 19.9304 12.7826 18.2609 11.9478" stroke="black" stroke-linecap="round"/>
<circle cx="12.1453" cy="8.39998" r="4.3" stroke="black" stroke-linejoin="round"/>
</svg>
