<svg stroke-width= "1.5px" width="24" height="24" viewBox="0 0 24 24" fill="none" xmlns="http://www.w3.org/2000/svg">
<path fill-rule="evenodd" clip-rule="evenodd" d="M14.7842 9.34341H17.4874C18.4399 9.34341 22.0587 9.0301 21.157 14.1655C20.2554 19.301 19.294 21.3 13.4065 21.3H5.55003C3.97846 21.3 2.70007 20.0271 2.70007 18.457V13.1032C2.70007 11.5266 3.97654 10.2602 5.55114 10.2602C5.55114 10.2602 5.70538 10.2602 6.74041 10.2602C8.38007 10.2291 10.4332 9.18694 10.4332 6.25197C10.4332 4.52044 10.8013 2.70077 12.8264 2.69998C13.4832 2.69972 15.2891 2.99314 15.2891 6.25197C15.2891 7.64319 15.0978 8.76157 14.7842 9.34341Z" stroke="black" stroke-linecap="round" stroke-linejoin="round"/>
<path d="M6.59993 10.5V21.3" stroke="black"/>
</svg>
