<svg width="24" height="24" viewBox="0 0 24 24" fill="none" xmlns="http://www.w3.org/2000/svg">
<path d="M5.50903 14.183V10.6C5.50903 6.955 8.46403 4 12.109 4C15.754 4 18.709 6.955 18.709 10.6V14.2" stroke="black" stroke-linecap="round"/>
<path d="M13.268 11.54C13.268 11.204 13.366 10.945 13.562 10.763C13.758 10.581 14.008 10.49 14.31 10.49C14.618 10.49 14.877 10.575 15.087 10.746C15.297 10.917 15.402 11.173 15.402 11.515C15.402 11.672 15.368 11.823 15.301 11.969C15.234 12.115 15.143 12.245 15.028 12.36C14.913 12.475 14.779 12.567 14.625 12.637C14.471 12.707 14.31 12.742 14.142 12.742C13.935 12.742 13.831 12.815 13.831 12.96C13.831 13.016 13.853 13.065 13.898 13.107C13.943 13.149 14.035 13.17 14.175 13.17C14.371 13.17 14.561 13.194 14.746 13.241C14.931 13.288 15.093 13.363 15.233 13.464C15.373 13.565 15.485 13.695 15.569 13.855C15.653 14.015 15.695 14.206 15.695 14.43C15.695 14.604 15.664 14.763 15.603 14.909C15.541 15.055 15.455 15.179 15.343 15.283C15.231 15.387 15.095 15.468 14.936 15.527C14.777 15.586 14.599 15.615 14.403 15.615C14.196 15.615 14.014 15.586 13.857 15.527C13.7 15.468 13.57 15.39 13.466 15.292C13.362 15.194 13.283 15.082 13.227 14.956C13.171 14.83 13.14 14.7 13.135 14.565" stroke="black" stroke-linecap="round"/>
<path d="M8.20001 14.8L11.219 11.8" stroke="black" stroke-linecap="round"/>
<path d="M11.209 14.809L8.20898 11.79" stroke="black" stroke-linecap="round"/>
<path d="M5.72 20.297H4.872C3.838 20.297 3 19.459 3 18.425V16.58C3 15.546 3.838 14.708 4.872 14.708H5.72C5.992 14.708 6.213 14.929 6.213 15.201V19.805C6.213 20.077 5.992 20.297 5.72 20.297Z" stroke="black" stroke-linecap="round"/>
<path d="M18.495 20.297H19.343C20.377 20.297 21.215 19.459 21.215 18.425V16.58C21.215 15.546 20.377 14.708 19.343 14.708H18.495C18.223 14.708 18.002 14.929 18.002 15.201V19.805C18.003 20.077 18.223 20.297 18.495 20.297Z" stroke="black" stroke-linecap="round"/>
</svg>
