<svg width="24" height="24" viewBox="0 0 24 24" fill="none" xmlns="http://www.w3.org/2000/svg">
<path d="M21.101 13.9231C21.2314 13.3026 21.3 12.6593 21.3 12C21.3 6.86376 17.1363 2.70001 12 2.70001C6.86376 2.70001 2.70001 6.86376 2.70001 12C2.70001 17.1363 6.86376 21.3 12 21.3V21.3C12.763 21.3 13.5046 21.2081 14.2143 21.0348" stroke="black" stroke-linecap="round"/>
<path d="M12.179 7.36969L13.1896 8.53711" stroke="black" stroke-linecap="round" stroke-linejoin="round"/>
<path d="M15.3929 7.36768L14.4263 8.52552" stroke="black" stroke-linecap="round" stroke-linejoin="round"/>
<path d="M7.7776 7.80115H9.62883C9.79452 7.80115 9.92883 7.93546 9.92883 8.10115V10.1408H8.38157C8.22646 10.1408 8.09693 10.259 8.08282 10.4135L7.92096 12.1853C7.90491 12.3611 8.04326 12.5126 8.21972 12.5126H9.55857C9.72925 12.5126 9.86554 12.6548 9.8583 12.8253L9.76307 15.0697C9.74262 15.5515 9.34609 15.9316 8.86388 15.9316H7.75629" stroke="black" stroke-linecap="round" stroke-linejoin="round"/>
<rect x="10.8" y="13.8" width="6" height="0.51" rx="0.255" fill="black"/>
<circle cx="18.6" cy="18.6" r="2.5" stroke="black"/>
<path d="M20.3404 16.8596L16.8959 20.3041" stroke="black" stroke-linecap="round" stroke-linejoin="round"/>
<rect x="11.3672" y="8.46759" width="4.90196" height="4.07633" stroke="black" stroke-linejoin="round"/>
<path d="M11.5734 10.4374H16.1047" stroke="black" stroke-linecap="round" stroke-linejoin="round"/>
<path d="M11.1052 14.055L16.5061 14.055" stroke="black" stroke-linecap="round" stroke-linejoin="round"/>
<path d="M13.7972 8.74854V16.156" stroke="black" stroke-linecap="round" stroke-linejoin="round"/>
</svg>
