<svg stroke-width= "1.5px" width="24" height="24" viewBox="0 0 24 24" fill="none" xmlns="http://www.w3.org/2000/svg">
<path fill-rule="evenodd" clip-rule="evenodd" d="M14.2043 21.3409C19.3641 20.1225 22.5593 14.952 21.3409 9.79211C20.1225 4.63227 14.9519 1.43709 9.7921 2.65547C4.63226 3.87385 1.43707 9.04443 2.65546 14.2043C3.87384 19.3641 9.04442 22.5593 14.2043 21.3409ZM14.0692 9.65115C13.7692 9.51115 13.4092 9.63115 13.2592 9.92115L11.9992 12.4512L10.7292 9.92115C10.5892 9.63115 10.2292 9.51115 9.92918 9.65115C9.63918 9.80115 9.51918 10.1612 9.65918 10.4612L11.4592 14.0612C11.5592 14.2612 11.7692 14.3912 11.9992 14.3912C12.2292 14.3912 12.4292 14.2612 12.5292 14.0612L14.3292 10.4612C14.4792 10.1612 14.3592 9.80115 14.0692 9.65115ZM11.9992 6.40115C12.2192 6.40115 12.3992 6.22115 12.3992 6.00115V4.80115C12.3992 4.58115 12.2192 4.40115 11.9992 4.40115C11.7792 4.40115 11.5992 4.58115 11.5992 4.80115V6.00115C11.5992 6.22115 11.7792 6.40115 11.9992 6.40115ZM7.18916 6.63115C7.11915 6.55115 7.00916 6.51115 6.90916 6.51115C6.80916 6.51115 6.70916 6.55115 6.62916 6.63115C6.46916 6.79115 6.46916 7.04115 6.62916 7.19115L7.47916 8.04115C7.62916 8.20115 7.87916 8.20115 8.03916 8.04115C8.19915 7.88115 8.19915 7.63115 8.03916 7.48115L7.18916 6.63115ZM5.99917 11.5912H4.79917C4.57917 11.5912 4.39917 11.7712 4.39917 11.9912C4.39917 12.2112 4.57917 12.3912 4.79917 12.3912H5.99917C6.21917 12.3912 6.39917 12.2112 6.39917 11.9912C6.39917 11.7712 6.21917 11.5912 5.99917 11.5912ZM7.47918 15.9511L6.61918 16.8012C6.46918 16.9512 6.46918 17.2011 6.61918 17.3611C6.69918 17.4411 6.79918 17.4811 6.90918 17.4811C7.00918 17.4811 7.10918 17.4411 7.18918 17.3611L8.03918 16.5112C8.19918 16.3612 8.19918 16.1111 8.03918 15.9511C7.87918 15.7912 7.62918 15.7912 7.47918 15.9511ZM11.9992 17.5912C11.7792 17.5912 11.5992 17.7712 11.5992 17.9912V19.1912C11.5992 19.4112 11.7792 19.5912 11.9992 19.5912C12.2192 19.5912 12.3992 19.4112 12.3992 19.1912V17.9912C12.3992 17.7712 12.2192 17.5912 11.9992 17.5912ZM16.5192 15.9511C16.3692 15.7912 16.1192 15.7912 15.9592 15.9511C15.7992 16.1111 15.7992 16.3612 15.9592 16.5112L16.8092 17.3611C16.8792 17.4411 16.9892 17.4811 17.0892 17.4811C17.1892 17.4811 17.2892 17.4411 17.3692 17.3611C17.5292 17.2011 17.5292 16.9512 17.3692 16.8012L16.5192 15.9511ZM17.0892 6.51115C16.9892 6.51115 16.8892 6.55115 16.8092 6.63115L15.9592 7.48115C15.7992 7.63115 15.7992 7.88115 15.9592 8.04115C16.1192 8.20115 16.3692 8.20115 16.5192 8.04115L17.3792 7.19115C17.5292 7.04115 17.5292 6.79115 17.3792 6.63115C17.2992 6.55115 17.1992 6.51115 17.0892 6.51115ZM19.1992 11.6012H17.9992C17.7792 11.6012 17.5992 11.7812 17.5992 12.0012C17.5992 12.2212 17.7792 12.4012 17.9992 12.4012H19.1992C19.4192 12.4012 19.5992 12.2212 19.5992 12.0012C19.5992 11.7812 19.4192 11.6012 19.1992 11.6012Z" fill="black"/>
</svg>
