<svg stroke-width= "1.5px" width="24" height="24" viewBox="0 0 24 24" fill="none" xmlns="http://www.w3.org/2000/svg">
<path fill-rule="evenodd" clip-rule="evenodd" d="M6.29559 4.2C6.88357 4.2 7.37991 4.62482 7.4781 5.19559L7.49025 5.28688L8.80229 19.1434L8.80496 19.2C8.80496 19.5077 8.57334 19.7613 8.27494 19.796L8.20496 19.8H6.79588C6.49812 19.8 6.24922 19.5826 6.20341 19.295L6.19652 19.2275L6.1153 17.4583C6.10343 17.1997 5.89026 16.996 5.63133 16.996C5.3934 16.996 5.19352 17.1665 5.15095 17.3946L5.14333 17.4581L5.04635 19.2327C5.0302 19.5282 4.80222 19.7641 4.51461 19.7963L4.44724 19.8H2.9956C2.97883 19.8 2.96205 19.7993 2.94533 19.7979C2.63871 19.7721 2.40541 19.5201 2.39587 19.2198L2.39771 19.1497L3.56224 5.29946C3.61189 4.70897 4.08345 4.24815 4.66528 4.20354L4.75802 4.2H6.29559ZM5.60062 6.8C5.49635 6.8 5.40867 6.87263 5.38619 6.97058L5.38069 7.01397L5.18409 14.1835C5.18409 14.3943 5.34079 14.5686 5.5441 14.5962L5.61204 14.5998C5.82283 14.5941 5.99273 14.4326 6.01473 14.2287L6.01698 14.1721L5.82054 7.01397C5.81727 6.89486 5.71977 6.8 5.60062 6.8Z" fill="black"/>
<path d="M12.1583 7.2C12.4068 7.2 12.6083 7.40147 12.6083 7.65V11.4H15.0083V6C15.0083 5.00589 14.2024 4.2 13.2083 4.2H11.1083C10.1142 4.2 9.30829 5.00589 9.30829 6V18C9.30829 18.9941 10.1142 19.8 11.1083 19.8H13.2083C14.2024 19.8 15.0083 18.9941 15.0083 18V12.6H12.6083V16.35L12.6042 16.4111C12.5744 16.6307 12.3861 16.8 12.1583 16.8C11.9098 16.8 11.7083 16.5985 11.7083 16.35V7.65L11.7124 7.58894C11.7422 7.36929 11.9305 7.2 12.1583 7.2Z" fill="black"/>
<path d="M18.7477 7.2C18.9962 7.2 19.1977 7.40147 19.1977 7.65V11.4H21.5977V6C21.5977 5.00589 20.7918 4.2 19.7977 4.2H17.6977C16.7036 4.2 15.8977 5.00589 15.8977 6V18C15.8977 18.9941 16.7036 19.8 17.6977 19.8H19.7977C20.7918 19.8 21.5977 18.9941 21.5977 18V12.6L18.9 12.5997V14.9997H19.1977V16.35L19.1936 16.4111C19.1638 16.6307 18.9755 16.8 18.7477 16.8C18.4992 16.8 18.2977 16.5985 18.2977 16.35V7.65L18.3018 7.58894C18.3316 7.36929 18.5199 7.2 18.7477 7.2Z" fill="black"/>
</svg>
