<svg width="24" height="24" viewBox="0 0 24 24" fill="none" xmlns="http://www.w3.org/2000/svg">
<path fill-rule="evenodd" clip-rule="evenodd" d="M12 21.6C17.302 21.6 21.6 17.3019 21.6 12C21.6 6.69806 17.302 2.39999 12 2.39999C6.69809 2.39999 2.40002 6.69806 2.40002 12C2.40002 17.3019 6.69809 21.6 12 21.6ZM8.79777 11.0393C9.5145 11.0393 10.0955 10.4582 10.0955 9.74149C10.0955 9.02475 9.5145 8.44372 8.79777 8.44372C8.08103 8.44372 7.5 9.02475 7.5 9.74149C7.5 10.4582 8.08103 11.0393 8.79777 11.0393ZM16.0452 9.15166C16.3192 8.96525 16.3902 8.59204 16.2037 8.31807C16.0173 8.0441 15.6441 7.97312 15.3702 8.15953L13.5902 9.3706C13.426 9.48232 13.3277 9.66806 13.3277 9.86666C13.3277 10.0653 13.426 10.251 13.5902 10.3627L15.3573 11.5651C15.6313 11.7515 16.0045 11.6805 16.1909 11.4065C16.3773 11.1325 16.3063 10.7593 16.0324 10.5729L14.9943 9.86666L16.0452 9.15166ZM14.6417 14.7189C14.9501 14.8403 15.1016 15.1887 14.9803 15.497C14.5138 16.682 13.3587 17.5224 12.0059 17.5224C10.6544 17.5224 9.50021 16.6836 9.03288 15.5003C8.91115 15.1921 9.06232 14.8436 9.37053 14.7219C9.67873 14.6002 10.0273 14.7513 10.149 15.0595C10.4415 15.8002 11.1634 16.3224 12.0059 16.3224C12.8492 16.3224 13.5717 15.7992 13.8637 15.0575C13.985 14.7491 14.3334 14.5975 14.6417 14.7189Z" fill="black"/>
</svg>
