<svg width="24" height="24" viewBox="0 0 24 24" fill="none" xmlns="http://www.w3.org/2000/svg">
<path fill-rule="evenodd" clip-rule="evenodd" d="M14.6842 3.08161C14.8601 3.52851 14.6403 4.03334 14.1934 4.20917L10.209 5.77681H17.375C19.8603 5.77681 21.875 7.79153 21.875 10.2768V17.7985C21.875 20.2838 19.8603 22.2986 17.375 22.2986H6.375C3.88972 22.2986 1.875 20.2838 1.875 17.7986V10.2768C1.875 8.61978 2.77063 7.17193 4.1042 6.39094C4.18728 6.30613 4.28917 6.23706 4.40679 6.19078L13.5567 2.59079C14.0036 2.41496 14.5084 2.63471 14.6842 3.08161ZM12.0001 13.1886C12.0001 11.8464 10.9599 10.75 9.66112 10.75C9.14604 10.75 8.65341 10.9244 8.25012 11.2427C7.8469 10.9244 7.35424 10.75 6.83908 10.75C5.54032 10.75 4.5001 11.8464 4.5001 13.1886C4.5001 14.2978 5.06459 15.245 6.23296 16.1947C6.63353 16.5203 7.06476 16.8294 7.51175 17.1146C7.6557 17.2064 7.79419 17.2912 7.92364 17.3669C7.99065 17.4061 8.04732 17.4383 8.08318 17.4579C8.18629 17.514 8.31414 17.514 8.41724 17.4579C8.45311 17.4383 8.50977 17.4061 8.57677 17.3669C8.7062 17.2911 8.84467 17.2064 8.98861 17.1146C9.43555 16.8294 9.86673 16.5203 10.2673 16.1947C11.4356 15.245 12.0001 14.2978 12.0001 13.1886ZM14.9999 12.25C14.5857 12.25 14.2499 12.5858 14.2499 13C14.2499 13.4142 14.5857 13.75 14.9999 13.75H17.9999C18.4141 13.75 18.7499 13.4142 18.7499 13C18.7499 12.5858 18.4141 12.25 17.9999 12.25H14.9999ZM14.2499 16C14.2499 15.5858 14.5857 15.25 14.9999 15.25H17.9999C18.4141 15.25 18.7499 15.5858 18.7499 16C18.7499 16.4142 18.4141 16.75 17.9999 16.75H14.9999C14.5857 16.75 14.2499 16.4142 14.2499 16Z" fill="#1A1A1A"/>
</svg>
