<svg width="24" height="24" viewBox="0 0 24 24" fill="none" xmlns="http://www.w3.org/2000/svg">
<path d="M12 21.6C17.302 21.6 21.6 17.3019 21.6 12C21.6 8.88462 20.1161 6.11584 17.8164 4.36198L17.8023 4.47456C17.7228 5.10707 17.4464 5.9975 16.8667 6.808C16.4856 7.34097 15.9593 7.85651 15.262 8.22498V11.7063C15.2716 11.8091 15.2764 11.913 15.2764 12.0177C15.2764 13.8599 13.783 15.3533 11.9409 15.3533C10.0987 15.3533 8.60535 13.8599 8.60535 12.0177C8.60535 10.1756 10.0987 8.68221 11.9409 8.68221C12.0619 8.68221 12.1815 8.68869 12.2993 8.70131V5.85065C12.274 5.19921 12.5928 4.01251 13.9299 3.59303C14.3761 3.45306 15.0858 3.2487 15.6078 3.10095C14.4939 2.64896 13.2761 2.4 12 2.4C6.69809 2.4 2.40002 6.69807 2.40002 12C2.40002 17.3019 6.69809 21.6 12 21.6Z" fill="black"/>
<path d="M13.3753 7.68787V5.82461C13.3542 5.50049 13.5095 4.85266 14.252 4.6197C14.6225 4.50347 15.1879 4.33927 15.6675 4.20256C15.9407 4.12469 16.186 4.05574 16.3515 4.00965L16.7916 3.88716L16.7347 4.34039C16.7134 4.5095 16.672 4.70924 16.6065 4.92566C16.5923 4.97251 16.577 5.02015 16.5606 5.06843C16.4394 5.42374 16.2549 5.81375 15.9915 6.18207C15.6371 6.67759 15.1361 7.13802 14.4534 7.41614L14.4513 7.41701C14.3657 7.4518 14.2773 7.48373 14.186 7.51251V11.7611C14.1955 11.8453 14.2004 11.931 14.2004 12.0177C14.2004 12.1234 14.1932 12.2274 14.1791 12.3293C14.0273 13.4297 13.0831 14.2773 11.9409 14.2773C10.693 14.2773 9.68136 13.2656 9.68136 12.0177C9.68136 10.7698 10.693 9.75821 11.9409 9.75821C12.0636 9.75821 12.184 9.768 12.3014 9.78682C12.5934 9.83365 12.8667 9.93641 13.11 10.0838C13.2038 10.1406 13.2932 10.2041 13.3774 10.2736V7.68787H13.3753Z" fill="black"/>
</svg>
