<svg width="24" height="24" viewBox="0 0 24 24" fill="none" xmlns="http://www.w3.org/2000/svg">
<path fill-rule="evenodd" clip-rule="evenodd" d="M2.4 12C2.4 6.69807 6.69807 2.4 12 2.4C17.3019 2.4 21.6 6.69807 21.6 12C21.6 17.3019 17.3019 21.6 12 21.6C6.69807 21.6 2.4 17.3019 2.4 12ZM15.383 7.33812C15.6381 7.54962 15.6734 7.92787 15.4619 8.18297L12.7894 11.4065L13.9757 12.8289C14.2864 12.6821 14.6336 12.6 15 12.6C16.3255 12.6 17.4 13.6745 17.4 15C17.4 16.3255 16.3255 17.4 15 17.4C13.6745 17.4 12.6 16.3255 12.6 15C12.6 14.4759 12.768 13.991 13.0531 13.5963L12.0104 12.3461L10.9594 13.6138C11.2369 14.0053 11.4 14.4836 11.4 15C11.4 16.3255 10.3255 17.4 9 17.4C7.67452 17.4 6.6 16.3255 6.6 15C6.6 13.6745 7.67452 12.6 9 12.6C9.37403 12.6 9.72808 12.6856 10.0436 12.8382L11.2287 11.4088L8.53922 8.18434C8.32697 7.92987 8.3612 7.55151 8.61568 7.33926C8.87015 7.12702 9.24851 7.16125 9.46075 7.41572L12.0076 10.4693L14.5381 7.41708C14.7496 7.16198 15.1279 7.12663 15.383 7.33812ZM16.2 15C16.2 15.6628 15.6627 16.2 15 16.2C14.3373 16.2 13.8 15.6628 13.8 15C13.8 14.3373 14.3373 13.8 15 13.8C15.6627 13.8 16.2 14.3373 16.2 15ZM9 16.2C9.66274 16.2 10.2 15.6628 10.2 15C10.2 14.3373 9.66274 13.8 9 13.8C8.33726 13.8 7.8 14.3373 7.8 15C7.8 15.6628 8.33726 16.2 9 16.2Z" fill="black"/>
</svg>
