<svg width="24" height="24" viewBox="0 0 24 24" fill="none" xmlns="http://www.w3.org/2000/svg">
<path d="M21.5365 13.11C20.9863 17.8891 16.9265 21.6 12 21.6C7.07349 21.6 3.01372 17.8891 2.46348 13.11H11.49V17.0688L9.96062 15.5394C9.76145 15.3402 9.43854 15.3402 9.23937 15.5394C9.0402 15.7386 9.0402 16.0615 9.23937 16.2606L11.6394 18.6606C11.8385 18.8598 12.1615 18.8598 12.3606 18.6606L14.7606 16.2606C14.9598 16.0615 14.9598 15.7386 14.7606 15.5394C14.5615 15.3402 14.2385 15.3402 14.0394 15.5394L12.51 17.0688V13.11H21.5365Z" fill="black"/>
<path d="M14.31 8.14715H15.7714C16.0578 8.14715 16.29 7.91498 16.29 7.62858C16.29 7.34218 16.0578 7.11001 15.7714 7.11001H14.31V8.14715Z" fill="black"/>
<path fill-rule="evenodd" clip-rule="evenodd" d="M21.5996 12.09H2.40041C2.40013 12.06 2.39999 12.03 2.39999 12C2.39999 6.69806 6.69806 2.39999 12 2.39999C17.3019 2.39999 21.6 6.69806 21.6 12C21.6 12.03 21.5999 12.06 21.5996 12.09ZM7.00384 6.12923C7.26384 6.02089 7.56243 6.14384 7.67076 6.40384L8.7 8.874L9.72923 6.40384C9.83756 6.14384 10.1362 6.02089 10.3961 6.12923C10.6561 6.23756 10.7791 6.53615 10.6708 6.79615L9.17076 10.3961C9.09158 10.5862 8.90588 10.71 8.7 10.71C8.49411 10.71 8.30841 10.5862 8.22923 10.3961L6.72923 6.79615C6.62089 6.53615 6.74384 6.23756 7.00384 6.12923ZM12.51 6.60001C12.51 6.31834 12.2817 6.09001 12 6.09001C11.7183 6.09001 11.49 6.31834 11.49 6.60001V10.2C11.49 10.4817 11.7183 10.71 12 10.71C12.2817 10.71 12.51 10.4817 12.51 10.2V6.60001ZM13.4394 6.23938C13.535 6.14374 13.6647 6.09001 13.8 6.09001H15.7714C16.6212 6.09001 17.31 6.77885 17.31 7.62858C17.31 8.47831 16.6212 9.16715 15.7714 9.16715H14.31V10.2C14.31 10.4817 14.0817 10.71 13.8 10.71C13.5183 10.71 13.29 10.4817 13.29 10.2V6.60001C13.29 6.46475 13.3437 6.33503 13.4394 6.23938Z" fill="black"/>
</svg>
