<svg width="24" height="24" viewBox="0 0 24 24" fill="none" xmlns="http://www.w3.org/2000/svg">
<path fill-rule="evenodd" clip-rule="evenodd" d="M12 21.6C17.3019 21.6 21.6 17.3019 21.6 12C21.6 6.69806 17.3019 2.39999 12 2.39999C6.69806 2.39999 2.39999 6.69806 2.39999 12C2.39999 17.3019 6.69806 21.6 12 21.6ZM14.2714 9.15999C14.2714 9.92895 13.9306 10.6191 13.391 11.0885C14.9384 11.7164 16.0574 13.1804 16.1873 14.92H16.2V15.56C16.2 15.9134 15.9135 16.2 15.56 16.2H7.83999C7.48654 16.2 7.20001 15.9135 7.19999 15.56V15.26C7.19999 13.3727 8.36186 11.7567 10.0093 11.0884C9.46967 10.619 9.12856 9.92888 9.12856 9.15999C9.12856 7.74695 10.2795 6.59999 11.7 6.59999C13.1205 6.59999 14.2714 7.74695 14.2714 9.15999ZM14.9914 7.51855C15.1469 7.43444 15.341 7.49226 15.4252 7.64769L15.4254 7.64823L15.4258 7.64891L15.4268 7.65069L15.4295 7.65598L15.4384 7.67322C15.4457 7.68762 15.4557 7.70781 15.4676 7.73334C15.4915 7.78434 15.5234 7.85694 15.558 7.94755C15.627 8.12815 15.708 8.38374 15.7555 8.68492C15.8373 9.20255 15.8222 9.87276 15.4603 10.5207C16.9202 11.3616 17.5642 12.8722 17.6527 14.1795C17.6646 14.3559 17.5313 14.5085 17.355 14.5204C17.1787 14.5323 17.0261 14.3991 17.0141 14.2227C16.9307 12.9894 16.2901 11.601 14.8639 10.9308C14.7766 10.8898 14.7124 10.8116 14.6893 10.7179C14.6662 10.6242 14.6866 10.5251 14.7448 10.4481C15.1655 9.89225 15.2015 9.27971 15.1234 8.78475C15.0843 8.53755 15.0174 8.32572 14.9602 8.17598C14.9317 8.10143 14.906 8.04314 14.8879 8.00454C14.8789 7.98527 14.8718 7.97098 14.8673 7.96211L14.8626 7.95295L14.8622 7.95207L14.8619 7.95154C14.7784 7.79623 14.8362 7.60253 14.9914 7.51855Z" fill="#3AB6FF"/>
</svg>
