<svg width="24" height="24" viewBox="0 0 24 24" fill="none" xmlns="http://www.w3.org/2000/svg">
<path fill-rule="evenodd" clip-rule="evenodd" d="M12 1.8C9.68042 1.8 7.80001 3.68041 7.80001 6V12C7.80001 14.3196 9.68042 16.2 12 16.2C14.3196 16.2 16.2 14.3196 16.2 12V11.1221C14.6703 11.0716 13.4457 9.81566 13.4457 8.27366C13.4457 6.74472 14.6496 5.49697 16.1612 5.42678C15.8817 3.37836 14.1252 1.8 12 1.8ZM5.39838 12.5868C5.7245 12.5281 6.03649 12.7449 6.09521 13.071C6.59986 15.8737 9.05224 18 12 18C14.9306 18 17.3715 15.8984 17.8958 13.1199C17.9572 12.7943 18.271 12.5802 18.5966 12.6416C18.9222 12.703 19.1364 13.0168 19.075 13.3424C18.4819 16.4858 15.8468 18.9076 12.6 19.1754V21C12.6 21.3314 12.3314 21.6 12 21.6C11.6686 21.6 11.4 21.3314 11.4 21V19.1754C8.13301 18.9059 5.48535 16.4556 4.9142 13.2837C4.85548 12.9575 5.07225 12.6455 5.39838 12.5868ZM18.9895 2.43421C18.565 2.43748 18.1952 2.72451 18.0867 3.13494L17.8558 4.00916C17.8537 4.01582 17.8518 4.02253 17.85 4.0293L17.0934 6.85284C16.9657 6.77672 16.8255 6.71672 16.6748 6.67634C15.7945 6.44048 14.8898 6.96284 14.6539 7.84306C14.4181 8.72328 14.9404 9.62804 15.8206 9.86389C16.6958 10.0984 17.5951 9.58342 17.8373 8.71245L17.8411 8.69888L18.9694 4.48806C19.9727 4.24444 20.7893 3.47111 21.0656 2.44008C21.0685 2.42908 21.0602 2.4183 21.0488 2.41839L18.9895 2.43421Z" fill="black"/>
</svg>
