<svg stroke-width= "1.5px" width="24" height="24" viewBox="0 0 24 24" fill="none" xmlns="http://www.w3.org/2000/svg">
<path fill-rule="evenodd" clip-rule="evenodd" d="M21.6 12C21.6 17.3019 17.302 21.6 12 21.6C6.69809 21.6 2.40002 17.3019 2.40002 12C2.40002 6.69806 6.69809 2.39999 12 2.39999C17.302 2.39999 21.6 6.69806 21.6 12ZM6.06841 7.03123C6.3273 6.92027 6.62712 7.0402 6.73807 7.29909L8.06931 10.4053L9.40055 7.29909C9.5115 7.0402 9.81132 6.92027 10.0702 7.03123C10.3291 7.14218 10.449 7.442 10.3381 7.70089L8.53807 11.9009C8.45771 12.0884 8.27332 12.21 8.06931 12.21C7.8653 12.21 7.68091 12.0884 7.60055 11.9009L5.80055 7.70089C5.68959 7.442 5.80952 7.14218 6.06841 7.03123ZM12.2692 6.99001C12.5508 6.99001 12.7792 7.21834 12.7792 7.50001V11.7C12.7792 11.9817 12.5508 12.21 12.2692 12.21C11.9875 12.21 11.7592 11.9817 11.7592 11.7V7.50001C11.7592 7.21834 11.9875 6.99001 12.2692 6.99001ZM14.6692 6.99001C14.5339 6.99001 14.4042 7.04374 14.3086 7.13938C14.2129 7.23503 14.1592 7.36475 14.1592 7.50001V11.7C14.1592 11.9817 14.3875 12.21 14.6692 12.21C14.9508 12.21 15.1792 11.9817 15.1792 11.7V10.41H17.0692C18.0136 10.41 18.7792 9.64441 18.7792 8.70001C18.7792 7.7556 18.0136 6.99001 17.0692 6.99001H14.6692ZM17.0693 9.38998H15.1793V8.00998H17.0693C17.4504 8.00998 17.7593 8.3189 17.7593 8.69998C17.7593 9.08106 17.4504 9.38998 17.0693 9.38998ZM11.6655 14.1112C11.8651 13.9125 11.8657 13.5896 11.667 13.39C11.4682 13.1904 11.1453 13.1898 10.9457 13.3886L9.24005 15.0875C9.09377 15.2332 9.04977 15.4527 9.12858 15.6435C9.2074 15.8343 9.3935 15.9588 9.59996 15.9588H14.3077C14.5894 15.9588 14.8177 15.7305 14.8177 15.4488C14.8177 15.1672 14.5894 14.9388 14.3077 14.9388H10.8347L11.6655 14.1112ZM12.2421 18.589C12.0426 18.7878 12.0419 19.1107 12.2407 19.3103C12.4395 19.5099 12.7624 19.5105 12.962 19.3117L14.6676 17.6128C14.8139 17.4671 14.8579 17.2476 14.7791 17.0568C14.7003 16.8659 14.5142 16.7415 14.3077 16.7415H9.59994C9.31828 16.7415 9.08994 16.9698 9.08994 17.2515C9.08994 17.5331 9.31828 17.7615 9.59994 17.7615H13.073L12.2421 18.589Z" fill="black"/>
</svg>
