<svg stroke-width= "1.5px" width="24" height="24" viewBox="0 0 24 24" fill="none" xmlns="http://www.w3.org/2000/svg">
<path d="M8.94386 3.60002C4.99841 3.60002 1.79999 6.32314 1.79999 9.68228C1.79999 10.6571 2.52373 12.0919 2.94293 12.8413C3.12609 13.1687 3.22167 13.5397 3.19855 13.9141L3.07454 15.9228C3.05557 16.229 3.29164 16.4924 3.60184 16.5111C3.69935 16.517 3.79673 16.4977 3.8844 16.4552L5.64619 15.6009C5.72437 15.563 5.80476 15.5311 5.88673 15.5051C5.57939 14.7138 5.41242 13.864 5.41242 12.9768C5.41242 8.81108 9.09401 5.46873 13.7022 5.14556C12.4389 4.18435 10.7715 3.60002 8.94386 3.60002Z" fill="black"/>
<path d="M22.2 12.8568C22.2 9.2059 18.7237 6.24623 14.4355 6.24623C10.1474 6.24623 6.6711 9.2059 6.6711 12.8568C6.6711 16.5078 10.1474 19.4675 14.4355 19.4675C15.0908 19.4675 16.0869 19.273 16.7345 19.129C17.1497 19.0367 17.5854 19.0791 17.9682 19.2647L19.9345 20.2181C20.0298 20.2643 20.1356 20.2853 20.2416 20.2789C20.5787 20.2585 20.8353 19.9722 20.8147 19.6394L20.6768 17.4062C20.6537 17.0318 20.7493 16.6605 20.9334 16.3337C21.3847 15.5324 22.2 13.9355 22.2 12.8568Z" fill="black"/>
</svg>
