<svg width="24" height="24" viewBox="0 0 24 24" fill="none" xmlns="http://www.w3.org/2000/svg">
<path d="M16.1681 2.40284L16.2 2.40273C17.7559 2.40273 19.139 3.14303 20.016 4.29062C20.1393 4.45192 20.248 4.62134 20.355 4.79774C20.4309 4.92294 20.355 5.163 20.1561 4.98494C20.1238 4.956 20.0745 4.91014 20.0202 4.85965L20.0198 4.85921C19.9131 4.75994 19.7872 4.64291 19.7334 4.60125C18.9222 3.97411 17.9047 3.60095 16.8 3.60095L16.7678 3.60106H7.23229L7.20002 3.60095C6.09536 3.60095 5.07785 3.97411 4.26668 4.60125C4.21279 4.64291 4.08697 4.75996 3.98025 4.85923C3.92579 4.90989 3.8763 4.95592 3.84389 4.98494C3.64507 5.163 3.56917 4.92294 3.64507 4.79774C3.75201 4.62134 3.86072 4.45192 3.984 4.29062C4.86109 3.14303 6.2441 2.40273 7.80002 2.40273L7.83189 2.40284L12 2.4L16.1681 2.40284Z" fill="black"/>
<path fill-rule="evenodd" clip-rule="evenodd" d="M2.92776 7.41539C2.40002 8.4458 2.40002 9.79841 2.40002 12.5036V13.9204C2.40002 16.6087 2.40002 17.9528 2.92319 18.9796C3.38339 19.8828 4.11769 20.6171 5.02087 21.0773C6.04765 21.6004 7.39177 21.6004 10.08 21.6004H13.92C16.6083 21.6004 17.9524 21.6004 18.9792 21.0773C19.8824 20.6171 20.6167 19.8828 21.0769 18.9796C21.6 17.9528 21.6 16.6087 21.6 13.9204V12.5304C21.6 9.85903 21.6 8.52335 21.0814 7.50021C20.6252 6.60015 19.8969 5.86677 19 5.40427C17.9805 4.87853 16.6449 4.86922 13.9736 4.85059L10.1336 4.82382C7.42841 4.80496 6.07583 4.79553 5.04177 5.31607C4.13227 5.7739 3.39193 6.5091 2.92776 7.41539ZM11.9911 10.5575C11.9891 9.98527 12.3699 9.48232 12.9212 9.32898L15.1383 8.71233C15.1513 8.70871 15.1642 8.71851 15.1642 8.73204C15.1642 10.0712 14.3834 11.266 13.2018 11.8192V16.2C13.2018 16.2368 13.1985 16.2729 13.1921 16.3079C13.1982 16.3729 13.2013 16.4388 13.2013 16.5054C13.2013 17.6652 12.2611 18.6054 11.1013 18.6054C9.94147 18.6054 9.00127 17.6652 9.00127 16.5054C9.00127 15.3456 9.94147 14.4054 11.1013 14.4054C11.4236 14.4054 11.7289 14.478 12.0018 14.6077V12.1979L11.9967 12.1992L11.9911 10.5575Z" fill="black"/>
</svg>
