<svg stroke-width= "1.5px" width="24" height="24" viewBox="0 0 24 24" fill="none" xmlns="http://www.w3.org/2000/svg">
<path fill-rule="evenodd" clip-rule="evenodd" d="M12.014 1.8C14.4467 1.8 16.4503 3.63731 16.7128 6H17.4C19.3882 6 21 7.61177 21 9.6V18C21 19.9882 19.3882 21.6 17.4 21.6H6.6C4.61177 21.6 3 19.9882 3 18V9.6C3 7.61177 4.61178 6 6.6 6H7.31513C7.57766 3.63731 9.58126 1.8 12.014 1.8ZM12.014 3.096C13.7299 3.096 15.1516 4.35523 15.4056 6H8.62234C8.87631 4.35523 10.2981 3.096 12.014 3.096ZM7.5423 13.018C7.77491 12.782 8.1548 12.7793 8.39081 13.0119L10.9579 15.5421L15.6064 10.8936C15.8407 10.6593 16.2206 10.6593 16.4549 10.8936C16.6892 11.1279 16.6892 11.5078 16.4549 11.7422L11.3853 16.8118C11.1521 17.0449 10.7746 17.0463 10.5398 16.8149L7.54845 13.8665C7.31244 13.6339 7.30969 13.254 7.5423 13.018Z" fill="black"/>
</svg>
