<svg width="24" height="24" viewBox="0 0 24 24" fill="none" xmlns="http://www.w3.org/2000/svg">
<path fill-rule="evenodd" clip-rule="evenodd" d="M7.82495 2.39999C7.20363 2.39999 6.69995 2.90367 6.69995 3.52499C4.21467 3.52499 2.19995 5.53971 2.19995 8.02499V17.1174C2.19995 17.2922 2.2138 17.4641 2.24059 17.6323C2.53713 19.8304 4.42064 21.525 6.69995 21.525H17.2C19.4794 21.525 21.3629 19.8302 21.6594 17.632C21.6861 17.4639 21.7 17.2921 21.7 17.1174V8.02499C21.7 5.53971 19.6852 3.52499 17.2 3.52499C17.2 2.90367 16.6963 2.39999 16.075 2.39999C15.4536 2.39999 14.95 2.90367 14.95 3.52499L8.94995 3.52499C8.94995 2.90367 8.44627 2.39999 7.82495 2.39999ZM6.69995 5.39999C6.69995 6.02131 7.20363 6.52499 7.82495 6.52499C8.44627 6.52499 8.94995 6.02131 8.94995 5.39999H14.95C14.95 6.02131 15.4536 6.52499 16.075 6.52499C16.6963 6.52499 17.2 6.02131 17.2 5.39999C18.6497 5.39999 19.825 6.57525 19.825 8.02499H4.07495C4.07495 6.57525 5.2502 5.39999 6.69995 5.39999Z" fill="#1A1A1A"/>
</svg>
