<svg stroke-width= "1.5px" width="24" height="24" viewBox="0 0 24 24" fill="none" xmlns="http://www.w3.org/2000/svg">
<path fill-rule="evenodd" clip-rule="evenodd" d="M2.92773 7.41539C2.39999 8.4458 2.39999 9.79841 2.39999 12.5036V13.9204C2.39999 16.6087 2.39999 17.9528 2.92316 18.9796C3.38335 19.8828 4.11766 20.6171 5.02084 21.0773C6.04762 21.6004 7.39174 21.6004 10.08 21.6004H13.92C16.6082 21.6004 17.9524 21.6004 18.9791 21.0773C19.8823 20.6171 20.6166 19.8828 21.0768 18.9796C21.6 17.9528 21.6 16.6087 21.6 13.9204V12.5304C21.6 9.85904 21.6 8.52335 21.0814 7.50021C20.6251 6.60015 19.8969 5.86677 19 5.40427C17.9805 4.87853 16.6448 4.86922 13.9735 4.85059L10.1335 4.82382C7.42838 4.80496 6.0758 4.79553 5.04174 5.31607C4.13224 5.77391 3.3919 6.5091 2.92773 7.41539ZM12 8.99802C12.3314 8.99802 12.6 9.26665 12.6 9.59802V12.598H15.6C15.9314 12.598 16.2 12.8667 16.2 13.198C16.2 13.5294 15.9314 13.798 15.6 13.798H12.6V16.798C12.6 17.1294 12.3314 17.398 12 17.398C11.6686 17.398 11.4 17.1294 11.4 16.798V13.798H8.39999C8.06862 13.798 7.79999 13.5294 7.79999 13.198C7.79999 12.8667 8.06862 12.598 8.39999 12.598H11.4V9.59802C11.4 9.26665 11.6686 8.99802 12 8.99802Z" fill="black"/>
<path fill-rule="evenodd" clip-rule="evenodd" d="M16.1681 2.40284C16.1787 2.40277 16.1894 2.40273 16.2 2.40273C17.7559 2.40273 19.1389 3.14303 20.016 4.29062C20.1393 4.45192 20.248 4.62134 20.3549 4.79774C20.4308 4.92294 20.3549 5.163 20.1561 4.98494C20.0602 4.89905 19.8147 4.66417 19.7333 4.60125C18.9222 3.97411 17.9047 3.60095 16.8 3.60095C16.7892 3.60095 16.7785 3.60099 16.7677 3.60106H7.23226C7.22151 3.60099 7.21075 3.60095 7.19999 3.60095C6.09533 3.60095 5.07782 3.97411 4.26665 4.60125C4.18526 4.66417 3.93978 4.89905 3.84386 4.98494C3.64504 5.163 3.56914 4.92294 3.64504 4.79774C3.75198 4.62134 3.86069 4.45192 3.98397 4.29062C4.86106 3.14303 6.24407 2.40273 7.79999 2.40273C7.81062 2.40273 7.82124 2.40277 7.83186 2.40284L12 2.4L16.1681 2.40284Z" fill="black"/>
</svg>
