<svg stroke-width= "1.5px" width="24" height="24" viewBox="0 0 24 24" fill="none" xmlns="http://www.w3.org/2000/svg">
<path fill-rule="evenodd" clip-rule="evenodd" d="M12.0005 4.2C14.7426 4.2 16.9644 6.38317 16.9644 9.07283C16.9644 10.7885 16.0604 12.298 14.6941 13.1664C17.956 14.2696 20.3198 17.3224 20.3989 20.9382L20.4 20.9058C20.4 21.5422 19.9421 22.0737 19.3321 22.1999L4.94735 22.1999C4.22715 22.1999 3.63893 21.6452 3.60186 20.9473C3.67724 17.3273 6.04256 14.2702 9.30786 13.1659C7.94142 12.298 7.03656 10.7885 7.03656 9.07283C7.03656 6.38317 9.25831 4.2 12.0005 4.2ZM3.60186 20.9473C3.60063 21.0066 3.60001 21.066 3.60001 21.1256V20.8773C3.60001 20.9008 3.60063 20.9241 3.60186 20.9473ZM13.4998 16.41C13.3963 16.41 13.2971 16.4511 13.224 16.5242C13.1509 16.5973 13.1098 16.6965 13.1098 16.8V19.5C13.1098 19.7154 13.2844 19.89 13.4998 19.89C13.7152 19.89 13.8898 19.7154 13.8898 19.5V18.8775H15.056C15.7374 18.8775 16.2898 18.3251 16.2898 17.6437C16.2898 16.9623 15.7374 16.41 15.056 16.41H13.4998ZM15.0559 18.0975H13.8896V17.19H15.0559C15.3065 17.19 15.5096 17.3931 15.5096 17.6437C15.5096 17.8943 15.3065 18.0975 15.0559 18.0975ZM11.9998 16.41C12.2152 16.41 12.3898 16.5846 12.3898 16.8V19.5C12.3898 19.7154 12.2152 19.89 11.9998 19.89C11.7844 19.89 11.6098 19.7154 11.6098 19.5V16.8C11.6098 16.5846 11.7844 16.41 11.9998 16.41ZM7.94147 16.4436C8.1383 16.3561 8.36877 16.4448 8.45625 16.6416L9.29986 18.5397L10.1435 16.6416C10.231 16.4448 10.4614 16.3561 10.6583 16.4436C10.8551 16.5311 10.9437 16.7616 10.8562 16.9584L9.65625 19.6584C9.59365 19.7992 9.45399 19.89 9.29986 19.89C9.14574 19.89 9.00607 19.7992 8.94348 19.6584L7.74348 16.9584C7.656 16.7616 7.74464 16.5311 7.94147 16.4436Z" fill="black"/>
<path d="M12 1.8C8.01333 1.8 4.71123 4.46474 4.25404 8.40314C4.10709 8.40864 4.00931 8.42377 3.92761 8.4654C3.81471 8.52292 3.72293 8.61471 3.6654 8.7276C3.60001 8.85595 3.60001 9.02397 3.60001 9.36V10.44C3.60001 10.776 3.60001 10.944 3.6654 11.0724C3.72293 11.1853 3.81471 11.2771 3.92761 11.3346C4.05596 11.4 4.22397 11.4 4.56001 11.4H5.04001C5.37604 11.4 5.54405 11.4 5.6724 11.3346C5.7853 11.2771 5.87709 11.1853 5.93461 11.0724C6.00001 10.944 6.00001 10.776 6.00001 10.44V9.36C6.00001 9.02397 6.00001 8.85595 5.93461 8.7276C5.87709 8.61471 5.7853 8.52292 5.6724 8.4654C5.61462 8.43595 5.54879 8.41977 5.46321 8.41087C5.90536 5.19198 8.61681 3 12 3C15.3806 3 18.0905 5.1886 18.5358 8.4034C18.2346 8.43545 18 8.69033 18 9V10.8C18 11.1314 18.2686 11.4 18.6 11.4C18.6 11.6549 18.4665 11.9599 18.2132 12.2132C17.9599 12.4665 17.6549 12.6 17.4 12.6C17.0686 12.6 16.8 12.8686 16.8 13.2C16.8 13.5314 17.0686 13.8 17.4 13.8C18.0451 13.8 18.6401 13.4835 19.0618 13.0618C19.4835 12.6401 19.8 12.0451 19.8 11.4C20.1314 11.4 20.4 11.1314 20.4 10.8V9C20.4 8.66863 20.1314 8.4 19.8 8.4H19.7456C19.287 4.46333 15.9856 1.8 12 1.8Z" fill="black"/>
</svg>
