<svg width="24" height="24" viewBox="0 0 24 24" fill="none" xmlns="http://www.w3.org/2000/svg">
<path d="M12 1.8C8.01368 1.8 4.71181 4.46427 4.25415 8.40209C4.07094 8.40945 3.98922 8.43614 3.90694 8.48014C3.80917 8.53244 3.73243 8.60917 3.68014 8.70695C3.62785 8.80473 3.6 8.90171 3.6 9.16917V10.6308C3.6 10.8983 3.62785 10.9953 3.68014 11.0931C3.73243 11.1908 3.80917 11.2676 3.90694 11.3199C4.00472 11.3722 4.10171 11.4 4.36916 11.4H5.23083C5.49829 11.4 5.59527 11.3722 5.69305 11.3199C5.79083 11.2676 5.86757 11.1908 5.91986 11.0931C5.97215 10.9953 6 10.8983 6 10.6308V9.16917C6 8.90171 5.97215 8.80473 5.91986 8.70695C5.86757 8.60917 5.79083 8.53244 5.69305 8.48014C5.63083 8.44687 5.56892 8.42349 5.4632 8.41089C5.90535 5.192 8.61679 3 12 3C15.3806 3 18.0904 5.1886 18.5358 8.4034C18.2346 8.43546 18 8.69033 18 9V10.8C18 11.1314 18.2686 11.4 18.6 11.4C18.6 11.6549 18.4665 11.9599 18.2132 12.2132C17.9599 12.4665 17.6549 12.6 17.4 12.6C17.0686 12.6 16.8 12.8686 16.8 13.2C16.8 13.5314 17.0686 13.8 17.4 13.8C18.0451 13.8 18.6401 13.4835 19.0618 13.0618C19.4835 12.6401 19.8 12.0451 19.8 11.4C20.1314 11.4 20.4 11.1314 20.4 10.8V9C20.4 8.66863 20.1314 8.4 19.8 8.4H19.7456C19.287 4.46333 15.9856 1.8 12 1.8Z" fill="black"/>
<path fill-rule="evenodd" clip-rule="evenodd" d="M16.9643 9.07283C16.9643 6.38316 14.7425 4.2 12.0004 4.2C9.25822 4.2 7.03646 6.38316 7.03646 9.07283C7.03646 10.7885 7.94132 12.298 9.30776 13.1659C6.04246 14.2701 3.67714 17.3273 3.60176 20.9473C3.63883 21.6452 4.22705 22.1999 4.94725 22.1999L19.332 22.1999C19.942 22.0737 20.3999 21.5422 20.3999 20.9058L20.3988 20.9382C20.3197 17.3224 17.9559 14.2696 14.694 13.1663C16.0603 12.298 16.9643 10.7885 16.9643 9.07283ZM8.07312 16.7017C7.93766 16.5342 7.69209 16.5083 7.52463 16.6438C7.42874 16.7213 7.37925 16.8356 7.37989 16.95V19.17C7.37989 19.3854 7.5545 19.56 7.76989 19.56C7.98528 19.56 8.15989 19.3854 8.15989 19.17V18.0492L9.26668 19.4175C9.40214 19.585 9.6477 19.6109 9.81517 19.4755C9.91156 19.3975 9.96106 19.2831 9.95989 19.168V16.95C9.95989 16.7346 9.78528 16.56 9.56989 16.56C9.3545 16.56 9.17989 16.7346 9.17989 16.95V18.07L8.07312 16.7017ZM11.3401 17.6699V17.3399H12.5701C12.7854 17.3399 12.9601 17.1653 12.9601 16.9499C12.9601 16.7345 12.7854 16.5599 12.5701 16.5599H10.9501C10.7347 16.5599 10.5601 16.7345 10.5601 16.9499V19.1699C10.5601 19.3853 10.7347 19.5599 10.9501 19.5599H12.5701C12.7854 19.5599 12.9601 19.3853 12.9601 19.1699C12.9601 18.9545 12.7854 18.7799 12.5701 18.7799H11.3401V18.4499H12.6001C12.8154 18.4499 12.9901 18.2753 12.9901 18.0599C12.9901 17.8445 12.8154 17.6699 12.6001 17.6699H11.3401ZM14.0568 16.8835C13.9831 16.6811 13.7593 16.5767 13.5569 16.6504C13.3545 16.7241 13.2502 16.9479 13.3238 17.1503L14.0831 19.2364C14.1401 19.3929 14.2869 19.4908 14.4441 19.4931C14.4493 19.4931 14.4545 19.4931 14.4598 19.493C14.6153 19.489 14.7599 19.3914 14.8163 19.2364L15.2105 18.1534L15.5961 19.2131C15.63 19.3278 15.7159 19.4254 15.8369 19.4695C15.8811 19.4855 15.9263 19.4931 15.9707 19.4931C16.0151 19.4931 16.0603 19.4855 16.1045 19.4695C16.2255 19.4254 16.3114 19.3278 16.3453 19.2131L17.0961 17.1503C17.1697 16.9479 17.0654 16.7241 16.863 16.6504C16.6606 16.5767 16.4368 16.6811 16.3631 16.8835L15.9707 17.9616L15.5783 16.8835C15.5205 16.7247 15.3702 16.6262 15.2104 16.6268C15.0506 16.6262 14.9004 16.7247 14.8426 16.8835L14.4497 17.963L14.0568 16.8835Z" fill="black"/>
</svg>
