<svg width="24" height="24" viewBox="0 0 24 24" fill="none" xmlns="http://www.w3.org/2000/svg">
<path fill-rule="evenodd" clip-rule="evenodd" d="M7.2 3C7.2 2.66863 7.46863 2.4 7.8 2.4C8.13137 2.4 8.4 2.66863 8.4 3V3.6H15.6V3C15.6 2.66863 15.8686 2.4 16.2 2.4C16.5314 2.4 16.8 2.66863 16.8 3V3.60417C18.0961 3.63176 18.6253 3.79575 19.1583 4.08084C19.745 4.39459 20.2054 4.85501 20.5192 5.44168C20.8329 6.02835 21 6.61026 21 8.215V16.985C21 18.5897 20.8329 19.1717 20.5192 19.7583C20.2054 20.345 19.745 20.8054 19.1583 21.1192C18.5717 21.4329 17.9897 21.6 16.385 21.6H7.61499C6.01026 21.6 5.42834 21.4329 4.84168 21.1192C4.25501 20.8054 3.79459 20.345 3.48084 19.7583C3.16709 19.1717 3 18.5897 3 16.985V8.215C3 6.61026 3.16709 6.02835 3.48084 5.44168C3.79459 4.85501 4.25501 4.39459 4.84168 4.08084C5.37475 3.79575 5.90389 3.63176 7.2 3.60417V3ZM7.2 4.80368L7.19631 4.80369C6.22309 4.82269 5.81847 4.9173 5.4039 5.13901C5.02636 5.34092 4.73724 5.63005 4.53532 6.00759C4.31361 6.42216 4.219 6.82678 4.2 7.8H19.7926C19.7736 6.82678 19.679 6.42216 19.4573 6.00759C19.2554 5.63005 18.9663 5.34092 18.5887 5.13901C18.1747 4.91758 17.7705 4.82293 16.8 4.80376V5.4C16.8 5.73137 16.5314 6 16.2 6C15.8686 6 15.6 5.73137 15.6 5.4V4.8L15.5963 4.8H8.4V4.8V5.4C8.4 5.73137 8.13137 6 7.8 6C7.46863 6 7.2 5.73137 7.2 5.4V4.80369V4.80368ZM9.6 14.4C10.4284 14.4 11.1 13.7284 11.1 12.9C11.1 12.0716 10.4284 11.4 9.6 11.4C8.77157 11.4 8.1 12.0716 8.1 12.9C8.1 13.7284 8.77157 14.4 9.6 14.4ZM9.60011 13.38C9.86521 13.38 10.0801 13.1651 10.0801 12.9C10.0801 12.6349 9.86521 12.42 9.60011 12.42C9.33501 12.42 9.12011 12.6349 9.12011 12.9C9.12011 13.1651 9.33501 13.38 9.60011 13.38ZM14.4 17.4C15.2284 17.4 15.9 16.7284 15.9 15.9C15.9 15.0716 15.2284 14.4 14.4 14.4C13.5716 14.4 12.9 15.0716 12.9 15.9C12.9 16.7284 13.5716 17.4 14.4 17.4ZM14.4001 16.38C14.6652 16.38 14.8801 16.1651 14.8801 15.9C14.8801 15.6349 14.6652 15.42 14.4001 15.42C14.135 15.42 13.9201 15.6349 13.9201 15.9C13.9201 16.1651 14.135 16.38 14.4001 16.38ZM13.9325 12.2703C14.0818 12.0315 14.0092 11.7168 13.7703 11.5675C13.5315 11.4182 13.2168 11.4909 13.0675 11.7297L10.0675 16.5297C9.91825 16.7686 9.99086 17.0832 10.2297 17.2325C10.4686 17.3818 10.7832 17.3092 10.9325 17.0703L13.9325 12.2703Z" fill="black"/>
</svg>
