<svg stroke-width= "1.5px" width="24" height="24" viewBox="0 0 24 24" fill="none" xmlns="http://www.w3.org/2000/svg">
<path d="M7.79102 8.06998H5.82962V9.60898H2.40002V10.7532H5.46122L3.58142 14.2266H2.40002V16.1532H4.64402C4.64402 16.1532 5.38802 16.1502 5.99282 14.1042C6.45602 12.5376 6.75542 12.1458 6.75542 12.1458C6.75542 12.1458 8.26742 16.1538 9.04382 16.1538C9.82022 16.1538 11.2098 16.1538 11.2098 16.1538V14.064H10.161L8.10422 10.7532H11.2644V9.56818L7.79102 9.54118V8.06998Z" fill="#12162D"/>
<path d="M15.009 11.3256H14.5608V11.0124C14.5608 11.0124 15.1194 9.96358 15.4464 9.15958C15.7374 8.44378 15.2148 8.06998 15.2148 8.06998H12V8.94178L13.6482 8.98258L12.8988 10.6038H12V12.7014H12.8718L12.858 16.1532H14.547L14.5332 12.1116H14.8464L14.8056 14.9352H15.5958V11.9124C15.5964 11.5884 15.333 11.3256 15.009 11.3256Z" fill="#12162D"/>
<path d="M21.6 8.5878H19.5876V7.716H17.844V8.4924H15.7734V14.8404H17.733V16.1538H19.6416L19.6398 14.8404H21.6V8.5878ZM17.8302 14.223H17.394V12.1116H17.8302V14.223ZM17.8302 11.3526H17.394V9.2412H17.8302V11.3526ZM20.0094 14.223H19.5732V12.1116H20.0094V14.223ZM20.0094 11.3526H19.5732V9.2412H20.0094V11.3526Z" fill="#12162D"/>
<path d="M13.4245 7.73039L14.6551 7.77659C14.9749 6.29279 14.2699 5.39999 14.2699 5.39999L12.7321 5.67839C13.6933 6.68699 13.4245 7.73039 13.4245 7.73039Z" fill="#E60012"/>
</svg>
