<svg stroke-width= "1.5px" width="24" height="24" viewBox="0 0 24 24" fill="none" xmlns="http://www.w3.org/2000/svg">
<path fill-rule="evenodd" clip-rule="evenodd" d="M12 2.4C6.70082 2.4 2.40002 6.7008 2.40002 12C2.40002 17.2992 6.70082 21.6 12 21.6C17.2992 21.6 21.6 17.2992 21.6 12C21.6 6.7008 17.2992 2.4 12 2.4ZM7.32979 12.1488C7.32979 12.4495 7.58439 12.6931 7.8986 12.6931C8.21282 12.6931 8.46742 12.4495 8.46742 12.1488C8.46742 11.8481 8.21282 11.6044 7.8986 11.6044C7.58439 11.6044 7.32979 11.8481 7.32979 12.1488ZM6.32056 12.1496C6.32056 12.9448 7.00366 13.5894 7.84625 13.5894C8.5973 13.5894 9.22019 13.0768 9.34692 12.4023L10.1562 13.5477C9.66773 14.2649 8.8168 14.7411 7.84625 14.7411C6.32951 14.7411 5.1 13.5809 5.1 12.1496C5.1 10.8729 6.07929 9.81424 7.36739 9.60001L8.1758 10.7445C8.06961 10.7224 7.95956 10.7099 7.84625 10.7099C7.00366 10.7099 6.32056 11.3545 6.32056 12.1496ZM12.0323 9.60001V13.2178L9.42176 9.60001H8.25996L11.8743 14.7411H12.9935V9.60001H12.0323ZM14.6612 14.7411H13.6998V9.60001H14.6612V14.7411ZM15.3627 9.60001V14.7411H16.3239V12.4411C16.5604 12.571 16.8341 12.6466 17.1271 12.6466C18.0142 12.6466 18.7335 11.9645 18.7335 11.1233C18.7335 10.2821 18.0142 9.60001 17.1271 9.60001H15.3627ZM17.0982 10.3616C16.6706 10.3616 16.324 10.6934 16.324 11.1026C16.324 11.5118 16.6706 11.8435 17.0982 11.8435C17.5257 11.8435 17.8724 11.5118 17.8724 11.1026C17.8724 10.6934 17.5257 10.3616 17.0982 10.3616Z" fill="black"/>
</svg>
