<svg width="24" height="24" viewBox="0 0 24 24" fill="none" xmlns="http://www.w3.org/2000/svg">
<path fill-rule="evenodd" clip-rule="evenodd" d="M12 21.6C17.302 21.6 21.6 17.3019 21.6 12C21.6 6.69807 17.302 2.4 12 2.4C6.69809 2.4 2.40002 6.69807 2.40002 12C2.40002 17.3019 6.69809 21.6 12 21.6ZM8.17802 9.6576V8.868H13.0164C13.008 8.5908 13.008 8.322 13.008 8.0532H13.848C13.848 8.3388 13.848 8.6076 13.8564 8.868H14.4864C14.3856 8.6748 14.268 8.4984 14.142 8.3304L14.898 8.0532C15.0492 8.2884 15.1836 8.5572 15.3096 8.868H15.7716V9.6576H13.8732C13.9152 11.2368 14.0328 12.5052 14.226 13.4628C14.4276 14.3532 14.5956 14.8068 14.73 14.8152C14.8476 14.8152 14.9904 14.3616 15.1668 13.4628L15.8976 13.8744C15.6204 15.168 15.234 15.8232 14.73 15.8232C14.0664 15.7896 13.596 14.8656 13.3188 13.0512C13.1676 12.0852 13.0668 10.9512 13.0332 9.6576H8.17802ZM8.93402 10.59V9.9516H12.3528V10.59H8.93402ZM8.46362 11.5392V10.884H12.798V11.5392H8.46362ZM8.67362 11.8668H12.5964V14.3448H11.7312V12.5388H9.53882V14.412H8.67362V11.8668ZM10.7736 14.9328L11.2692 14.3196C11.9412 14.6052 12.5124 14.916 12.9996 15.252L12.4284 15.9408C11.9916 15.5712 11.4456 15.2352 10.7736 14.9328ZM10.2024 13.3284V12.8412H11.076V13.3284C11.0424 14.034 10.8324 14.5968 10.446 15.0168C10.0764 15.4032 9.48842 15.7056 8.66522 15.9156L8.20322 15.1848C8.97602 15 9.48842 14.7648 9.75722 14.496C10.026 14.1936 10.1688 13.8072 10.2024 13.3284Z" fill="black"/>
</svg>
