<svg width="24" height="24" viewBox="0 0 24 24" fill="none" xmlns="http://www.w3.org/2000/svg">
<path d="M13.065 9.48127V8.60774H11.9006V9.48127H13.065Z" fill="black"/>
<path d="M11.9006 11.1484H13.065V10.196H11.9006V11.1484Z" fill="black"/>
<path d="M13.8525 11.1484V10.196H15.0463V11.1484H13.8525Z" fill="black"/>
<path d="M15.0463 8.60774H13.8525V9.48127H15.0463V8.60774Z" fill="black"/>
<path fill-rule="evenodd" clip-rule="evenodd" d="M20.9477 14.8855C21.3689 13.805 21.6 12.6295 21.6 11.4C21.6 6.09807 17.3019 1.8 12 1.8C6.69807 1.8 2.4 6.09807 2.4 11.4C2.4 16.7019 6.69807 21 12 21C13.2295 21 14.405 20.7689 15.4855 20.3477C14.9924 19.6945 14.7 18.8814 14.7 18C14.7 15.8461 16.4461 14.1 18.6 14.1C19.4814 14.1 20.2945 14.3924 20.9477 14.8855ZM15.1118 6.80254C14.9395 6.6599 14.6842 6.68395 14.5416 6.85624L13.6832 7.89303H13.2418L12.3486 6.85252C12.2029 6.68281 11.9472 6.66333 11.7775 6.80903C11.6078 6.95472 11.5883 7.21042 11.734 7.38013L12.1743 7.89303H11.7693C11.4069 7.89303 11.1131 8.18931 11.1131 8.5548V11.2019C11.1131 11.5673 11.4069 11.8636 11.7693 11.8636H13.065V12.7901H11.2318C11.0125 12.7901 10.8347 12.9678 10.8347 13.1871C10.8347 13.4064 11.0125 13.5842 11.2318 13.5842H13.065V14.9077C13.065 15.127 13.2413 15.3048 13.4587 15.3048C13.6762 15.3048 13.8525 15.127 13.8525 14.9077V13.5842H15.6877C15.9069 13.5842 16.0847 13.4064 16.0847 13.1871C16.0847 12.9678 15.9069 12.7901 15.6877 12.7901H13.8525V11.8636H15.1776C15.54 11.8636 15.8338 11.5673 15.8338 11.2019V8.5548C15.8338 8.18931 15.54 7.89303 15.1776 7.89303H14.7348L15.1655 7.37278C15.3081 7.20048 15.2841 6.94518 15.1118 6.80254ZM7.8 7.48523C7.8 7.68175 7.95798 7.84106 8.15286 7.84106H9.66587V9.21658H8.70129C8.36259 9.21658 8.07954 9.47649 8.0479 9.81654L7.90017 11.4048C7.86698 11.7615 8.1194 12.009 8.49226 12.0442C8.5023 12.045 8.50666 12.0454 8.51088 12.0457C8.51409 12.0459 8.51723 12.0461 8.52274 12.0464L8.53154 12.0467L8.54072 12.0469L8.5515 12.0471L9.60005 12.0471L9.5253 13.867C9.5153 14.1001 9.32366 14.3248 9.13192 14.3248H8.15499C7.95893 14.3248 7.8 14.4851 7.8 14.6828C7.8 14.8805 7.95893 15.0408 8.15499 15.0408H9.13192C9.76447 15.0408 10.2848 14.5383 10.3121 13.901L10.3925 12.0246L10.3929 12.0103L10.3931 12.002L10.3931 11.9969C10.3931 11.6305 10.0993 11.3342 9.73685 11.3342H8.69705L8.82133 9.93206H9.79712C10.1725 9.93206 10.4534 9.70695 10.4534 9.34893V7.79117C10.4534 7.42569 10.1596 7.12941 9.79712 7.12941H8.15286C7.95798 7.12941 7.8 7.28872 7.8 7.48523Z" fill="black"/>
<path fill-rule="evenodd" clip-rule="evenodd" d="M21.6 18C21.6 19.6569 20.2569 21 18.6 21C16.9431 21 15.6 19.6569 15.6 18C15.6 16.3431 16.9431 15 18.6 15C20.2569 15 21.6 16.3431 21.6 18ZM17.228 17.7677C17.3471 17.6526 17.5371 17.6558 17.6522 17.7749L18.2502 18.3938L19.5913 16.9941C19.7059 16.8744 19.8958 16.8703 20.0154 16.985C20.1351 17.0996 20.1391 17.2895 20.0245 17.4091L18.4678 19.034C18.4114 19.0929 18.3334 19.1263 18.2518 19.1264C18.1703 19.1266 18.0921 19.0936 18.0355 19.0349L17.2208 18.1919C17.1056 18.0728 17.1089 17.8828 17.228 17.7677Z" fill="black"/>
</svg>
