<svg width="24" height="24" viewBox="0 0 24 24" fill="none" xmlns="http://www.w3.org/2000/svg">
<path d="M8.87023 17.4V12.5152H6.29999C5.26904 12.5152 4.71801 11.301 5.39684 10.5251L11.0968 4.00986C11.5749 3.46339 12.425 3.46339 12.9031 4.00986L18.6031 10.5251C19.282 11.301 18.7309 12.5152 17.7 12.5152H15.0509V17.4C15.0509 18.0627 14.5136 18.6 13.8509 18.6H10.0702C9.40748 18.6 8.87023 18.0627 8.87023 17.4Z" fill="black"/>
<path d="M6.6 19.2C6.26863 19.2 6 19.4686 6 19.8C6 20.1314 6.26863 20.4 6.6 20.4H17.4C17.7314 20.4 18 20.1314 18 19.8C18 19.4686 17.7314 19.2 17.4 19.2H6.6Z" fill="black"/>
</svg>
