<svg stroke-width= "1.5px" width="24" height="24" viewBox="0 0 24 24" fill="none" xmlns="http://www.w3.org/2000/svg">
<path fill-rule="evenodd" clip-rule="evenodd" d="M2.4 9.36C2.4 7.34381 2.4 6.33572 2.79238 5.56563C3.13752 4.88825 3.68825 4.33752 4.36564 3.99238C5.13572 3.6 6.14381 3.6 8.16 3.6H12.84C14.8562 3.6 15.8643 3.6 16.6344 3.99238C17.3117 4.33752 17.8625 4.88825 18.2076 5.56563C18.4802 6.10053 18.5634 6.75025 18.5888 7.77288L21.5181 6.0621C21.5242 6.05857 21.5306 6.05693 21.5371 6.05529C21.5426 6.05387 21.5482 6.05245 21.5535 6.0498C21.5733 6.04014 21.594 6.03436 21.6152 6.02843L21.6267 6.0252L21.6282 6.02477C21.6598 6.01593 21.6899 6.00747 21.7221 6.0057C21.7268 6.00542 21.731 6.00413 21.7353 6.00285C21.74 6.00142 21.7448 6 21.75 6C21.7621 6 21.7732 6.00318 21.7843 6.00637C21.7921 6.00862 21.8 6.01088 21.8082 6.012L21.8146 6.01289C21.8402 6.01644 21.8651 6.01989 21.8898 6.0282C21.9234 6.0396 21.9531 6.0558 21.9828 6.0741L21.992 6.07985C22.0073 6.08938 22.0222 6.09865 22.0365 6.1104C22.0668 6.1359 22.0905 6.1656 22.113 6.1983C22.1167 6.20365 22.1213 6.20811 22.1259 6.21258C22.1316 6.21812 22.1373 6.22369 22.1415 6.231C22.1432 6.23403 22.1439 6.23721 22.1447 6.24043C22.1454 6.24358 22.1462 6.24678 22.1478 6.2499C22.1621 6.27812 22.1698 6.3087 22.1779 6.34017L22.1781 6.3411C22.1868 6.3726 22.1952 6.4032 22.197 6.4353C22.1971 6.43771 22.1978 6.43998 22.1985 6.44225C22.1992 6.44479 22.2 6.44731 22.2 6.45V16.3503C22.2 16.353 22.1992 16.3555 22.1985 16.358C22.1978 16.3603 22.1971 16.3626 22.197 16.365C22.1952 16.3966 22.1871 16.4265 22.1785 16.4577L22.1781 16.4592L22.1779 16.4601C22.1698 16.4916 22.1621 16.5222 22.1478 16.5507C22.1462 16.5537 22.1454 16.5568 22.1447 16.56C22.1439 16.5631 22.1432 16.5663 22.1415 16.5693C22.1373 16.5767 22.1315 16.5822 22.1258 16.5878C22.1213 16.5921 22.1168 16.5965 22.113 16.6017C22.0905 16.6344 22.0668 16.6644 22.0365 16.6899C22.0214 16.7024 22.0055 16.7121 21.9891 16.722L21.9828 16.7259C21.9531 16.7445 21.9234 16.7607 21.8895 16.7721C21.865 16.7805 21.8402 16.7839 21.8144 16.7875L21.8085 16.7883C21.8002 16.7894 21.7922 16.7916 21.7843 16.7938C21.7732 16.7969 21.7621 16.8 21.75 16.8C21.7445 16.8 21.7395 16.7985 21.7345 16.7971C21.732 16.7963 21.7294 16.7956 21.7268 16.795C21.7253 16.7947 21.7237 16.7944 21.7221 16.7943C21.6907 16.7929 21.6613 16.7848 21.6309 16.7765L21.627 16.7754L21.614 16.7717C21.5931 16.7657 21.5729 16.7599 21.5535 16.7502C21.5483 16.7478 21.5429 16.7464 21.5375 16.7451C21.5309 16.7434 21.5243 16.7418 21.5181 16.7382L18.5888 15.0274C18.5634 16.0499 18.4801 16.6995 18.2076 17.2344C17.8625 17.9117 17.3117 18.4625 16.6344 18.8076C15.8643 19.2 14.8562 19.2 12.84 19.2H8.16C6.14381 19.2 5.13572 19.2 4.36564 18.8076C3.68825 18.4625 3.13752 17.9117 2.79238 17.2344C2.4 16.4643 2.4 15.4562 2.4 13.44V9.36ZM13.2694 12.1775C13.8662 11.8305 13.8662 10.9685 13.2694 10.6215L9.7524 8.57644C9.15241 8.22756 8.4 8.66042 8.4 9.35447V13.4445C8.4 14.1386 9.15241 14.5714 9.75241 14.2225L13.2694 12.1775Z" fill="black"/>
</svg>
