<svg width="24" height="24" viewBox="0 0 24 24" fill="none" xmlns="http://www.w3.org/2000/svg">
<path d="M10.4 3.6C9.02356 3.6 7.79998 4.86529 7.79998 6.56645V10.1204C7.79998 10.4518 7.53135 10.7204 7.19998 10.7204H6.58179C5.92909 10.7204 5.39998 10.1913 5.39998 9.53862V7.45289C5.39998 6.80019 5.92909 6.27107 6.58179 6.27107H6.60954C6.74639 4.16123 8.33734 2.4 10.4 2.4H13.6C15.6609 2.4 17.2509 4.15825 17.3901 6.26572H17.4182C18.0709 6.26572 18.6 6.79484 18.6 7.44754V9.53328C18.6 10.186 18.0709 10.7151 17.4182 10.7151H16.8C16.4686 10.7151 16.2 10.4465 16.2 10.1151V6.56645C16.2 4.86529 14.9764 3.6 13.6 3.6H10.4Z" fill="black"/>
<path d="M14.1213 5.25846C14.9483 5.32049 15.6 6.0111 15.6 6.85393V12H16.4342C18.0652 12 19.4924 13.0965 19.9126 14.6724L20.9963 18.7362C21.301 19.8789 20.4397 21 19.2571 21H4.74288C3.56022 21 2.69893 19.8789 3.00365 18.7362L4.08733 14.6724C4.50758 13.0965 5.9348 12 7.56578 12H8.39998V6.85392C8.39998 6.00402 9.06265 5.30888 9.8995 5.25703C10.4606 4.76809 11.1997 4.47107 12.0096 4.47107C12.8203 4.47107 13.5601 4.76867 14.1213 5.25846Z" fill="black"/>
</svg>
