<svg width="24" height="24" viewBox="0 0 24 24" fill="none" xmlns="http://www.w3.org/2000/svg">
<path fill-rule="evenodd" clip-rule="evenodd" d="M12 4.2C8.84454 4.2 6.25802 6.63582 6.01815 9.72973C3.60424 10.2687 1.79999 12.4236 1.79999 15C1.79999 17.9823 4.21765 20.4 7.19999 20.4H16.8C19.7823 20.4 22.2 17.9823 22.2 15C22.2 12.4236 20.3957 10.2687 17.9818 9.72973C17.742 6.63582 15.1554 4.2 12 4.2ZM12.0043 9.60001C12.1634 9.59943 12.3163 9.6621 12.4292 9.77422L15.4507 12.7742C15.6859 13.0077 15.6872 13.3876 15.4537 13.6227C15.2203 13.8579 14.8404 13.8593 14.6052 13.6258L12.6 11.6348V17.4C12.6 17.7314 12.3314 18 12 18C11.6686 18 11.4 17.7314 11.4 17.4V11.6625L9.45375 13.6227C9.22028 13.8579 8.84039 13.8593 8.60523 13.6258C8.37007 13.3923 8.36871 13.0124 8.60218 12.7773L11.5807 9.77727C11.6928 9.66434 11.8452 9.60057 12.0043 9.60001Z" fill="black"/>
</svg>
