<svg width="24" height="24" viewBox="0 0 24 24" fill="none" xmlns="http://www.w3.org/2000/svg">
<path d="M12.84 11.4216H11.3868C11.1516 11.7072 10.8744 11.9676 10.5636 12.2112H13.5708C13.2852 11.9592 13.0416 11.6988 12.84 11.4216Z" fill="black"/>
<path fill-rule="evenodd" clip-rule="evenodd" d="M12 21.6C17.302 21.6 21.6 17.3019 21.6 12C21.6 6.69807 17.302 2.4 12 2.4C6.69809 2.4 2.40002 6.69807 2.40002 12C2.40002 17.3019 6.69809 21.6 12 21.6ZM10.068 12.9672V12.564C9.59762 12.8664 9.06842 13.1436 8.46362 13.3788L8.06882 12.5976C9.00962 12.3036 9.75722 11.9088 10.3032 11.4216H8.33762V10.632H10.9752C11.0844 10.4556 11.1768 10.2708 11.2524 10.086C10.9584 10.0937 10.6607 10.1033 10.3587 10.1129C10.0051 10.1242 9.64541 10.1357 9.27842 10.1448L9.13562 9.4308C9.59762 9.3804 10.2696 8.9268 11.1432 8.0532L11.9832 8.3388C11.538 8.742 11.0844 9.0948 10.6308 9.3972C11.538 9.3636 12.42 9.33 13.2852 9.288C13.1004 9.1116 12.9072 8.9352 12.7056 8.7588L13.3692 8.3388C14.142 8.9772 14.7384 9.5232 15.1584 9.9936L14.436 10.4976C14.2932 10.3212 14.1336 10.1448 13.9572 9.96C13.631 9.97891 13.2995 9.99516 12.9612 10.0117C12.6983 10.0246 12.4314 10.0377 12.1596 10.0524C12.0924 10.254 12.0084 10.4472 11.9076 10.632H15.6624V11.4216H13.7808C14.268 11.9088 14.982 12.3036 15.9228 12.5976L15.5532 13.3704C14.9232 13.1184 14.3856 12.8244 13.9404 12.5052V12.9672H10.068ZM9.62282 14.244V13.4796H14.3688V14.244H9.62282ZM8.69042 15.5964V14.79H15.3012V15.5964H8.69042Z" fill="black"/>
</svg>
