<svg stroke-width= "1.5px" width="24" height="24" viewBox="0 0 24 24" fill="none" xmlns="http://www.w3.org/2000/svg">
<path fill-rule="evenodd" clip-rule="evenodd" d="M11.6342 21C16.5374 21 20.5205 17.0422 20.5912 12.1329C21.0532 11.8718 21.5992 11.5186 22.0586 11.1266C22.3621 10.8677 22.6457 10.5769 22.8389 10.2697C23.03 9.966 23.1647 9.59333 23.0677 9.20321C22.9748 8.8299 22.7138 8.56155 22.4247 8.37286C22.135 8.18385 21.7813 8.05033 21.4268 7.95464C20.7644 7.77583 20.0254 7.7099 19.5066 7.70184C17.9883 4.90082 15.0322 3 11.6342 3C6.6869 3 2.67629 7.02944 2.67629 12C2.67629 12.4772 2.71325 12.9457 2.78445 13.4028C2.41222 13.7177 2.00394 14.1049 1.66567 14.5101C1.40978 14.8165 1.17886 15.151 1.03971 15.4865C0.902134 15.8182 0.831641 16.2083 0.992575 16.5765C1.14657 16.9288 1.44868 17.1493 1.76528 17.2865C2.08243 17.4239 2.45343 17.4958 2.81891 17.5303C3.40886 17.586 4.04095 17.549 4.53274 17.4865C6.17058 19.6233 8.74238 21 11.6342 21ZM20.5595 11.2256C20.4786 10.2726 20.25 9.36198 19.8967 8.51697C20.3088 8.54512 20.789 8.60879 21.2207 8.7253C21.533 8.80961 21.7989 8.9161 21.992 9.04208C22.1856 9.16839 22.2705 9.29004 22.2971 9.39674C22.3194 9.48662 22.3024 9.62894 22.1675 9.84334C22.0348 10.0543 21.8182 10.2848 21.5444 10.5183C21.2426 10.7758 20.8929 11.0189 20.5595 11.2256ZM2.97145 14.2998C3.19994 15.1709 4.01604 16.7369 4.01604 16.7369C4.01604 16.7369 3.26196 16.7706 2.89323 16.7358C2.57122 16.7054 2.29129 16.6453 2.07989 16.5537C1.86795 16.4619 1.76387 16.3563 1.71986 16.2556C1.68278 16.1708 1.6758 16.0276 1.77291 15.7935C1.86845 15.5632 2.04341 15.2994 2.27424 15.0229C2.48405 14.7716 2.72758 14.5245 2.97145 14.2998ZM16.6866 8.86202L16.4716 8.88002L16.4367 8.88324C14.8888 9.02621 13.2812 9.17469 10.7147 10.062C8.0631 10.986 7.25092 11.466 5.94305 12.3C5.66237 12.474 5.57876 12.846 5.75195 13.128C5.86542 13.308 6.05652 13.41 6.25957 13.41C6.36706 13.41 6.48053 13.38 6.57608 13.32C7.35841 12.822 7.93769 12.456 9.02459 11.994C9.00967 12.024 8.99176 12.054 8.97386 12.084L8.97383 12.084L8.97381 12.084C8.9559 12.114 8.93799 12.144 8.92307 12.174C8.33184 13.584 8.49309 15.102 9.34708 16.236C10.0518 17.166 11.1685 17.688 12.3331 17.688C12.7451 17.688 13.1632 17.622 13.5693 17.49C15.0861 17.01 16.1074 15.402 15.8386 13.902C15.7132 13.194 15.325 12.576 14.7756 12.204C14.3098 11.892 13.6887 11.79 13.0676 11.928C12.4525 12.066 11.921 12.408 11.6463 12.852C11.4014 13.248 11.2282 13.878 11.4612 14.46C11.5089 14.58 11.5866 14.724 11.6523 14.814C11.8434 15.078 12.2077 15.138 12.4704 14.946C12.7392 14.76 12.7989 14.382 12.6197 14.112C12.6078 14.094 12.5779 14.046 12.566 14.01C12.5063 13.86 12.566 13.632 12.6615 13.482C12.7451 13.35 12.984 13.176 13.3184 13.098C13.623 13.032 13.9156 13.068 14.1127 13.2C14.3874 13.386 14.5964 13.728 14.6621 14.112C14.8234 15.018 14.1605 16.044 13.205 16.344C12.0942 16.704 10.9476 16.374 10.2906 15.504C9.69345 14.718 9.59193 13.644 10.0159 12.636C10.3205 11.904 11.3477 11.004 12.9482 10.638C14.3934 10.272 15.4982 10.17 16.5672 10.074L16.7882 10.056C17.1166 10.026 17.3615 9.73202 17.3316 9.40202C17.3077 9.07802 17.027 8.83802 16.6866 8.86202ZM10.2608 8.33399C9.15602 8.68199 8.21245 9.12599 7.79441 9.50999C7.54956 9.73199 7.16735 9.71399 6.94639 9.46799C6.72543 9.22199 6.74334 8.84399 6.98819 8.62199C7.61525 8.05199 8.77979 7.54199 9.90252 7.18799C11.0432 6.83399 12.2913 6.58199 13.1453 6.59999C13.4738 6.60599 13.7365 6.88199 13.7305 7.21199C13.7246 7.54199 13.4499 7.80599 13.1214 7.79999C12.4525 7.78799 11.3477 7.99199 10.2608 8.33399Z" fill="#101010"/>
</svg>
