<svg stroke-width= "1.5px" width="24" height="24" viewBox="0 0 24 24" fill="none" xmlns="http://www.w3.org/2000/svg">
<path fill-rule="evenodd" clip-rule="evenodd" d="M4.5 5.7C4.5 5.03726 5.03726 4.5 5.7 4.5H18.3C18.9627 4.5 19.5 5.03726 19.5 5.7V20.9357C19.5 21.4111 18.9735 21.6976 18.5742 21.4395L15.9189 19.7228C15.7258 19.598 15.4785 19.5945 15.282 19.7136L12.312 21.5149C12.1203 21.6311 11.8798 21.6308 11.6885 21.5141L8.73808 19.7145C8.54183 19.5948 8.29444 19.5977 8.1011 19.7221L5.42455 21.4434C5.02525 21.7003 4.5 21.4136 4.5 20.9388V5.7ZM7.8 9.89971C7.8 9.56834 8.06863 9.29971 8.4 9.29971H15.6C15.9314 9.29971 16.2 9.56834 16.2 9.89971C16.2 10.2311 15.9314 10.4997 15.6 10.4997H8.4C8.06863 10.4997 7.8 10.2311 7.8 9.89971ZM7.8 13.1997C7.8 12.8683 8.06863 12.5997 8.4 12.5997H15.6C15.9314 12.5997 16.2 12.8683 16.2 13.1997C16.2 13.5311 15.9314 13.7997 15.6 13.7997H8.4C8.06863 13.7997 7.8 13.5311 7.8 13.1997Z" fill="black"/>
<path fill-rule="evenodd" clip-rule="evenodd" d="M5.40002 3.59999C4.40591 3.59999 3.60002 4.40588 3.60002 5.39999V7.19999C3.60002 7.53136 3.3314 7.79999 3.00002 7.79999C2.66865 7.79999 2.40002 7.53136 2.40002 7.19999V5.39999C2.40002 3.74314 3.74317 2.39999 5.40002 2.39999H18.6C20.2569 2.39999 21.6 3.74314 21.6 5.39999V7.19999C21.6 7.53136 21.3314 7.79999 21 7.79999C20.6687 7.79999 20.4 7.53136 20.4 7.19999V5.39999C20.4 4.40588 19.5941 3.59999 18.6 3.59999H5.40002Z" fill="black"/>
</svg>
