<svg stroke-width= "1.5px" width="24" height="24" viewBox="0 0 24 24" fill="none" xmlns="http://www.w3.org/2000/svg">
<path fill-rule="evenodd" clip-rule="evenodd" d="M21.8792 15.4229L20.0792 14.3836C19.7079 14.1693 19.2505 14.1693 18.8792 14.3836L17.0792 15.4229C16.7079 15.6372 16.4792 16.0334 16.4792 16.4621V18.5406C16.4792 18.9693 16.7079 19.3654 17.0792 19.5798L18.8792 20.619C19.2505 20.8334 19.7079 20.8334 20.0792 20.619L21.8792 19.5798C22.2505 19.3654 22.4792 18.9693 22.4792 18.5406V16.4621C22.4792 16.0334 22.2505 15.6372 21.8792 15.4229ZM18.4399 17.5013C18.4399 16.9274 18.9052 16.4621 19.4792 16.4621C20.0531 16.4621 20.5184 16.9274 20.5184 17.5013C20.5184 18.0753 20.0531 18.5406 19.4792 18.5406C18.9052 18.5406 18.4399 18.0753 18.4399 17.5013Z" fill="black"/>
<path fill-rule="evenodd" clip-rule="evenodd" d="M21.2999 6.73039C21.2999 5.0015 19.8983 3.59996 18.1694 3.59996H5.23041C3.50152 3.59996 2.09998 5.0015 2.09998 6.73039V17.2692C2.09998 18.998 3.50152 20.3996 5.23041 20.3996L15.7098 20.3988L15.704 20.3998C15.8697 20.3998 16.004 20.2655 16.004 20.0998C16.004 20.0205 15.9732 19.9485 15.9223 19.8957C15.7071 19.6747 15.5821 19.3755 15.5821 19.0585V15.9441L15.5861 15.8459C15.6181 15.4556 15.8393 15.1028 16.1821 14.9049L18.8792 13.3477L18.9737 13.2986C19.3261 13.1349 19.7388 13.1512 20.0792 13.3477L20.6772 13.6932L20.7191 13.7103C20.7624 13.7243 20.8087 13.7318 20.8567 13.7318C21.0806 13.7318 21.2662 13.5678 21.2998 13.3533L21.2999 6.73039ZM8.93937 7.43935C9.13853 7.24018 9.46145 7.24018 9.66061 7.43935L11.7 9.47873L13.7394 7.43935C13.9385 7.24018 14.2614 7.24018 14.4606 7.43935C14.6598 7.63852 14.6598 7.96143 14.4606 8.1606L12.3312 10.29H14.7C14.9817 10.29 15.21 10.5183 15.21 10.8C15.21 11.0816 14.9817 11.31 14.7 11.31H12.21V12.69H14.7C14.9817 12.69 15.21 12.9183 15.21 13.2C15.21 13.4816 14.9817 13.71 14.7 13.71H12.21V15.6C12.21 15.8816 11.9817 16.11 11.7 16.11C11.4183 16.11 11.19 15.8816 11.19 15.6V13.71H8.69999C8.41833 13.71 8.18999 13.4816 8.18999 13.2C8.18999 12.9183 8.41833 12.69 8.69999 12.69H11.19V11.31H8.69999C8.41833 11.31 8.18999 11.0816 8.18999 10.8C8.18999 10.5183 8.41833 10.29 8.69999 10.29H11.0687L8.93937 8.1606C8.7402 7.96143 8.7402 7.63852 8.93937 7.43935Z" fill="black"/>
</svg>
