<svg stroke-width= "1.5px" width="24" height="24" viewBox="0 0 24 24" fill="none" xmlns="http://www.w3.org/2000/svg">
<path fill-rule="evenodd" clip-rule="evenodd" d="M3.9559 6.36017C5.57618 5.2407 8.15533 4.84285 11.9772 4.84285C15.8117 4.84285 18.4032 5.24073 20.0312 6.35976C21.6965 7.50448 22.2888 9.35038 22.2822 12.0224C22.2821 14.6811 21.6895 16.516 20.0256 17.6527C18.3994 18.7636 15.8114 19.1571 11.9772 19.1571C8.16173 19.1571 5.58309 18.7636 3.96152 17.6524C2.30251 16.5156 1.71 14.6807 1.71 12.0217C1.71 9.35065 2.29887 7.50502 3.9559 6.36017ZM12.5923 9.11133V14.9091H11.5102V10.9957H11.478L9.90107 14.8528H9.13675L7.55984 10.9957H7.52766V14.9091H6.44554V9.11133H7.8535L9.50282 13.2216H9.535L11.1843 9.11133H12.5923ZM16.6028 14.9091H15.1386L13.1875 9.11133H14.5472L15.8747 13.6595H15.9029L17.2304 9.11133H18.5539L16.6028 14.9091Z" fill="black"/>
</svg>
