<svg width="24" height="24" viewBox="0 0 24 24" fill="none" xmlns="http://www.w3.org/2000/svg">
<path fill-rule="evenodd" clip-rule="evenodd" d="M12 21.4987C17.302 21.4987 21.6 17.2007 21.6 11.8987C21.6 6.59681 17.302 2.29874 12 2.29874C6.69809 2.29874 2.40002 6.59681 2.40002 11.8987C2.40002 17.2007 6.69809 21.4987 12 21.4987ZM12 6.19519C12.3314 6.19519 12.6 6.46382 12.6 6.79519V11.2987H17.1C17.4314 11.2987 17.7 11.5674 17.7 11.8987C17.7 12.2301 17.4314 12.4987 17.1 12.4987H12.6V16.9952C12.6 17.3266 12.3314 17.5952 12 17.5952C11.6687 17.5952 11.4 17.3266 11.4 16.9952V12.4987H6.90002C6.56865 12.4987 6.30002 12.2301 6.30002 11.8987C6.30002 11.5674 6.56865 11.2987 6.90002 11.2987H11.4V6.79519C11.4 6.46382 11.6687 6.19519 12 6.19519Z" fill="black"/>
</svg>
