<svg stroke-width= "1.5px" width="24" height="24" viewBox="0 0 24 24" fill="none" xmlns="http://www.w3.org/2000/svg">
<path fill-rule="evenodd" clip-rule="evenodd" d="M21.6 12C21.6 17.3019 17.302 21.6 12 21.6C6.69809 21.6 2.40002 17.3019 2.40002 12C2.40002 6.69807 6.69809 2.4 12 2.4C17.302 2.4 21.6 6.69807 21.6 12ZM11.1678 15.0336L16.3278 10.011C16.5648 9.77943 16.5702 9.39963 16.3392 9.16263C16.1082 8.92503 15.7284 8.92023 15.4908 9.15123L10.7778 13.7388L8.68379 11.415C8.46239 11.169 8.08259 11.1492 7.83659 11.3712C7.58999 11.5926 7.57019 11.9724 7.79219 12.2184L10.3038 15.0054C10.413 15.1266 10.5666 15.198 10.7298 15.2034C10.893 15.2088 11.0508 15.1476 11.1678 15.0336Z" fill="black"/>
</svg>
