<svg width="24" height="24" viewBox="0 0 24 24" fill="none" xmlns="http://www.w3.org/2000/svg">
<path fill-rule="evenodd" clip-rule="evenodd" d="M14.5835 21.6C14.4312 21.6 14.3095 21.5675 14.1994 21.4815C13.9769 21.3073 13.9652 21.0215 13.9488 20.6614C13.8668 18.8307 13.012 17.46 11.3374 16.4702C11.3069 16.4517 11.2765 16.4331 11.2484 16.4145C11.3421 17.381 11.2695 18.222 11.0212 19.0235C10.7425 19.9296 10.1992 20.6916 9.40755 21.291C9.13321 21.5117 8.53205 21.5012 8.22336 21.3827C6.53881 20.7361 5.28435 19.6874 4.44943 18.761C3.93055 18.1852 2.9075 16.8367 3.00673 14.5675C3.09573 12.5323 4.03957 10.6505 5.81016 8.98007C6.66216 8.17627 7.9625 6.97045 8.64404 6.12478C9.43799 5.1374 9.87596 4.30335 10.068 3.42051L10.1593 3L10.5434 3.19515C12.574 4.22668 14.0825 5.35856 15.2486 6.57085C16.9412 8.33054 17.4548 10.6087 17.4548 10.6087C17.4548 10.6087 17.7677 9.97471 17.8605 9.16122C17.9355 8.5045 17.8126 7.70379 17.7512 7.36575C17.7411 7.31044 17.8039 7.27178 17.8467 7.3083C18.4441 7.81874 20.9657 10.1413 21.5113 13.4105C21.8223 15.2743 21.3052 17.1324 20.1271 18.6332C18.9608 20.1178 17.2159 21.14 15.2111 21.5117C14.9488 21.5628 14.7474 21.6 14.5835 21.6Z" fill="black"/>
</svg>
