<svg stroke-width= "1.5px" width="24" height="24" viewBox="0 0 24 24" fill="none" xmlns="http://www.w3.org/2000/svg">
<path fill-rule="evenodd" clip-rule="evenodd" d="M12 2.39999C6.69807 2.39999 2.4 6.69806 2.4 12C2.4 17.3019 6.69807 21.6 12 21.6C17.3019 21.6 21.6 17.3019 21.6 12C21.6 6.69806 17.3019 2.39999 12 2.39999ZM15.7091 14.4259C15.7977 14.4237 15.8863 14.4412 15.9714 14.4975C15.6491 14.2855 15.4575 13.9314 15.4608 13.5538V11.3381C15.4608 9.71472 14.2969 8.35952 12.7419 8.02605V7.94749C12.7419 7.53345 12.4101 7.19999 12.0006 7.19999C11.5915 7.19999 11.2599 7.53491 11.2599 7.94731V8.02642C9.70443 8.35951 8.54103 9.71325 8.54103 11.3381V13.5538C8.54189 13.9323 8.35199 14.2856 8.03629 14.4937C8.11251 14.4447 8.20228 14.4209 8.29287 14.4259C8.16145 14.4265 8.03568 14.4794 7.94324 14.5729C7.85081 14.6664 7.79928 14.7928 7.80001 14.9243C7.79928 15.0559 7.85094 15.1824 7.94359 15.2758C8.03624 15.3693 8.16225 15.4219 8.29378 15.4222H15.7062C15.8378 15.4219 15.9639 15.3692 16.0566 15.2756C16.1493 15.1821 16.2009 15.0555 16.2 14.9238C16.2013 14.6507 15.9821 14.428 15.7091 14.4259ZM12 17.0666C12.706 17.0666 13.2899 16.9064 13.2899 16.2H10.7333C10.7333 16.9067 11.2926 17.0666 12 17.0666Z" fill="#FFBC20"/>
</svg>
