<svg stroke-width= "1.5px" width="24" height="24" viewBox="0 0 24 24" fill="none" xmlns="http://www.w3.org/2000/svg">
<path fill-rule="evenodd" clip-rule="evenodd" d="M12 21.6C17.302 21.6 21.6 17.3019 21.6 12C21.6 6.69806 17.302 2.39999 12 2.39999C6.69809 2.39999 2.40002 6.69806 2.40002 12C2.40002 17.3019 6.69809 21.6 12 21.6ZM12.6 8.39999V14.1652L14.6053 12.1742C14.8404 11.9407 15.2203 11.9421 15.4538 12.1772C15.6873 12.4124 15.6859 12.7923 15.4508 13.0258L12.4293 16.0258C12.3163 16.1379 12.1635 16.2006 12.0044 16.2C11.8452 16.1994 11.6928 16.1357 11.5807 16.0227L8.60222 13.0227C8.36875 12.7876 8.37011 12.4077 8.60527 12.1742C8.84042 11.9407 9.22032 11.9421 9.45379 12.1773L11.4 14.1375V8.39999C11.4 8.06862 11.6687 7.79999 12 7.79999C12.3314 7.79999 12.6 8.06862 12.6 8.39999Z" fill="black"/>
</svg>
