<svg width="24" height="24" viewBox="0 0 24 24" fill="none" xmlns="http://www.w3.org/2000/svg">
<path fill-rule="evenodd" clip-rule="evenodd" d="M21.5688 9.45424C21.4939 9.23246 21.3013 9.08745 21.086 9.06257C21.0865 9.05938 21.0865 9.05619 21.0867 9.05322L15.0977 8.51228L12.5206 2.77635C12.5174 2.77763 12.514 2.77848 12.5106 2.77975C12.4276 2.5584 12.2181 2.39999 11.9707 2.39999C11.7398 2.39999 11.5421 2.5382 11.4491 2.73659C11.4465 2.73531 11.4435 2.73425 11.4407 2.73297L8.84381 8.39491L2.95001 9.14146C2.95022 9.14486 2.95001 9.14869 2.95022 9.15209C2.71684 9.16421 2.50414 9.31794 2.42798 9.55673C2.35694 9.77978 2.42585 9.89566 2.58307 10.0466C2.58115 10.0488 2.57923 10.0513 2.5771 10.0534L6.99057 14.1544L5.9512 20.2799C5.95462 20.2808 5.95803 20.2818 5.96144 20.2827C5.90982 20.5138 5.99793 20.7634 6.20337 20.9025C6.39515 21.0322 6.63452 21.0284 6.81948 20.9155C6.82097 20.918 6.82289 20.9206 6.8246 20.9233L11.852 17.7983H11.9502L17.1658 20.7904C17.1677 20.7877 17.1701 20.7847 17.172 20.7817C17.3663 20.9131 17.6274 20.9184 17.8286 20.773C18.0166 20.6373 18.0981 20.4092 18.0601 20.1934C18.0629 20.1927 18.0661 20.1919 18.069 20.1912L17.2464 15.75C17.399 15.6809 17.5381 15.6169 17.6456 15.565C18.1753 15.3097 18.6265 14.9501 18.5723 14.9771C18.5235 15.0016 18.149 15.0511 17.7499 15.0983C17.1581 15.2744 15.8043 15.591 13.4764 15.6826C10.6514 15.7934 7.56978 15.4475 7.56978 15.4475L13.7078 10.8631C13.7078 10.8631 12.8353 10.7506 11.5075 10.6282C9.26451 10.4211 5.94822 10.2754 5.94822 10.2754C5.94822 10.2754 8.80904 9.80529 11.6234 9.80529C14.3073 9.80529 16.951 10.1578 16.951 10.1578C16.951 10.1578 16.5262 10.5637 15.7928 11.0983C14.6896 11.902 13.0075 13.0328 11.9707 13.8019C11.3447 14.2661 10.9285 14.6246 10.9285 14.6246C10.9285 14.6246 12.9514 14.8831 14.8663 14.9771C15.6946 15.0179 16.5053 15.0179 17.1088 15.0077L16.951 14.1544L21.3964 10.1042C21.3941 10.1015 21.3922 10.0985 21.3898 10.0957C21.5694 9.94435 21.649 9.69175 21.5688 9.45424Z" fill="#F7CB41"/>
</svg>
