<svg width="24" height="24" viewBox="0 0 24 24" fill="none" xmlns="http://www.w3.org/2000/svg">
<path fill-rule="evenodd" clip-rule="evenodd" d="M12 21.6C17.302 21.6 21.6 17.3019 21.6 12C21.6 6.69807 17.302 2.4 12 2.4C6.69809 2.4 2.40002 6.69807 2.40002 12C2.40002 17.3019 6.69809 21.6 12 21.6ZM13.0416 9.25436L15.6372 8.82596L15.7632 9.61556L13.0416 10.0608V10.8924C13.0416 11.0772 13.1424 11.1696 13.3608 11.1696H14.646C14.7636 11.1696 14.856 11.1276 14.9148 11.052C14.9736 10.968 15.0156 10.6992 15.0408 10.254L15.8556 10.506C15.7884 11.22 15.6708 11.64 15.5112 11.7744C15.36 11.9004 15.1332 11.9676 14.814 11.9676H13.1172C12.4956 11.9676 12.1848 11.6652 12.1848 11.0772V10.2036L10.9332 10.4052L10.8072 9.62396L12.1848 9.39716V8.12036H13.0416V9.25436ZM8.51404 13.4796V12.6732H11.5716V12.0432H12.462V12.6732H15.5112V13.4796H13.1592C13.7388 14.0256 14.6376 14.5212 15.864 14.958L15.2508 15.7224C13.9572 15.0672 13.0332 14.3364 12.462 13.5468V15.8652H11.5716V13.5552C10.9668 14.4288 10.0092 15.1596 8.69884 15.7476L8.19484 14.9328C9.37924 14.5464 10.2696 14.0592 10.866 13.4796H8.51404ZM8.63164 8.77556L9.06004 8.12876C9.63124 8.31356 10.1604 8.54036 10.6392 8.80916L10.2024 9.48956C9.68164 9.18716 9.16084 8.94356 8.63164 8.77556ZM8.24524 10.044L8.69884 9.36356C9.19444 9.53156 9.64804 9.74996 10.0596 10.002L9.61444 10.6824C9.16924 10.4136 8.71564 10.1952 8.24524 10.044ZM8.41324 11.8416C9.15244 11.4384 9.78244 10.968 10.2864 10.422L10.8576 10.9344C10.3368 11.5392 9.70684 12.0768 8.95084 12.5304L8.41324 11.8416Z" fill="black"/>
</svg>
