<svg width="24" height="24" viewBox="0 0 24 24" fill="none" xmlns="http://www.w3.org/2000/svg">
<path d="M15.271 4.64232C14.2226 3.66211 12.8143 3.0621 11.2658 3.0621C8.02623 3.0621 5.40002 5.68831 5.40002 8.9279V9.00003H9.60002L9.67 9.00407C9.9684 9.03873 10.2 9.29233 10.2 9.60003C10.2 9.93141 9.9314 10.2 9.60002 10.2H5.40002V12H9.60002L9.67 12.0041C9.9684 12.0387 10.2 12.2923 10.2 12.6C10.2 12.9314 9.9314 13.2 9.60002 13.2L5.45093 13.2001C5.80265 15.8604 7.93721 17.9583 10.6148 18.254L10.614 20.2755L8.01736 20.2759C7.65171 20.2759 7.35529 20.5723 7.35529 20.938C7.35529 21.3036 7.65171 21.6 8.01736 21.6H14.5143C14.8799 21.6 15.1764 21.3036 15.1764 20.938C15.1764 20.5723 14.8799 20.2759 14.5143 20.2759L11.9172 20.2755L11.9173 18.2717L11.9162 18.254C14.8498 17.9304 17.1316 15.4436 17.1316 12.4239L17.1312 11.2431L17.0555 11.3161C15.878 12.3833 14.0574 12.3489 12.9213 11.2128C11.7498 10.0413 11.7498 8.14177 12.9213 6.9702L15.0427 4.84888L15.1549 4.74221L15.271 4.64232Z" fill="black"/>
<path d="M18.6576 5.47653C19.3929 6.21179 19.4182 7.38814 18.7337 8.15382L18.6576 8.23425L18.4443 8.44755C18.2686 8.62329 17.9837 8.62329 17.8079 8.44755C17.6468 8.28646 17.6334 8.03362 17.7677 7.85724L17.8079 7.81115L18.0212 7.59785C18.4313 7.1878 18.4313 6.52298 18.0212 6.11293C17.6317 5.72338 17.0122 5.7039 16.5997 6.0545L16.5363 6.11293L16.326 6.32326C16.1502 6.499 15.8653 6.499 15.6896 6.32326C15.5285 6.16217 15.5151 5.90933 15.6493 5.73295L15.6896 5.68686L15.8999 5.47653C16.6614 4.71501 17.8961 4.71501 18.6576 5.47653Z" fill="black"/>
<path d="M17.8004 9.0915L15.0426 6.33379C14.8669 6.15805 14.582 6.15805 14.4063 6.33379C14.2305 6.50952 14.2305 6.79445 14.4063 6.97018L17.164 9.7279C17.3397 9.90364 17.6246 9.90364 17.8004 9.7279C17.9761 9.55216 17.9761 9.26724 17.8004 9.0915Z" fill="black"/>
<path d="M14.4557 8.18774C14.5899 8.01136 14.5765 7.75852 14.4154 7.59742C14.2397 7.42169 13.9547 7.42169 13.779 7.59742L13.5744 7.80204L13.4983 7.88246C12.8138 8.64815 12.8391 9.82449 13.5744 10.5598C14.3359 11.3213 15.5706 11.3213 16.3321 10.5598L16.544 10.3479L16.5843 10.3018C16.7185 10.1254 16.7051 9.87258 16.544 9.71149C16.3683 9.53575 16.0833 9.53575 15.9076 9.71149L15.6957 9.92336L15.6324 9.98179C15.2198 10.3324 14.6003 10.3129 14.2108 9.92336C13.8007 9.51331 13.8007 8.84848 14.2108 8.43843L14.4154 8.23382L14.4557 8.18774Z" fill="black"/>
</svg>
