<svg width="24" height="24" viewBox="0 0 24 24" fill="none" xmlns="http://www.w3.org/2000/svg">
<path fill-rule="evenodd" clip-rule="evenodd" d="M5.09811 6.02943C7.2225 2.96456 11.2167 1.56821 14.9022 2.9103C18.585 4.25139 20.7632 7.8741 20.4045 11.5891L20.3491 11.5437L20.4036 11.5981L20.4045 11.5891C21.7479 12.6975 22.433 13.7672 22.1285 14.5546C21.493 16.2958 16.4455 16.0418 10.8533 14.0104C5.26116 11.979 1.23044 8.93194 1.86591 7.19075C2.15246 6.40355 3.35765 6.02224 5.09811 6.02943ZM5.09811 6.02943L5.09775 6.02995H5.17038L5.09811 6.02943ZM12.6 7.2C12.6 6.86863 12.8686 6.6 13.2 6.6C13.5314 6.6 13.8 6.86863 13.8 7.2V9C13.8 9.33137 13.5314 9.6 13.2 9.6C12.8686 9.6 12.6 9.33137 12.6 9V7.2ZM16.2 7.2C16.2 6.86863 16.4686 6.6 16.8 6.6C17.1314 6.6 17.4 6.86863 17.4 7.2V9C17.4 9.33137 17.1314 9.6 16.8 9.6C16.4686 9.6 16.2 9.33137 16.2 9V7.2ZM6.93145 17.4747C5.10041 16.0779 3.94273 13.9771 3.67852 11.7279C5.4307 12.9429 7.7009 14.16 10.4425 15.1394C13.1841 16.137 15.95 16.7264 17.8202 16.8721C16.1785 18.4308 13.9536 19.2796 11.6521 19.1796L9.0376 21.3743C8.4929 21.8458 7.65771 21.5375 7.53061 20.8302L6.93145 17.4747Z" fill="black"/>
</svg>
