<svg width="24" height="24" viewBox="0 0 24 24" fill="none" xmlns="http://www.w3.org/2000/svg">
<path fill-rule="evenodd" clip-rule="evenodd" d="M3.60001 3.13846C3.60001 2.73062 3.93063 2.4 4.33847 2.4H19.6615C20.0694 2.4 20.4 2.73062 20.4 3.13846V13.2C20.4 17.8392 16.6392 21.6 12 21.6C7.36081 21.6 3.60001 17.8392 3.60001 13.2V3.13846ZM8.5001 9.5111C9.2733 9.5111 9.9001 8.87435 9.9001 8.08888C9.9001 7.30341 9.2733 6.66666 8.5001 6.66666C7.7269 6.66666 7.1001 7.30341 7.1001 8.08888C7.1001 8.87435 7.7269 9.5111 8.5001 9.5111ZM15.5 9.5111C16.2732 9.5111 16.9 8.87435 16.9 8.08888C16.9 7.30341 16.2732 6.66666 15.5 6.66666C14.7268 6.66666 14.1 7.30341 14.1 8.08888C14.1 8.87435 14.7268 9.5111 15.5 9.5111ZM8.9999 12.3555H15.0117C15.3983 12.3555 15.4999 12.5301 15.4999 13.0666V13.7777C15.4999 15.7414 13.9329 17.3333 11.9999 17.3333C10.0669 17.3333 8.4999 15.7414 8.4999 13.7777V13.0666C8.4999 12.5289 8.6133 12.3555 8.9999 12.3555Z" fill="black"/>
</svg>
