<svg stroke-width= "1.5px" width="24" height="24" viewBox="0 0 24 24" fill="none" xmlns="http://www.w3.org/2000/svg">
<path fill-rule="evenodd" clip-rule="evenodd" d="M2.39999 7.8C2.39999 5.81177 4.01177 4.2 5.99999 4.2H18C19.9882 4.2 21.6 5.81177 21.6 7.8V16.2C21.6 18.1882 19.9882 19.8 18 19.8H5.99999C4.01177 19.8 2.39999 18.1882 2.39999 16.2V7.8ZM13.8 10.2C13.8 9.86861 14.0686 9.59998 14.4 9.59998C14.7314 9.59998 15 9.86861 15 10.2V13.8C15 14.1314 14.7314 14.4 14.4 14.4C14.0686 14.4 13.8 14.1314 13.8 13.8V10.2ZM11.4 8.99998C11.4 8.66861 11.6686 8.39998 12 8.39998C12.3314 8.39998 12.6 8.66861 12.6 8.99998V15C12.6 15.3314 12.3314 15.6 12 15.6C11.6686 15.6 11.4 15.3314 11.4 15V8.99998ZM9 10.2C9 9.86861 9.26863 9.59998 9.6 9.59998C9.93137 9.59998 10.2 9.86861 10.2 10.2V13.8C10.2 14.1314 9.93137 14.4 9.6 14.4C9.26863 14.4 9 14.1314 9 13.8V10.2Z" fill="black"/>
</svg>
