<svg width="24" height="24" viewBox="0 0 24 24" fill="none" xmlns="http://www.w3.org/2000/svg">
<path fill-rule="evenodd" clip-rule="evenodd" d="M3.04031 20.5029C3.04031 21.1088 3.53152 21.6 4.13768 21.6L12.2754 21.5959C17.4683 21.4426 21.6 17.1943 21.6 12C21.6 6.69807 17.302 2.4 12 2.4C6.69809 2.4 2.40002 6.69807 2.40002 12C2.40002 13.7248 2.84039 15.3701 3.67458 16.7829C4.09927 17.5021 4.15793 17.9144 3.7912 18.6544C3.43703 19.3691 3.219 19.8351 3.13017 20.07C3.0756 20.1835 3.04031 20.3422 3.04031 20.5029ZM6.90002 9.59997C6.90039 9.2686 7.16931 9.00026 7.50068 9.00063L16.4978 9.01042C16.8292 9.01078 17.0975 9.2797 17.0971 9.61107C17.0968 9.94245 16.8279 10.2108 16.4965 10.2104L7.49937 10.2006C7.168 10.2003 6.89966 9.93134 6.90002 9.59997ZM6.90002 14.3975C6.90002 14.0662 7.16865 13.7975 7.50003 13.7975H14.7074C15.0387 13.7975 15.3074 14.0662 15.3074 14.3975C15.3074 14.7289 15.0387 14.9975 14.7074 14.9975H7.50003C7.16865 14.9975 6.90002 14.7289 6.90002 14.3975Z" fill="black"/>
</svg>
