<svg width="24" height="24" viewBox="0 0 24 24" fill="none" xmlns="http://www.w3.org/2000/svg">
<path d="M9.00002 10.459L9.57871 11.79H8.42134L9.00002 10.459Z" fill="black"/>
<path d="M13.71 14.19V12.81H16.7354C16.4133 13.6186 15.6234 14.19 14.7 14.19H13.71Z" fill="black"/>
<path d="M14.7 9.81001C15.8387 9.81001 16.7744 10.679 16.8801 11.79H13.71V9.81001H14.7Z" fill="black"/>
<path fill-rule="evenodd" clip-rule="evenodd" d="M12 21.6C17.302 21.6 21.6 17.3019 21.6 12C21.6 6.69806 17.302 2.39999 12 2.39999C6.69809 2.39999 2.40002 6.69806 2.40002 12C2.40002 17.3019 6.69809 21.6 12 21.6ZM9.46773 8.97661C9.38677 8.79041 9.20307 8.66996 9.00002 8.66996C8.79698 8.66996 8.61328 8.79041 8.53232 8.97661L7.3091 11.79H5.40003C5.11836 11.79 4.89003 12.0183 4.89003 12.3C4.89003 12.5817 5.11836 12.81 5.40003 12.81H6.86563L6.13232 14.4966C6.02001 14.7549 6.13837 15.0554 6.39667 15.1677C6.65498 15.28 6.95542 15.1616 7.06773 14.9033L7.97786 12.81H10.0222L10.9323 14.9033C11.0446 15.1616 11.3451 15.28 11.6034 15.1677C11.8617 15.0554 11.98 14.7549 11.8677 14.4966L11.1344 12.81H12.69V14.7C12.69 14.9817 12.9184 15.21 13.2 15.21H14.7C16.1931 15.21 17.448 14.1907 17.807 12.81H19.2C19.4817 12.81 19.71 12.5817 19.71 12.3C19.71 12.0183 19.4817 11.79 19.2 11.79H17.9033C17.7951 10.1151 16.4023 8.79001 14.7 8.79001H13.2C12.9184 8.79001 12.69 9.01834 12.69 9.30001V11.79H10.6909L9.46773 8.97661Z" fill="black"/>
</svg>
