<svg stroke-width= "1.5px" width="24" height="24" viewBox="0 0 24 24" fill="none" xmlns="http://www.w3.org/2000/svg">
<path fill-rule="evenodd" clip-rule="evenodd" d="M12 21.6C17.302 21.6 21.6 17.3019 21.6 12C21.6 6.69807 17.302 2.4 12 2.4C6.69809 2.4 2.40002 6.69807 2.40002 12C2.40002 17.3019 6.69809 21.6 12 21.6ZM8.12986 8.18982C8.36418 7.95551 8.74408 7.95551 8.97839 8.18982L11.9482 11.1597L14.9181 8.18983C15.1524 7.95552 15.5323 7.95552 15.7666 8.18983C16.0009 8.42414 16.0009 8.80404 15.7666 9.03836L12.7968 12.0082L15.7666 14.9781C16.0009 15.2124 16.0009 15.5923 15.7666 15.8266C15.5323 16.0609 15.1524 16.0609 14.9181 15.8266L11.9482 12.8567L8.9784 15.8266C8.74408 16.0609 8.36418 16.0609 8.12987 15.8266C7.89555 15.5923 7.89556 15.2124 8.12987 14.9781L11.0997 12.0082L8.12986 9.03835C7.89555 8.80404 7.89555 8.42414 8.12986 8.18982Z" fill="black"/>
</svg>
