<svg width="24" height="24" viewBox="0 0 24 24" fill="none" xmlns="http://www.w3.org/2000/svg">
<path opacity="0.8" fill-rule="evenodd" clip-rule="evenodd" d="M19.608 5.784C19.434 5.442 19.158 5.172 18.822 4.998C18.432 4.8 17.928 4.8 16.92 4.8H7.08002C6.07202 4.8 5.56802 4.8 5.18402 4.998C4.84802 5.172 4.57202 5.442 4.39802 5.784C4.29002 6 4.24202 6.246 4.21802 6.6H19.788C19.764 6.246 19.716 6 19.608 5.784Z" fill="black"/>
<path opacity="0.6" fill-rule="evenodd" clip-rule="evenodd" d="M17.208 3.984C17.034 3.642 16.758 3.372 16.422 3.198C16.032 3 15.528 3 14.52 3H9.47999C8.47199 3 7.96799 3 7.58399 3.198C7.24799 3.372 6.97199 3.642 6.79799 3.984C6.76199 4.05 6.73799 4.122 6.71399 4.2H17.292C17.268 4.122 17.244 4.05 17.208 3.984Z" fill="black"/>
<path d="M10.524 14.064C10.776 13.83 11.016 13.578 11.232 13.308H12.99C13.146 13.566 13.356 13.818 13.614 14.064H10.524Z" fill="black"/>
<path fill-rule="evenodd" clip-rule="evenodd" d="M20.892 7.464C21.342 7.692 21.714 8.058 21.942 8.514C22.2 9.024 22.2 9.696 22.2 11.04V15.96C22.2 17.304 22.2 17.976 21.942 18.492C21.714 18.942 21.342 19.308 20.892 19.542C20.376 19.8 19.704 19.8 18.36 19.8H5.63999C4.29599 19.8 3.62399 19.8 3.11399 19.542C2.66399 19.308 2.29199 18.942 2.06399 18.492C1.79999 17.976 1.79999 17.304 1.79999 15.96V11.04C1.79999 9.696 1.79999 9.024 2.06399 8.514C2.29199 8.058 2.66399 7.692 3.11399 7.464C3.62399 7.2 4.29599 7.2 5.63999 7.2H18.36C19.704 7.2 20.376 7.2 20.892 7.464ZM13.974 14.382C14.232 14.586 14.538 14.796 14.88 15L15.372 14.388C14.652 14.07 14.118 13.71 13.776 13.308H15.126V12.63H11.688C11.796 12.444 11.892 12.24 11.982 12.042H14.73V11.376H13.776C13.974 11.112 14.142 10.806 14.286 10.464L13.656 10.23C13.524 10.608 13.344 10.932 13.128 11.22L13.404 11.376H12.228C12.336 11.04 12.42 10.686 12.486 10.314L11.736 10.218C11.67 10.62 11.58 11.01 11.46 11.376H10.578L10.932 11.22C10.788 10.872 10.626 10.554 10.44 10.26L9.79199 10.476C9.96599 10.734 10.122 11.04 10.272 11.376H9.27599V12.042H11.19C11.088 12.24 10.974 12.444 10.848 12.63H8.87999V13.308H10.29C9.83999 13.758 9.28799 14.13 8.62799 14.406L9.04199 15.042C9.43199 14.856 9.79199 14.634 10.128 14.382V14.754H10.986C10.866 15.102 10.698 15.39 10.5 15.606C10.218 15.876 9.80399 16.128 9.27599 16.362L9.74399 16.962C10.344 16.662 10.806 16.332 11.124 15.954C11.352 15.654 11.544 15.252 11.688 14.754H13.254C13.224 15.366 13.176 15.768 13.092 15.954C13.008 16.134 12.846 16.23 12.588 16.23C12.27 16.23 11.928 16.218 11.568 16.194L11.766 16.902H12.948C13.236 16.884 13.452 16.794 13.584 16.632C13.716 16.458 13.818 16.164 13.872 15.75C13.9178 15.4062 13.9418 14.9693 13.97 14.4551C13.9713 14.4309 13.9726 14.4065 13.974 14.382Z" fill="black"/>
</svg>
