<svg stroke-width= "1.5px" width="24" height="24" viewBox="0 0 24 24" fill="none" xmlns="http://www.w3.org/2000/svg">
<path fill-rule="evenodd" clip-rule="evenodd" d="M12.0796 18.602C11.9048 18.5101 11.696 18.5101 11.5212 18.602L6.39094 21.2991C5.86273 21.5768 5.24538 21.1283 5.34625 20.5401L6.32604 14.8275C6.35943 14.6328 6.2949 14.4342 6.15349 14.2964L2.00303 10.2507C1.5757 9.83415 1.8115 9.10841 2.40206 9.0226L8.13785 8.18914C8.33328 8.16074 8.50222 8.038 8.58962 7.86092L11.1547 2.66341C11.4188 2.12827 12.1819 2.12827 12.446 2.66341L15.0112 7.86092C15.0986 8.038 15.2675 8.16074 15.4629 8.18914L21.1987 9.0226C21.7893 9.10841 22.0251 9.83415 21.5977 10.2507L17.4473 14.2964C17.3059 14.4342 17.2414 14.6328 17.2747 14.8275L18.2545 20.5401C18.3554 21.1283 17.7381 21.5768 17.2098 21.2991L12.0796 18.602Z" fill="black"/>
</svg>
