<svg width="24" height="24" viewBox="0 0 24 24" fill="none" xmlns="http://www.w3.org/2000/svg">
<path fill-rule="evenodd" clip-rule="evenodd" d="M12 2.39999C11.4056 2.39999 10.9409 2.76138 10.6523 3.19438C10.3608 3.63158 10.2 4.201 10.2 4.79999C10.2 5.39898 10.3608 5.96841 10.6523 6.40561C10.8375 6.68348 11.0953 6.93186 11.4132 7.07416C11.4046 7.11474 11.4 7.15683 11.4 7.19999V8.39999H4.80002C3.47454 8.39999 2.40002 9.47451 2.40002 10.8C2.40002 11.9001 3.14013 12.8272 4.14957 13.1108C4.34413 13.1499 4.55225 13.1652 4.82098 13.1652C5.46197 13.1652 5.74995 13.0783 6.34204 12.7795C7.08746 12.4034 7.54538 12.2652 8.40235 12.2652C9.25793 12.2652 9.71765 12.4028 10.4695 12.7773C11.0723 13.0777 11.365 13.1652 12.0081 13.1652C12.6505 13.1652 12.9407 13.0781 13.5383 12.7789C14.2889 12.4031 14.7486 12.2652 15.6076 12.2652C16.4662 12.2652 16.9271 12.4029 17.6811 12.778C18.2839 13.0778 18.5761 13.1652 19.2179 13.1652C19.4463 13.1652 19.6308 13.1543 19.8 13.1271V13.1244C20.8352 12.858 21.6 11.9183 21.6 10.8C21.6 9.47451 20.5255 8.39999 19.2 8.39999H12.6V7.19999C12.6 7.15683 12.5955 7.11474 12.5868 7.07416C12.9048 6.93186 13.1625 6.68348 13.3478 6.40561C13.6392 5.96841 13.8 5.39898 13.8 4.79999C13.8 4.201 13.6392 3.63158 13.3478 3.19438C13.0591 2.76138 12.5944 2.39999 12 2.39999ZM11.4 4.79999C11.4 4.40487 11.5079 4.07429 11.6507 3.86002C11.7964 3.64156 11.9317 3.59999 12 3.59999C12.0684 3.59999 12.2037 3.64156 12.3493 3.86002C12.4922 4.07429 12.6 4.40487 12.6 4.79999C12.6 5.19512 12.4922 5.52569 12.3493 5.73997C12.2037 5.95843 12.0684 5.99999 12 5.99999C11.9317 5.99999 11.7964 5.95843 11.6507 5.73997C11.5079 5.52569 11.4 5.19512 11.4 4.79999Z" fill="black"/>
<path d="M4.20002 15.84V14.3334C4.38729 14.3552 4.58986 14.3652 4.82098 14.3652C5.67905 14.3652 6.13746 14.2269 6.88333 13.8505C7.47499 13.552 7.7625 13.4652 8.40235 13.4652C9.0427 13.4652 9.33429 13.5525 9.93605 13.8522C10.689 14.2273 11.1499 14.3652 12.0081 14.3652C12.8663 14.3652 13.3257 14.2273 14.076 13.8517C14.6738 13.5524 14.9644 13.4652 15.6076 13.4652C16.2513 13.4652 16.5442 13.5527 17.1466 13.8524L17.1478 13.853C17.901 14.2276 18.3611 14.3652 19.2179 14.3652C19.4333 14.3652 19.6238 14.3566 19.8 14.3378V15.84C19.8 17.8562 19.8 18.8643 19.4076 19.6344C19.0625 20.3117 18.5118 20.8625 17.8344 21.2076C17.0643 21.6 16.0562 21.6 14.04 21.6H9.96003C7.94384 21.6 6.93574 21.6 6.16566 21.2076C5.48828 20.8625 4.93755 20.3117 4.5924 19.6344C4.20002 18.8643 4.20002 17.8562 4.20002 15.84Z" fill="black"/>
</svg>
