<svg width="24" height="24" viewBox="0 0 24 24" fill="none" xmlns="http://www.w3.org/2000/svg">
<path d="M18.0943 2.40849C19.6787 2.52219 21.0987 3.74217 21.4709 5.3086C21.606 5.87745 21.6063 6.45868 21.5961 6.95898C21.5892 7.29975 21.5704 7.6315 21.4204 7.94519C21.223 8.35887 20.7859 8.6341 20.28 8.6642C19.776 8.69062 19.3086 8.47191 19.065 8.08464C18.7878 7.64421 18.8023 7.12619 18.8151 6.66903C18.826 6.27776 18.8362 5.90856 18.679 5.62798C18.5676 5.42933 18.3425 5.29355 18.0765 5.26479C17.8098 5.23503 17.5623 5.32064 17.412 5.49053C17.1318 5.8089 17.1179 6.31722 17.1285 6.85397L17.2406 12.5796C17.2682 13.9879 17.2992 15.5841 16.8163 17.0405C15.9412 19.6784 13.3151 21.5957 10.5721 21.6H10.5615C10.1884 21.6 9.80901 21.5635 9.43325 21.4927C8.27992 21.2743 7.18361 20.7355 6.26299 19.9349C5.04736 18.8778 4.49064 17.4729 4.08752 15.9389C4.01599 15.6663 3.94314 15.3898 3.85085 15.0627C3.69296 14.5036 3.40389 13.8825 3.01527 13.2672C2.62698 12.6522 2.62303 12.1231 3.00472 11.8519C3.19678 11.7154 3.41982 11.7131 3.57022 11.7116C3.57495 11.7116 3.57961 11.7115 3.58419 11.7115L9.71705 11.7158C10.2283 11.7161 10.5454 11.8797 10.6624 12.2017C10.7801 12.5271 10.5994 12.8428 10.5312 12.9615C10.4439 13.115 10.3483 13.2649 10.2527 13.4147L10.2519 13.416C10.0274 13.7683 9.81515 14.1014 9.71474 14.4688C9.51038 15.2169 9.84889 16.086 10.5022 16.4904C11.1552 16.8947 12.0718 16.8024 12.6342 16.2757C13.3036 15.6486 13.4279 14.6196 13.5043 13.5311L13.9638 6.99108C14.0123 6.29749 14.0677 5.51059 14.3478 4.7956C14.9346 3.29805 16.5101 2.29679 18.0943 2.40849Z" fill="black"/>
<path d="M3.00002 9.6C2.66865 9.6 2.40002 9.86863 2.40002 10.2C2.40002 10.5314 2.66865 10.8 3.00002 10.8H10.8C11.1314 10.8 11.4 10.5314 11.4 10.2C11.4 9.86863 11.1314 9.6 10.8 9.6H3.00002Z" fill="black"/>
</svg>
