<svg width="24" height="24" viewBox="0 0 24 24" fill="none" xmlns="http://www.w3.org/2000/svg">
<path fill-rule="evenodd" clip-rule="evenodd" d="M3 8.76C3 6.74381 3 5.73572 3.39238 4.96563C3.73752 4.28825 4.28825 3.73752 4.96563 3.39238C5.73572 3 6.74381 3 8.76 3H15.24C17.2562 3 18.2643 3 19.0344 3.39238C19.7118 3.73752 20.2625 4.28825 20.6076 4.96563C21 5.73572 21 6.74381 21 8.76V15.24C21 17.2562 21 18.2643 20.6076 19.0344C20.2625 19.7118 19.7118 20.2625 19.0344 20.6076C18.2643 21 17.2562 21 15.24 21H8.76C6.74381 21 5.73572 21 4.96563 20.6076C4.28825 20.2625 3.73752 19.7118 3.39238 19.0344C3 18.2643 3 17.2562 3 15.24V8.76ZM8.57748 8.82569L7.07578 7.32431C6.84144 7.09002 6.8414 6.71012 7.07569 6.47578C7.30998 6.24144 7.68988 6.2414 7.92422 6.47569L9.42592 7.97707C9.66026 8.21136 9.6603 8.59126 9.42601 8.8256C9.19172 9.05994 8.81182 9.05998 8.57748 8.82569ZM6.60001 11.4L7.79976 11.4V16.8024C7.79976 17.0451 7.94607 17.264 8.1704 17.3568C8.39474 17.4496 8.6529 17.3981 8.82441 17.2263L10.0246 16.0238C10.2587 15.7893 10.2584 15.4094 10.0239 15.1753C9.78935 14.9412 9.40946 14.9416 9.17535 15.1761L8.99976 15.352V10.8C8.99976 10.6408 8.93655 10.4882 8.82402 10.3757C8.7115 10.2632 8.55888 10.2 8.39975 10.2L6.59999 10.2C6.26862 10.2 5.99999 10.4686 6 10.8C6.00001 11.1314 6.26864 11.4 6.60001 11.4ZM10.2 7.19996C10.2 6.86859 10.4686 6.59996 10.8 6.59996H15.6C16.5941 6.59996 17.4 7.40585 17.4 8.39996V16.2C17.4 17.1941 16.5941 18 15.6 18H14.9926C14.6613 18 14.3926 17.7313 14.3926 17.4C14.3926 17.0686 14.6613 16.8 14.9926 16.8H15.6C15.9314 16.8 16.2 16.5313 16.2 16.2V8.39996C16.2 8.06859 15.9314 7.79996 15.6 7.79996H10.8C10.4686 7.79996 10.2 7.53133 10.2 7.19996ZM11.4 8.99996C11.0686 8.99996 10.8 9.26859 10.8 9.59996C10.8 9.93133 11.0686 10.2 11.4 10.2H14.4C14.7314 10.2 15 9.93133 15 9.59996C15 9.26859 14.7314 8.99996 14.4 8.99996H11.4ZM11.8661 11.1C11.7947 11.0999 11.7093 11.0999 11.6341 11.1061C11.547 11.1132 11.4222 11.1314 11.2914 11.1981C11.1221 11.2844 10.9844 11.422 10.8981 11.5914C10.8315 11.7221 10.8132 11.8469 10.8061 11.9341C10.7999 12.0093 10.8 12.0946 10.8 12.1661V14.2339C10.8 14.3053 10.7999 14.3907 10.8061 14.4659C10.8132 14.553 10.8315 14.6778 10.8981 14.8086C10.9844 14.9779 11.1221 15.1156 11.2914 15.2019C11.4222 15.2685 11.547 15.2868 11.6341 15.2939C11.7093 15.3 11.7946 15.3 11.8661 15.3H13.9339C14.0054 15.3 14.0907 15.3 14.1659 15.2939C14.253 15.2868 14.3778 15.2685 14.5086 15.2019C14.6779 15.1156 14.8156 14.9779 14.9019 14.8086C14.9685 14.6778 14.9868 14.553 14.9939 14.4659C15.0001 14.3907 15 14.3053 15 14.2339V12.1661C15 12.0946 15.0001 12.0093 14.9939 11.9341C14.9868 11.8469 14.9685 11.7221 14.9019 11.5914C14.8156 11.422 14.6779 11.2844 14.5086 11.1981C14.3778 11.1314 14.253 11.1132 14.1659 11.1061C14.0907 11.0999 14.0054 11.0999 13.9339 11.1H11.8661ZM12 14.1V12.3H13.8V14.1H12Z" fill="black"/>
</svg>
