<svg width="24" height="24" viewBox="0 0 24 24" fill="none" xmlns="http://www.w3.org/2000/svg">
<path fill-rule="evenodd" clip-rule="evenodd" d="M12.6198 18.9313C12.8538 17.3539 13.716 15.9589 14.9622 15.0217L15.0996 14.9215L15.027 14.8081C14.652 14.2027 14.4312 13.5001 14.403 12.7591L14.4 12.6001C14.4 10.2805 16.2804 8.40007 18.6 8.40007C19.1484 8.40007 19.671 8.50808 20.151 8.70068C20.2704 8.74868 20.4 8.66648 20.4 8.53748V7.20007C20.4 5.21167 18.7878 3.60007 16.8 3.60007H5.39999C3.41159 3.60007 1.79999 5.21167 1.79999 7.20007V16.2001C1.79999 18.1885 3.41159 19.8001 5.39999 19.8001H12.4716C12.5832 19.8001 12.6744 19.6981 12.6486 19.5895C12.6006 19.3807 12.5862 19.1599 12.6198 18.9313ZM12 11.7C11.484 11.7 10.998 11.94 10.578 12.294C10.362 12.474 10.158 12.696 9.96002 12.954C9.33002 11.94 8.22602 10.5 7.06202 10.5C5.47801 10.5 3.97802 12.732 3.69602 13.176C3.51602 13.458 3.60002 13.824 3.88202 14.004C4.16402 14.184 4.53002 14.1 4.71002 13.818C5.25002 12.966 6.37802 11.7 7.06202 11.7C7.69202 11.7 8.81402 13.254 9.39002 14.37C9.39771 14.3854 9.40786 14.3983 9.41732 14.4103L9.41733 14.4103C9.42263 14.4171 9.42771 14.4235 9.43202 14.43L9.43891 14.4406L9.43891 14.4406C9.44705 14.4533 9.45378 14.4638 9.46802 14.478C9.51602 14.532 9.56402 14.58 9.62402 14.616C9.62402 14.616 9.62402 14.622 9.63002 14.622C9.63602 14.628 9.64202 14.628 9.64802 14.628C9.70202 14.658 9.76202 14.676 9.82802 14.688C9.84602 14.694 9.86402 14.694 9.88202 14.694C9.88801 14.694 9.89551 14.6955 9.903 14.697L9.90302 14.697C9.91052 14.6985 9.91802 14.7 9.92402 14.7C9.97202 14.7 10.026 14.694 10.074 14.676C10.086 14.676 10.092 14.67 10.098 14.664C10.108 14.66 10.118 14.6567 10.128 14.6533C10.148 14.6467 10.168 14.64 10.188 14.628C10.1982 14.6246 10.2045 14.6174 10.2114 14.6095C10.2167 14.6036 10.2222 14.5972 10.23 14.592C10.266 14.568 10.296 14.544 10.326 14.52C10.356 14.49 10.38 14.46 10.404 14.43C10.41 14.421 10.416 14.415 10.422 14.409L10.422 14.409C10.428 14.403 10.434 14.397 10.44 14.388C10.752 13.836 11.064 13.446 11.352 13.206C11.64 12.96 11.862 12.894 11.994 12.894C12.324 12.894 12.594 12.624 12.594 12.294C12.594 11.964 12.33 11.7 12 11.7ZM11.85 8.70001C12.4299 8.70001 12.9 8.22991 12.9 7.65001C12.9 7.07011 12.4299 6.60001 11.85 6.60001C11.2701 6.60001 10.8 7.07011 10.8 7.65001C10.8 8.22991 11.2701 8.70001 11.85 8.70001ZM18.6 9.60001C20.2569 9.60001 21.6 10.9432 21.6 12.6C21.6 13.7121 20.9949 14.6828 20.096 15.201L20.151 15.2193C21.8715 15.7786 23.1619 17.27 23.3904 19.1076C23.4534 19.4571 23.1975 19.7599 22.8551 19.7963L22.7856 19.8H14.4115C14.0351 19.8 13.7528 19.4804 13.8066 19.1076C14.0754 17.2966 15.3792 15.8052 17.0863 15.246L17.1507 15.2261C16.2255 14.7152 15.6 13.7307 15.6 12.6C15.6 10.9432 16.9431 9.60001 18.6 9.60001Z" fill="black"/>
</svg>
