<svg width="24" height="24" viewBox="0 0 24 24" fill="none" xmlns="http://www.w3.org/2000/svg">
<path fill-rule="evenodd" clip-rule="evenodd" d="M18.1902 17.5134L20.4372 19.764C20.7882 20.1156 20.787 20.6862 20.4354 21.0372C20.0838 21.3882 19.5138 21.3876 19.1628 21.036L16.7928 18.6618C15.4188 19.5708 13.7712 20.1 12 20.1C7.19525 20.1 3.30005 16.2048 3.30005 11.4C3.30005 6.5952 7.19525 2.7 12 2.7C16.8048 2.7 20.7 6.5952 20.7 11.4C20.7 13.7832 19.7418 15.942 18.1902 17.5134ZM15.8195 10.2984C16.0535 10.533 16.4333 10.533 16.6679 10.2984C16.9025 10.0644 16.9025 9.68457 16.6679 9.44997C14.0909 6.87237 9.91195 6.87237 7.33435 9.44997C7.09975 9.68397 7.09975 10.0638 7.33435 10.2984C7.56835 10.533 7.94815 10.533 8.18275 10.2984C10.2917 8.18937 13.7105 8.18937 15.8195 10.2984ZM14.5469 12.42C14.3123 12.6546 13.9325 12.6546 13.6985 12.42C12.7613 11.4828 11.2415 11.4828 10.3043 12.42C10.0697 12.6546 9.68988 12.6546 9.45588 12.42C9.22128 12.186 9.22128 11.8056 9.45588 11.5716C10.8617 10.1658 13.1411 10.1658 14.5469 11.5716C14.7809 11.8062 14.7809 12.186 14.5469 12.42ZM11.3646 14.7534C11.7162 15.105 12.2856 15.105 12.6372 14.7534C12.9888 14.4018 12.9888 13.8324 12.6372 13.4808C12.2862 13.1292 11.7162 13.1292 11.3646 13.4808C11.013 13.8324 11.013 14.4018 11.3646 14.7534Z" fill="black"/>
</svg>
