<svg width="24" height="24" viewBox="0 0 24 24" fill="none" xmlns="http://www.w3.org/2000/svg">
<path d="M11.1264 14.3784L11.3532 14.916H12.5712L12.8316 14.3784H11.1264Z" fill="black"/>
<path d="M10.2528 13.2192V13.7232H13.7472V13.2192H10.2528Z" fill="black"/>
<path fill-rule="evenodd" clip-rule="evenodd" d="M12 21.6C17.302 21.6 21.6 17.3019 21.6 12C21.6 6.69807 17.302 2.4 12 2.4C6.69809 2.4 2.40002 6.69807 2.40002 12C2.40002 17.3019 6.69809 21.6 12 21.6ZM9.53043 12.2196V11.5644H14.4696V12.2196H9.53043ZM9.38763 14.3784V12.5808H14.6124V14.3784H13.7556L13.4952 14.916H15.738V15.6468H8.25362V14.916H10.4712L10.2444 14.3784H9.38763ZM8.53083 9.21242V8.50682H11.58V8.08682H12.42V8.50682H15.4944V9.21242H12.42V9.55682H15.0576V10.2288H9.06002V9.55682H11.58V9.21242H8.53083ZM8.41322 10.5396H15.5784V11.8836H14.772V11.2284H9.21963V11.8836H8.41322V10.5396Z" fill="black"/>
</svg>
