<svg stroke-width= "1.5px" width="24" height="24" viewBox="0 0 24 24" fill="none" xmlns="http://www.w3.org/2000/svg">
<path fill-rule="evenodd" clip-rule="evenodd" d="M10.7297 3.5319C11.4327 2.82895 12.5724 2.82895 13.2753 3.5319L16.3437 6.60026C18.0298 6.60297 18.9313 6.63412 19.6344 6.99238C20.3118 7.33752 20.8625 7.88825 21.2076 8.56563C21.6 9.33572 21.6 10.3438 21.6 12.36V15.24C21.6 17.2562 21.6 18.2643 21.2076 19.0344C20.8625 19.7117 20.3118 20.2625 19.6344 20.6076C18.8643 21 17.8562 21 15.84 21H8.16002C6.14384 21 5.13574 21 4.36566 20.6076C3.68828 20.2625 3.13755 19.7117 2.7924 19.0344C2.40002 18.2643 2.40002 17.2562 2.40002 15.24V12.36C2.40002 10.3438 2.40002 9.33572 2.7924 8.56563C3.13755 7.88825 3.68828 7.33752 4.36566 6.99238C5.06946 6.63377 5.97208 6.60291 7.66137 6.60025L10.7297 3.5319ZM12.4268 4.38042L14.6464 6.6H9.35867L11.5783 4.38042C11.8126 4.14611 12.1925 4.14611 12.4268 4.38042ZM7.20002 12C7.20002 11.6686 7.46865 11.4 7.80002 11.4H16.2C16.5314 11.4 16.8 11.6686 16.8 12C16.8 12.3314 16.5314 12.6 16.2 12.6H7.80002C7.46865 12.6 7.20002 12.3314 7.20002 12ZM7.20002 15.6C7.20002 15.2686 7.46865 15 7.80002 15H13.2C13.5314 15 13.8 15.2686 13.8 15.6C13.8 15.9314 13.5314 16.2 13.2 16.2H7.80002C7.46865 16.2 7.20002 15.9314 7.20002 15.6Z" fill="black"/>
</svg>
