<svg width="24" height="24" viewBox="0 0 24 24" fill="none" xmlns="http://www.w3.org/2000/svg">
<path fill-rule="evenodd" clip-rule="evenodd" d="M12 2.39999C17.3019 2.39999 21.6 6.69806 21.6 12C21.6 17.3019 17.3019 21.6 12 21.6C7.65386 21.6 3.98227 18.7119 2.79974 14.7502L7.19966 11.994L2.79974 9.24979C3.98227 5.2881 7.65386 2.39999 12 2.39999ZM12 7.19999C9.39906 7.19999 7.28128 9.2687 7.20229 11.8505L7.20001 12C7.20001 14.651 9.34904 16.8 12 16.8C14.651 16.8 16.8 14.651 16.8 12C16.8 9.34903 14.651 7.19999 12 7.19999ZM12.6 8.99999C13.5941 8.99999 14.4 9.80588 14.4 10.8C14.4 11.7941 13.5941 12.6 12.6 12.6C11.6059 12.6 10.8 11.7941 10.8 10.8C10.8 9.80588 11.6059 8.99999 12.6 8.99999Z" fill="black"/>
</svg>
