<svg width="24" height="24" viewBox="0 0 24 24" fill="none" xmlns="http://www.w3.org/2000/svg">
<path fill-rule="evenodd" clip-rule="evenodd" d="M4.20001 5.41421C4.20001 4.39911 5.03893 3.5848 6.05358 3.61501L9.70714 3.72378C11.6528 3.78171 13.2 5.37568 13.2 7.32219V16.6779C13.2 18.6244 11.6528 20.2184 9.70714 20.2763L6.05358 20.3851C5.03893 20.4153 4.20001 19.601 4.20001 18.5859V5.41421ZM7.80001 7.80001C7.80001 7.46864 8.06864 7.20002 8.40001 7.20002C9.06275 7.20002 9.60001 7.73727 9.60001 8.40002V15.6C9.60001 16.2628 9.06275 16.8 8.40001 16.8C8.06864 16.8 7.80001 16.5314 7.80001 16.2V7.80001Z" fill="black"/>
<path d="M17.3973 3.59993C16.7346 3.59991 16.1973 4.13718 16.1973 4.79993V16.7022L15.43 16.813C14.8396 16.8983 14.4016 17.4042 14.4016 18.0007V19.1795C14.4016 19.8399 14.9352 20.3762 15.5957 20.3795L17.1203 20.3869C18.5982 20.3941 19.8 19.1981 19.8 17.7203V4.79995C19.8 4.13722 19.2628 3.59997 18.6 3.59995L17.3973 3.59993Z" fill="black"/>
</svg>
