<svg width="24" height="24" viewBox="0 0 24 24" fill="none" xmlns="http://www.w3.org/2000/svg">
<path fill-rule="evenodd" clip-rule="evenodd" d="M5.53846 0C2.47965 0 0 2.47965 0 5.53846V18.4615C0 21.5203 2.47965 24 5.53846 24H18.4615C21.5203 24 24 21.5203 24 18.4615V5.53846C24 2.47965 21.5203 0 18.4615 0H5.53846ZM11.6812 18H12.3165C12.9058 18 13.3835 17.4697 13.3835 16.8155V7.18431C13.3835 6.53031 12.9058 6 12.3165 6H11.6812C11.092 6 10.6143 6.53031 10.6143 7.18431V16.8155C10.6143 17.4697 11.092 18 11.6812 18ZM17.2213 17.9999H17.8565C18.4458 17.9999 18.9235 17.4754 18.9235 16.8284V12.7099C18.9235 12.0629 18.4458 11.5384 17.8565 11.5384H17.2213C16.632 11.5384 16.1543 12.0629 16.1543 12.7099V16.8284C16.1543 17.4754 16.632 17.9999 17.2213 17.9999ZM6.75967 18.0001H6.16385C5.56371 18.0001 5.07715 17.4376 5.07715 16.7439V10.0257C5.07715 9.33171 5.56371 8.76929 6.16385 8.76929H6.75967C7.35982 8.76929 7.84638 9.33171 7.84638 10.0257V16.7439C7.84638 17.4376 7.35982 18.0001 6.75967 18.0001Z" fill="black"/>
</svg>
