<svg stroke-width= "1.5px" width="24" height="24" viewBox="0 0 24 24" fill="none" xmlns="http://www.w3.org/2000/svg">
<path d="M12.8617 2.4L11.0208 2.40099C10.5736 2.40886 10.3944 2.46374 10.2139 2.56028C10.0184 2.66487 9.8649 2.81834 9.76032 3.01389C9.65573 3.20945 9.60004 3.40342 9.60004 3.93833L9.59954 6.6H4.92851C4.57211 6.6 4.34839 6.6557 4.15283 6.76028C3.95728 6.86486 3.8038 7.01834 3.69922 7.21389C3.59464 7.40945 3.53894 7.63317 3.53894 7.98957V8.83084C3.53894 9.09829 3.56679 9.19528 3.61908 9.29305C3.67137 9.39083 3.74811 9.46757 3.84589 9.51986C3.94366 9.57215 4.04065 9.6 4.30811 9.6H19.5698C19.8372 9.6 19.9342 9.57215 20.032 9.51986C20.1298 9.46757 20.2065 9.39083 20.2588 9.29305C20.3111 9.19528 20.3389 9.09829 20.3389 8.83084V7.98957C20.3389 7.63317 20.2832 7.40945 20.1787 7.21389C20.0741 7.01834 19.9206 6.86486 19.725 6.76028C19.5295 6.6557 19.3058 6.6 18.9494 6.6H14.3995L14.4 3.93833C14.4 3.40342 14.3443 3.20945 14.2398 3.01389C14.1352 2.81834 13.9817 2.66487 13.7861 2.56028C13.5906 2.4557 13.3966 2.4 12.8617 2.4Z" fill="black"/>
<path d="M19.7153 11.9154C19.6708 11.287 19.1481 10.8 18.5182 10.8H5.48182C4.85192 10.8 4.32923 11.287 4.28481 11.9154L3.68863 20.3577L3.68788 20.4C3.68788 21.0627 4.22514 21.6 4.88788 21.6H14.3119L14.3871 21.5975C15.008 21.5517 15.4975 21.0334 15.4975 20.4008L15.4975 20.3574L15.1955 16.8591L15.1935 16.7894C15.2022 16.4907 15.4333 16.2393 15.7381 16.2122C16.0653 16.183 16.3541 16.4246 16.3834 16.7534L16.7064 20.491L16.7172 20.5828C16.8041 21.1541 17.2939 21.5931 17.8877 21.6007L19.1122 21.6L19.1968 21.597C19.8579 21.5503 20.3559 20.9765 20.3092 20.3154L19.7153 11.9154Z" fill="black"/>
</svg>
