<svg width="24" height="25" viewBox="0 0 24 25" fill="none" xmlns="http://www.w3.org/2000/svg">
<path fill-rule="evenodd" clip-rule="evenodd" d="M12.1199 2.84008C13.1744 1.78566 14.8839 1.78566 15.9383 2.84008L17.0898 3.99185C17.2013 4.10335 17.2075 4.2821 17.1039 4.40099C16.4381 5.16552 16.4691 6.32659 17.197 7.05443C17.9248 7.78228 19.0859 7.81333 19.8504 7.14749C19.9693 7.04394 20.1481 7.05009 20.2596 7.16156L21.4113 8.31306C22.4657 9.36748 22.4657 11.077 21.4113 12.1315L12.2437 21.2991C11.1893 22.3535 9.47973 22.3535 8.42532 21.2991L7.27369 20.1475C7.16219 20.036 7.15604 19.8572 7.25961 19.7383C7.92557 18.9738 7.89455 17.8126 7.16667 17.0847C6.43878 16.3569 5.27763 16.3258 4.5131 16.9918C4.3942 17.0954 4.21541 17.0892 4.10392 16.9777L2.95231 15.8261C1.89789 14.7717 1.8979 13.0621 2.95231 12.0077L12.1199 2.84008ZM16.3007 10.9064C16.535 11.1407 16.535 11.5206 16.3007 11.7549L11.8672 16.1885C11.6329 16.4228 11.253 16.4228 11.0186 16.1885C10.7843 15.9542 10.7843 15.5743 11.0186 15.3399L15.4522 10.9064C15.6865 10.6721 16.0664 10.6721 16.3007 10.9064ZM13.345 8.79922C13.5794 8.5649 13.5794 8.18501 13.345 7.95069C13.1107 7.71638 12.7308 7.71638 12.4965 7.95069L8.06295 12.3843C7.82864 12.6186 7.82864 12.9985 8.06295 13.2328C8.29727 13.4671 8.67717 13.4671 8.91148 13.2328L13.345 8.79922Z" fill="black"/>
</svg>
