<svg stroke-width= "1.5px" width="24" height="24" viewBox="0 0 24 24" fill="none" xmlns="http://www.w3.org/2000/svg">
<path fill-rule="evenodd" clip-rule="evenodd" d="M16.668 5.454C16.5532 5.22947 16.3705 5.04683 16.146 4.932C15.9929 4.85431 15.8254 4.80936 15.654 4.8C15.384 4.8 15.054 4.8 14.52 4.8H9.48C8.964 4.8 8.616 4.8 8.346 4.8C8.17632 4.80185 8.00885 4.83861 7.854 4.908C7.62947 5.02283 7.44682 5.20547 7.332 5.43C7.26261 5.58485 7.22585 5.75232 7.224 5.922C7.224 6.192 7.224 6.522 7.224 7.056V16.92C7.224 17.436 7.224 17.784 7.224 18.054C7.22585 18.2237 7.26261 18.3912 7.332 18.546C7.44682 18.7705 7.62947 18.9532 7.854 19.068C8.00885 19.1374 8.17632 19.1742 8.346 19.176C8.616 19.176 8.946 19.176 9.48 19.176H14.52C15.036 19.176 15.384 19.176 15.654 19.176C15.8237 19.1742 15.9911 19.1374 16.146 19.068C16.3705 18.9532 16.5532 18.7705 16.668 18.546C16.7374 18.3912 16.7742 18.2237 16.776 18.054C16.776 17.784 16.776 17.454 16.776 16.92V7.08C16.776 6.564 16.776 6.216 16.776 5.946C16.7742 5.77632 16.7374 5.60885 16.668 5.454ZM13.476 7.8C13.654 7.8 13.828 7.85278 13.976 7.95168C14.124 8.05057 14.2394 8.19113 14.3075 8.35558C14.3756 8.52004 14.3934 8.701 14.3587 8.87558C14.324 9.05016 14.2383 9.21053 14.1124 9.3364C13.9865 9.46226 13.8262 9.54798 13.6516 9.58271C13.477 9.61743 13.296 9.59961 13.1316 9.53149C12.9671 9.46337 12.8266 9.34802 12.7277 9.20001C12.6288 9.05201 12.576 8.878 12.576 8.7C12.576 8.4613 12.6708 8.23239 12.8396 8.0636C13.0084 7.89482 13.2373 7.8 13.476 7.8ZM14.976 13.8C14.658 13.8 14.196 14.022 13.662 14.754C13.6392 14.7848 13.613 14.813 13.584 14.838C13.5209 14.8952 13.4476 14.94 13.368 14.97C13.2864 14.9947 13.2011 15.0049 13.116 15C12.9567 14.9807 12.8108 14.9013 12.708 14.778C12.6765 14.7375 12.6502 14.6932 12.63 14.646C12.63 14.646 12.63 14.604 12.594 14.574L12.462 14.322C12.3215 14.0562 12.1673 13.7978 12 13.548C11.8277 13.2862 11.6265 13.0447 11.4 12.828C11.3297 12.7561 11.2487 12.6954 11.16 12.648C11.1363 12.6255 11.1074 12.609 11.076 12.6C10.9287 12.6206 10.7898 12.6807 10.674 12.774C10.4651 12.9284 10.2739 13.1055 10.104 13.302C9.924 13.506 9.768 13.71 9.654 13.866L9.528 14.052L9.492 14.106C9.40766 14.2413 9.27304 14.3375 9.11776 14.3735C8.96248 14.4095 8.79926 14.3823 8.664 14.298C8.52874 14.2137 8.43252 14.079 8.39651 13.9238C8.36051 13.7685 8.38766 13.6053 8.472 13.47L8.514 13.404C8.55 13.35 8.598 13.272 8.664 13.182C8.73 13.092 8.982 12.756 9.198 12.51C9.43201 12.2469 9.6935 12.0095 9.978 11.802C10.2946 11.5595 10.6776 11.4193 11.076 11.4C11.5116 11.4274 11.9208 11.6181 12.222 11.934C12.5138 12.2126 12.7716 12.5247 12.99 12.864C13.104 13.032 13.206 13.2 13.296 13.356C13.7432 12.8907 14.355 12.6193 15 12.6C15.1591 12.6 15.3117 12.6632 15.4243 12.7757C15.5368 12.8883 15.6 13.0409 15.6 13.2C15.6 13.3591 15.5368 13.5117 15.4243 13.6243C15.3117 13.7368 15.1591 13.8 15 13.8H14.976Z" fill="black"/>
<path fill-rule="evenodd" clip-rule="evenodd" d="M19.41 3.768C19.0621 3.08984 18.5102 2.53792 17.832 2.19C17.076 1.8 16.056 1.8 14.04 1.8H9.96001C7.94401 1.8 6.96001 1.8 6.16801 2.19C5.48985 2.53792 4.93793 3.08984 4.59001 3.768C4.20001 4.536 4.20001 5.568 4.20001 7.56V16.44C4.20001 18.456 4.20001 19.44 4.59001 20.232C4.93793 20.9102 5.48985 21.4621 6.16801 21.81C6.93601 22.2 7.96801 22.2 9.96001 22.2H14.04C16.056 22.2 17.04 22.2 17.832 21.81C18.5102 21.4621 19.0621 20.9102 19.41 20.232C19.8 19.464 19.8 18.432 19.8 16.44V7.56C19.8 5.544 19.8 4.536 19.41 3.768ZM18 16.968C18 17.454 18 17.85 17.97 18.168C17.9573 18.5839 17.8316 18.9884 17.6065 19.3383C17.3814 19.6881 17.0652 19.9701 16.692 20.154C16.3967 20.2947 16.0767 20.3762 15.75 20.394C15.426 20.394 15.03 20.394 14.55 20.394H9.45601C8.97001 20.394 8.57401 20.394 8.25601 20.394C7.92936 20.3762 7.60935 20.2947 7.31401 20.154C6.86444 19.9186 6.50104 19.5468 6.27601 19.092C6.13534 18.7967 6.05381 18.4766 6.03601 18.15C6.03601 17.826 6.03601 17.43 6.03601 16.95V7.056C6.03601 6.57 6.03601 6.174 6.03601 5.856C6.05303 5.52731 6.13458 5.20519 6.27601 4.908C6.50567 4.45894 6.87096 4.09365 7.32001 3.864C7.60996 3.71652 7.92582 3.62685 8.25001 3.6C8.57401 3.6 8.97001 3.6 9.45001 3.6H14.538C15.024 3.6 15.42 3.6 15.738 3.6C16.0647 3.6178 16.3847 3.69933 16.68 3.84C17.0532 4.02387 17.3694 4.30586 17.5945 4.65572C17.8196 5.00559 17.9453 5.41014 17.958 5.826C17.988 6.15 17.988 6.546 17.988 7.026L18 16.968Z" fill="black"/>
</svg>
