<svg stroke-width= "1.5px" width="24" height="24" viewBox="0 0 24 24" fill="none" xmlns="http://www.w3.org/2000/svg">
<path d="M9.75044 10.4013C9.53008 10.4011 9.35124 10.5795 9.351 10.7999C9.35076 11.0202 9.52921 11.1991 9.74957 11.1993L14.2481 11.2042C14.4685 11.2044 14.6473 11.026 14.6476 10.8056C14.6478 10.5853 14.4694 10.4064 14.249 10.4062L9.75044 10.4013Z" fill="#3AB6FF"/>
<path d="M9.351 13.1988C9.351 12.9784 9.52964 12.7998 9.75 12.7998H13.3537C13.574 12.7998 13.7527 12.9784 13.7527 13.1988C13.7527 13.4191 13.574 13.5978 13.3537 13.5978H9.75C9.52964 13.5978 9.351 13.4191 9.351 13.1988Z" fill="#3AB6FF"/>
<path fill-rule="evenodd" clip-rule="evenodd" d="M12 2.39999C6.69807 2.39999 2.4 6.69806 2.4 12C2.4 17.3019 6.69807 21.6 12 21.6C17.3019 21.6 21.6 17.3019 21.6 12C21.6 6.69806 17.3019 2.39999 12 2.39999ZM7.52014 16.2514C7.52014 16.5544 7.76575 16.8 8.06883 16.8L12.1377 16.798C14.7341 16.7213 16.8 14.5972 16.8 12C16.8 9.34903 14.651 7.19999 12 7.19999C9.34903 7.19999 7.2 9.34903 7.2 12C7.2 12.8624 7.42018 13.6851 7.83728 14.3914C8.04962 14.7511 8.07895 14.9572 7.89559 15.3272C7.7185 15.6845 7.60949 15.9175 7.56507 16.035C7.53779 16.0917 7.52014 16.1711 7.52014 16.2514Z" fill="#3AB6FF"/>
</svg>
