<svg width="24" height="24" viewBox="0 0 24 24" fill="none" xmlns="http://www.w3.org/2000/svg">
<path fill-rule="evenodd" clip-rule="evenodd" d="M17.2643 9.93596L15.8378 7.52353L13.4704 6.15615C13.3504 6.08679 13.3505 5.91343 13.4707 5.84427L15.9189 4.43529L17.2637 2.07506C17.3328 1.95375 17.5077 1.9539 17.5766 2.07534L18.9624 4.51764L21.323 5.84429C21.445 5.91283 21.4456 6.08819 21.3241 6.15754L19.003 7.48235L17.5747 9.93493C17.5056 10.0537 17.3342 10.0543 17.2643 9.93596ZM18.6117 10.5388L19.8778 8.36476L20.0752 8.25208C20.6677 9.47583 21 10.8491 21 12.3C21 17.4362 16.8362 21.6 11.7 21.6C6.56375 21.6 2.39999 17.4362 2.39999 12.3C2.39999 7.16375 6.56375 3 11.7 3C12.853 3 13.9571 3.20984 14.976 3.59342L12.8721 4.80421C11.9507 5.33447 11.9497 6.66356 12.8702 7.19526L14.965 8.40522L16.2313 10.5467C16.7676 11.4537 18.0815 11.4493 18.6117 10.5388ZM12.8237 13.8433C13.1312 13.967 13.2802 14.3165 13.1565 14.6239C12.6421 15.9031 11.3737 16.8 9.89927 16.8C8.4262 16.8 7.15886 15.9048 6.64346 14.6275C6.51946 14.3202 6.66805 13.9706 6.97535 13.8466C7.28265 13.7226 7.63228 13.8712 7.75628 14.1785C8.09021 15.006 8.91993 15.6 9.89927 15.6C10.8795 15.6 11.7099 15.0049 12.0432 14.1761C12.1668 13.8687 12.5163 13.7197 12.8237 13.8433ZM12.75 11.7C13.3299 11.7 13.8 11.2299 13.8 10.65C13.8 10.0701 13.3299 9.6 12.75 9.6C12.1701 9.6 11.7 10.0701 11.7 10.65C11.7 11.2299 12.1701 11.7 12.75 11.7ZM8.1 10.65C8.1 11.2299 7.6299 11.7 7.05 11.7C6.4701 11.7 6 11.2299 6 10.65C6 10.0701 6.4701 9.6 7.05 9.6C7.6299 9.6 8.1 10.0701 8.1 10.65Z" fill="black"/>
</svg>
