<svg width="24" height="24" viewBox="0 0 24 24" fill="none" xmlns="http://www.w3.org/2000/svg">
<path d="M19.8756 18.1667C19.4424 18.2189 18.1895 16.1889 18.1895 16.1889C18.1895 17.3643 17.5829 18.8981 16.2706 20.0058C16.9036 20.2005 18.332 20.7246 17.9922 21.2966C17.7172 21.7595 13.2747 21.5922 11.9921 21.448C10.7096 21.5922 6.26702 21.7595 5.99203 21.2966C5.65206 20.7248 7.07897 20.2011 7.71288 20.0061C6.40034 18.8984 5.79372 17.3644 5.79372 16.1889C5.79372 16.1889 4.5408 18.2189 4.10761 18.1667C3.90577 18.1423 3.64063 17.055 4.45894 14.4278C4.84462 13.1894 5.28566 12.1598 5.96783 10.4611C5.853 6.07735 7.66841 2.40022 11.9916 2.39999C16.2666 2.40022 18.1241 6.00498 18.0154 10.4611C18.6964 12.157 19.1397 13.193 19.5243 14.4278C20.3425 17.055 20.0774 18.1422 19.8756 18.1667Z" fill="#3AB6FF"/>
</svg>
