<svg stroke-width= "1.5px" width="24" height="24" viewBox="0 0 24 24" fill="none" xmlns="http://www.w3.org/2000/svg">
<path d="M14.6813 7.2C16.0068 7.2 17.0813 6.12548 17.0813 4.8C17.0813 3.47452 16.0068 2.4 14.6813 2.4C13.3558 2.4 12.2813 3.47452 12.2813 4.8C12.2813 6.12548 13.3558 7.2 14.6813 7.2Z" fill="black"/>
<path d="M5.9731 10.9636L5.93677 11.0111C5.45398 11.6159 4.56994 11.741 3.93336 11.2845C3.28046 10.8163 3.13512 9.9135 3.60874 9.26805C4.27982 8.3535 5.28079 7.63927 6.37965 7.2581C7.31873 6.93243 8.27548 6.89951 9.28921 7.09809C9.8571 7.20934 10.333 7.35524 11.0478 7.62516L11.2819 7.71463L12.1868 8.06875L12.4274 8.15841C14.5362 8.91372 16.7877 8.66588 18.0402 7.43258C18.1561 7.31867 18.2637 7.19494 18.3615 7.06302L18.3981 7.01573C18.8839 6.41333 19.7686 6.29252 20.4029 6.75215C21.0534 7.22358 21.1942 8.12709 20.7173 8.7702C20.53 9.02286 20.3232 9.26062 20.1004 9.4796C18.4339 11.1205 15.9979 11.7183 13.5517 11.3911L12.9244 12.8892C16.1261 13.8131 18.2834 16.9214 17.8911 20.3198C17.7996 21.1121 17.0758 21.681 16.2744 21.5906C15.473 21.5002 14.8975 20.7846 14.989 19.9924L14.9972 19.9143C15.1967 17.8388 13.7756 15.9701 11.7525 15.5763C10.1155 18.5043 6.49104 19.8119 3.29926 18.4975C2.55469 18.1909 2.20253 17.3456 2.5127 16.6095C2.82287 15.8734 3.67791 15.5253 4.42249 15.8319L4.49818 15.8622C6.41924 16.6066 8.59584 15.6885 9.39195 13.7754L10.7214 10.6006L10.326 10.4461C8.78242 9.8494 8.07996 9.72856 7.34665 9.98287C6.79489 10.1743 6.28571 10.5376 5.9731 10.9636Z" fill="black"/>
</svg>
