<svg width="24" height="24" viewBox="0 0 24 24" fill="none" xmlns="http://www.w3.org/2000/svg">
<path d="M13.5 3.9C13.5 4.72843 12.8284 5.4 12 5.4C11.1716 5.4 10.5 4.72843 10.5 3.9C10.5 3.07157 11.1716 2.4 12 2.4C12.8284 2.4 13.5 3.07157 13.5 3.9Z" fill="black"/>
<path d="M13.5 12.3C13.5 13.1284 12.8284 13.8 12 13.8C11.1716 13.8 10.5 13.1284 10.5 12.3C10.5 11.4716 11.1716 10.8 12 10.8C12.8284 10.8 13.5 11.4716 13.5 12.3Z" fill="black"/>
<path d="M13.5 20.1C13.5 20.9284 12.8284 21.6 12 21.6C11.1716 21.6 10.5 20.9284 10.5 20.1C10.5 19.2716 11.1716 18.6 12 18.6C12.8284 18.6 13.5 19.2716 13.5 20.1Z" fill="black"/>
</svg>
