<svg width="24" height="24" viewBox="0 0 24 24" fill="none" xmlns="http://www.w3.org/2000/svg">
<path d="M3.9498 10.0924C3.29749 9.42347 2.97862 8.61167 3.00111 7.67747C3.06396 5.1329 5.13334 3.06337 7.67772 3.00118C8.61185 2.97802 9.42359 3.29692 10.0924 3.94927C10.7613 4.60162 11.1 5.40548 11.1 6.33968V10.1453C11.1 10.6713 10.6713 11.1 10.146 11.1H6.34003C5.4059 11.1 4.6021 10.7613 3.9498 10.0924Z" fill="black"/>
<path d="M20.9989 7.67747C20.936 5.1329 18.8667 3.06337 16.3223 3.00118C15.3882 2.97802 14.5764 3.29692 13.9076 3.94927C13.2387 4.60162 12.9 5.40548 12.9 6.33968V10.1453C12.9 10.6713 13.3287 11.1 13.854 11.1H17.66C18.5941 11.1 19.3979 10.7613 20.0502 10.0924C20.7025 9.42347 21.0214 8.61167 20.9989 7.67747Z" fill="black"/>
<path d="M20.9989 16.3223C20.936 18.8667 18.8667 20.936 16.3223 20.9989C15.3882 21.0214 14.5764 20.7025 13.9076 20.0502C13.2387 19.3979 12.9 18.5941 12.9 17.66V13.854C12.9 13.3287 13.3287 12.9 13.854 12.9H17.66C18.5941 12.9 19.3979 13.2387 20.0502 13.9076C20.7025 14.5764 21.0214 15.3882 20.9989 16.3223Z" fill="black"/>
<path d="M3.00111 16.3223C3.06396 18.8667 5.13334 20.936 7.67772 20.9989C8.61185 21.0214 9.42359 20.7025 10.0924 20.0502C10.7613 19.3979 11.1 18.5941 11.1 17.66V13.854C11.1 13.3287 10.6713 12.9 10.146 12.9H6.34003C5.4059 12.9 4.6021 13.2387 3.9498 13.9076C3.29749 14.5764 2.97862 15.3882 3.00111 16.3223Z" fill="black"/>
</svg>
