<svg stroke-width= "1.5px" width="24" height="24" viewBox="0 0 24 24" fill="none" xmlns="http://www.w3.org/2000/svg">
<path fill-rule="evenodd" clip-rule="evenodd" d="M11.104 1.65905C10.5905 1.52864 10.0659 1.68231 9.91521 2.2607L9.8501 2.55114C9.49033 4.07923 9.03444 4.74138 8.33261 5.31959L8.15194 5.46285L7.9605 5.60534L7.75779 5.74977L7.07669 6.22178L6.82362 6.40108L6.55665 6.5959L6.41779 6.69998L6.12901 6.92319L5.93314 7.08275C3.81822 8.86063 3.00648 11.369 3.00031 13.097L3.00371 13.4369C3.09958 18.2815 6.87145 22.0157 11.9982 22.0157C17.1249 22.0157 20.9024 18.2815 20.9984 13.4369L21 13.1781L20.9946 12.9445L20.9866 12.7688L20.974 12.5778L20.9563 12.3723L20.9328 12.153L20.9026 11.9204L20.8653 11.6753L20.8199 11.4184L20.7849 11.2409C20.7603 11.1209 20.7329 10.9977 20.7026 10.8716L20.6291 10.5832L20.5449 10.2856L20.4493 9.9794L20.3969 9.82339L20.2827 9.50578L20.2091 9.31487C19.677 7.97048 18.7949 6.46158 17.3393 5.00241C16.1669 3.94413 15.5426 4.08857 15.4143 4.58024C15.3873 4.68373 15.3759 4.804 15.3705 4.93082L15.3604 5.41744L15.3564 5.49617C15.3384 5.78131 15.2793 6.02319 15.0646 6.09962C14.6635 6.29184 14.1404 6.11441 13.887 5.12506L13.8133 4.80949C13.3355 2.851 12.3505 1.97564 11.104 1.65905ZM9.13162 10.1266L9.18812 10.1238C9.48032 10.1238 9.72115 10.3438 9.75406 10.6272L9.7579 10.6936V14.0628L9.75406 14.1293C9.72368 14.3909 9.51614 14.5984 9.25456 14.6288L9.18812 14.6326H8.81978L8.75333 14.6288C8.49176 14.5984 8.28421 14.3909 8.25383 14.1293L8.25 14.0628V10.7677L8.25473 10.6942C8.28287 10.477 8.43395 10.2944 8.64247 10.2262L8.70735 10.2092L9.07568 10.135L9.13162 10.1266ZM15.1881 10.1238L15.1316 10.1266L15.0757 10.135L14.7073 10.2092L14.6425 10.2262C14.4339 10.2944 14.2829 10.477 14.2547 10.6942L14.25 10.7677V14.0628L14.2538 14.1293C14.2842 14.3909 14.4918 14.5984 14.7533 14.6288L14.8198 14.6326H15.1881L15.2546 14.6288C15.5161 14.5984 15.7237 14.3909 15.7541 14.1293L15.7579 14.0628V10.6936L15.7541 10.6272C15.7211 10.3438 15.4803 10.1238 15.1881 10.1238ZM12.1957 9.35559H11.8091C11.5169 9.35559 11.2761 9.57555 11.2432 9.85892L11.2394 9.92537L11.2383 13.4403L11.2294 13.5972L11.2214 13.6796L11.1979 13.8513L11.1637 14.0301C10.9649 14.9383 10.3385 16.0338 8.87414 16.1035L8.72489 16.107L8.66045 16.1113C8.44972 16.1399 8.28292 16.3067 8.25433 16.5175L8.25 16.5819L8.25056 17.1354L8.25223 17.1605C8.27802 17.4516 8.51838 17.672 8.80354 17.6798L8.87007 17.6778L8.97456 17.6667C10.3043 17.5031 11.3523 16.9131 12.0063 16.0633C12.6422 16.8705 13.6475 17.4434 14.8866 17.639L15.0842 17.6667L15.1887 17.6778C15.5021 17.7055 15.7787 17.474 15.8065 17.1605L15.8088 17.1102V16.5819L15.8044 16.5175C15.7787 16.3278 15.641 16.1737 15.4601 16.124L15.3983 16.1113L15.3339 16.107L15.1845 16.1035C13.4302 16.0201 12.8319 14.4687 12.7708 13.526L12.7655 13.3664V9.92537L12.7617 9.85892C12.7313 9.59735 12.5237 9.38981 12.2622 9.35942L12.1957 9.35559Z" fill="black"/>
</svg>
