<svg stroke-width= "1.5px" width="24" height="24" viewBox="0 0 24 24" fill="none" xmlns="http://www.w3.org/2000/svg">
<path d="M19.4662 9.57739C19.4344 9.71664 19.3518 9.92318 19.2375 10.1697H19.2407L19.228 10.1937C18.5611 11.6313 16.821 14.452 16.821 14.452L16.8131 14.4328L16.3049 15.3261H18.7548L14.0744 21.6L15.1381 17.332H13.209L13.8791 14.5098C13.3378 14.6411 12.6962 14.8218 11.9373 15.0684C11.9373 15.0684 10.9116 15.6736 8.98109 13.9031C8.98109 13.9031 7.67909 12.7455 8.43496 12.4574C8.75565 12.3342 9.99239 12.1772 10.9657 12.0459C12.2834 11.8667 13.0915 11.7707 13.0915 11.7707C13.0915 11.7707 9.03504 11.8315 8.07291 11.6794C7.11067 11.5273 5.88984 9.90716 5.62941 8.48392C5.62941 8.48392 5.22771 7.70271 6.49475 8.07247C7.76176 8.44241 13.0058 9.51339 13.0058 9.51339C13.0058 9.51339 6.18676 7.40502 5.731 6.88943C5.27693 6.37721 4.39582 4.0815 4.51013 2.6728C4.51013 2.6728 4.55939 2.32057 4.91821 2.41657C4.91821 2.41657 9.96063 4.73796 13.4075 6.01064C16.856 7.28335 19.8535 7.93008 19.4662 9.57739H19.4662Z" fill="#319CF8"/>
</svg>
