<svg stroke-width= "1.5px" width="24" height="24" viewBox="0 0 24 24" fill="none" xmlns="http://www.w3.org/2000/svg">
<path d="M12.7896 11.976L12.4368 14.748H14.1252V11.976H12.7896Z" fill="black"/>
<path fill-rule="evenodd" clip-rule="evenodd" d="M12 21.6C17.302 21.6 21.6 17.3019 21.6 12C21.6 6.69807 17.302 2.4 12 2.4C6.69809 2.4 2.40002 6.69807 2.40002 12C2.40002 17.3019 6.69809 21.6 12 21.6ZM10.7736 11.976V11.1192H12.042L12.2688 9.35518H10.8324V8.52358H15.528V9.35518H13.1256L12.8988 11.1192H14.9652V14.748H15.8136V15.588H10.2864V14.748H11.58L11.9328 11.976H10.7736ZM8.04363 11.388C8.90043 10.4304 9.53883 9.31318 9.95043 8.01958L10.7652 8.40598C10.5468 9.05278 10.2696 9.67438 9.92523 10.2708V15.8904H9.05163V11.5224C8.82483 11.7996 8.58963 12.0684 8.33763 12.3288L8.04363 11.388Z" fill="black"/>
</svg>
