<svg stroke-width= "1.5px" width="24" height="24" viewBox="0 0 24 24" fill="none" xmlns="http://www.w3.org/2000/svg">
<path fill-rule="evenodd" clip-rule="evenodd" d="M12 21.6C17.3019 21.6 21.6 17.3019 21.6 12C21.6 6.69806 17.3019 2.39999 12 2.39999C6.69806 2.39999 2.39999 6.69806 2.39999 12C2.39999 17.3019 6.69806 21.6 12 21.6ZM13.5417 6.39598L13.5446 6.3968C16.0282 7.07923 17.8528 9.34441 17.8528 12.0354C17.8528 15.2664 15.2234 17.8857 11.9799 17.8857C8.73645 17.8857 6.10701 15.2664 6.10701 12.0354C6.10701 9.35607 7.91578 7.09925 10.3828 6.40599L10.383 6.40723C10.4205 6.39872 10.459 6.39324 10.499 6.39324C10.7874 6.39324 11.0212 6.62611 11.0212 6.91342C11.0212 7.15891 10.8499 7.36339 10.6204 7.41811C8.61489 8.00316 7.14962 9.84841 7.14962 12.0354C7.14962 14.6927 9.31221 16.8471 11.9799 16.8471C14.6476 16.8471 16.8102 14.6927 16.8102 12.0354C16.8102 10.0654 15.6211 8.37331 13.9193 7.62931V11.2181C13.9193 12.7856 13.075 13.5396 11.8954 13.7123C10.9302 13.8534 10.0433 13.1968 10.0433 12.4246C10.0433 11.7596 10.3382 11.2012 11.0717 10.805C11.7522 10.4375 12.6467 10.5809 12.8555 10.6144C12.8796 10.6183 12.8946 10.6207 12.899 10.6207C12.8986 9.40023 12.8839 6.89724 12.8839 6.89724C12.8839 6.61006 13.1177 6.37719 13.4061 6.37719C13.4543 6.37719 13.4974 6.38377 13.5417 6.39598Z" fill="#FF3A3A"/>
</svg>
