<svg width="24" height="24" viewBox="0 0 24 24" fill="none" xmlns="http://www.w3.org/2000/svg">
<path d="M12.1801 1.8C9.19776 1.8 6.7801 4.21766 6.7801 7.2V12C6.7801 14.9823 9.19776 17.4 12.1801 17.4C15.1624 17.4 17.5801 14.9823 17.5801 12V7.2C17.5801 4.21766 15.1624 1.8 12.1801 1.8Z" fill="black"/>
<path d="M4.80011 10.8C5.23089 10.8 5.58011 11.1492 5.58011 11.58V12.2891C5.58011 15.7743 8.40667 18.6 11.8923 18.6H12.4673C15.953 18.6 18.7801 15.7742 18.7801 12.2891V11.58C18.7801 11.1492 19.1293 10.8 19.5601 10.8C19.9909 10.8 20.3401 11.1492 20.3401 11.58V12.2891C20.3401 16.4708 17.0774 19.8905 12.9601 20.1448V22.62C12.9601 23.0508 12.6109 23.4 12.1801 23.4C11.7493 23.4 11.4001 23.0508 11.4001 22.62V20.1449C7.28245 19.8908 4.02011 16.4709 4.02011 12.2891V11.58C4.02011 11.1492 4.36933 10.8 4.80011 10.8Z" fill="black"/>
</svg>
