<svg stroke-width= "1.5px" width="24" height="24" viewBox="0 0 24 24" fill="none" xmlns="http://www.w3.org/2000/svg">
<path d="M9.60002 13.8C9.60002 14.4627 9.06277 15 8.40002 15C7.73728 15 7.20002 14.4627 7.20002 13.8C7.20002 13.1373 7.73728 12.6 8.40002 12.6C9.06277 12.6 9.60002 13.1373 9.60002 13.8Z" fill="black"/>
<path fill-rule="evenodd" clip-rule="evenodd" d="M12.6 2.99999C12.6 2.66862 12.3314 2.39999 12 2.39999C11.6687 2.39999 11.4 2.66862 11.4 2.99999V6.59999H9.60002C5.62357 6.59999 2.40002 9.82354 2.40002 13.8C2.40002 17.7764 5.62357 21 9.60002 21H14.4C18.3765 21 21.6 17.7764 21.6 13.8C21.6 9.82354 18.3765 6.59999 14.4 6.59999H12.6V2.99999ZM10.8 13.8C10.8 15.1255 9.72551 16.2 8.40002 16.2C7.07454 16.2 6.00002 15.1255 6.00002 13.8C6.00002 12.4745 7.07454 11.4 8.40002 11.4C9.72551 11.4 10.8 12.4745 10.8 13.8ZM15 13.8C15 14.2971 14.5971 14.7 14.1 14.7C13.603 14.7 13.2 14.2971 13.2 13.8C13.2 13.3029 13.603 12.9 14.1 12.9C14.5971 12.9 15 13.3029 15 13.8ZM18 13.8C18 14.2971 17.5971 14.7 17.1 14.7C16.603 14.7 16.2 14.2971 16.2 13.8C16.2 13.3029 16.603 12.9 17.1 12.9C17.5971 12.9 18 13.3029 18 13.8Z" fill="black"/>
</svg>
