<svg width="24" height="24" viewBox="0 0 24 24" fill="none" xmlns="http://www.w3.org/2000/svg">
<path fill-rule="evenodd" clip-rule="evenodd" d="M21.6 12C21.6 17.3019 17.3019 21.6 12 21.6C6.69806 21.6 2.39999 17.3019 2.39999 12C2.39999 6.69806 6.69806 2.39999 12 2.39999C17.3019 2.39999 21.6 6.69806 21.6 12ZM15.2999 15.12C15.9248 15.12 16.508 14.9414 17.0013 14.6326L17.3393 14.9706C17.5385 15.1698 17.8614 15.1698 18.0606 14.9706C18.2597 14.7715 18.2597 14.4485 18.0606 14.2494L17.7706 13.9595C18.2323 13.4035 18.5099 12.6892 18.5099 11.91C18.5099 10.1372 17.0728 8.7 15.2999 8.7C13.5271 8.7 12.0899 10.1372 12.0899 11.91C12.0899 13.6828 13.5271 15.12 15.2999 15.12ZM15.3001 9.72C14.0906 9.72 13.1101 10.7005 13.1101 11.91C13.1101 13.1195 14.0906 14.1 15.3001 14.1C15.6411 14.1 15.964 14.022 16.2518 13.883L15.8394 13.4706C15.6403 13.2715 15.6403 12.9485 15.8394 12.7494C16.0386 12.5502 16.3615 12.5502 16.5607 12.7494L17.0449 13.2336C17.3243 12.866 17.4901 12.4073 17.4901 11.91C17.4901 10.7005 16.5096 9.72 15.3001 9.72ZM8.42564 15.1207C8.31164 15.1207 8.20364 15.1147 8.10164 15.1087C7.69964 15.0907 7.32764 15.0307 6.99764 14.9347C6.67364 14.8387 6.38564 14.7307 6.15164 14.5987C5.89964 14.4607 5.67164 14.2927 5.55764 14.1847C5.35364 13.9927 5.34764 13.6687 5.53964 13.4647C5.73164 13.2607 6.05564 13.2547 6.25964 13.4467C6.30764 13.5007 6.46364 13.6147 6.63164 13.7047C6.79964 13.7947 7.02164 13.8787 7.27364 13.9567C7.52564 14.0287 7.81964 14.0767 8.14964 14.0947C8.47964 14.1067 8.70164 14.1007 8.91764 14.0587C9.21764 13.9987 9.47564 13.9207 9.64964 13.8307C9.84764 13.7287 9.94364 13.6567 10.0456 13.5367C10.1296 13.4407 10.1836 13.2967 10.1956 13.1707C10.2016 13.0387 10.1896 12.9367 10.1476 12.8827C10.0876 12.7927 10.0156 12.7267 9.88964 12.6487C9.76964 12.5767 9.60764 12.5347 9.31364 12.4987C9.18502 12.4803 9.03881 12.4725 8.88848 12.4644L8.88846 12.4644C8.84244 12.462 8.79604 12.4595 8.74964 12.4567C8.51564 12.4447 8.28764 12.4327 8.08364 12.4087C7.67564 12.3607 7.36364 12.2947 7.05764 12.1927C6.74564 12.0907 6.46964 11.9647 6.27764 11.8387C6.06164 11.6947 5.85164 11.4727 5.73164 11.2507C5.61164 11.0227 5.55764 10.7587 5.56964 10.4587C5.58764 10.1467 5.69564 9.86466 5.88764 9.61266C6.06164 9.39066 6.29564 9.19866 6.57764 9.05466C6.83564 8.92866 7.13564 8.83266 7.46564 8.76666C7.78964 8.70666 8.13164 8.68866 8.47964 8.70666C8.83964 8.72466 9.17564 8.77266 9.47564 8.84466C9.77564 8.92266 10.0396 9.01266 10.2616 9.12066C10.5016 9.23466 10.6876 9.36066 10.8316 9.49266C10.9216 9.57666 10.9936 9.64866 11.0416 9.70866C11.2216 9.92466 11.1916 10.2487 10.9756 10.4287C10.7596 10.6087 10.4356 10.5787 10.2556 10.3627C10.2363 10.3394 10.2119 10.3162 10.1841 10.2897C10.1689 10.2752 10.1526 10.2597 10.1356 10.2427C10.0936 10.2007 9.99764 10.1287 9.81764 10.0387C9.65564 9.96066 9.45764 9.89466 9.22964 9.83466C8.98964 9.77466 8.72564 9.73866 8.43164 9.72066C8.16164 9.70266 7.89764 9.72066 7.65764 9.76866C7.41764 9.81666 7.20764 9.88266 7.03964 9.96666C6.89564 10.0447 6.77564 10.1347 6.69764 10.2367C6.63164 10.3207 6.59564 10.4107 6.58964 10.5127C6.58364 10.5907 6.58964 10.6927 6.62564 10.7707C6.65564 10.8307 6.74564 10.9327 6.83564 10.9927C6.92564 11.0527 7.10564 11.1427 7.36364 11.2267C7.61564 11.3047 7.86764 11.3527 8.20964 11.3947C8.34571 11.4128 8.49892 11.4207 8.65372 11.4286H8.65374C8.70371 11.4312 8.75385 11.4337 8.80364 11.4367L8.8188 11.4375L8.81884 11.4375C9.03602 11.4492 9.25802 11.4612 9.44564 11.4847C9.88364 11.5387 10.1656 11.6227 10.4116 11.7727C10.6696 11.9287 10.8556 12.1027 11.0056 12.3247C11.1616 12.5707 11.2336 12.8647 11.2096 13.2247C11.1916 13.5787 11.0476 13.9327 10.8196 14.2027C10.5976 14.4607 10.3756 14.6047 10.1116 14.7427C9.78164 14.9107 9.38564 15.0067 9.11564 15.0607C8.86964 15.1087 8.63564 15.1207 8.42564 15.1207Z" fill="black"/>
</svg>
