<svg stroke-width= "1.5px" width="24" height="24" viewBox="0 0 24 24" fill="none" xmlns="http://www.w3.org/2000/svg">
<path fill-rule="evenodd" clip-rule="evenodd" d="M9.61528 4.18158C9.2292 3.59914 9.29278 2.80654 9.806 2.29331C10.3918 1.70753 11.3415 1.70753 11.9273 2.29331L16.5942 6.96022C17.18 7.546 17.18 8.49575 16.5942 9.08154C16.081 9.59478 15.2884 9.65834 14.7059 9.27223C14.7031 9.27524 14.7002 9.27823 14.6973 9.28121C14.6932 9.28538 14.6891 9.28953 14.685 9.29366L13.4122 10.5665L20.2005 17.3547C20.9034 18.0576 20.9034 19.1973 20.2005 19.9003C19.4975 20.6032 18.3578 20.6032 17.6549 19.9003L10.8666 13.1121L9.59385 14.3848C9.58677 14.3919 9.57963 14.3989 9.57242 14.4057C9.95854 14.9882 9.89498 15.7808 9.38174 16.2941C8.79595 16.8798 7.84621 16.8798 7.26042 16.2941L2.59351 11.6272C2.00773 11.0414 2.00773 10.0916 2.59351 9.50584C3.10673 8.99262 3.89932 8.92904 4.48175 9.3151C4.48862 9.30789 4.4956 9.30074 4.50268 9.29366L9.59385 4.20249C9.60093 4.19541 9.60807 4.18844 9.61528 4.18158ZM11.6399 5.52732C11.4407 5.32815 11.1178 5.32815 10.9186 5.52732C10.7194 5.72649 10.7194 6.0494 10.9186 6.24857L12.6157 7.94563C12.8148 8.14479 13.1378 8.14479 13.3369 7.94563C13.5361 7.74646 13.5361 7.42355 13.3369 7.22438L11.6399 5.52732ZM6.54865 10.6185C6.34948 10.4193 6.02657 10.4193 5.8274 10.6185C5.62824 10.8176 5.62824 11.1405 5.8274 11.3397L7.52446 13.0368C7.72363 13.2359 8.04654 13.2359 8.24571 13.0368C8.44488 12.8376 8.44488 12.5147 8.24571 12.3155L6.54865 10.6185Z" fill="black"/>
</svg>
