<svg width="24" height="24" viewBox="0 0 24 24" fill="none" xmlns="http://www.w3.org/2000/svg">
<path fill-rule="evenodd" clip-rule="evenodd" d="M3 8.16C3 6.14381 3 5.13572 3.39238 4.36564C3.73752 3.68825 4.28825 3.13752 4.96563 2.79238C5.73572 2.4 6.74381 2.4 8.76 2.4H15.24C17.2562 2.4 18.2643 2.4 19.0344 2.79238C19.7118 3.13752 20.2625 3.68825 20.6076 4.36564C21 5.13572 21 6.14381 21 8.16V15.84C21 17.8562 21 18.8643 20.6076 19.6344C20.2625 20.3118 19.7118 20.8625 19.0344 21.2076C18.2643 21.6 17.2562 21.6 15.24 21.6H8.76C6.74381 21.6 5.73572 21.6 4.96563 21.2076C4.28825 20.8625 3.73752 20.3118 3.39238 19.6344C3 18.8643 3 17.8562 3 15.84V8.16ZM7.17391 16.8C6.85695 16.8 6.6 17.057 6.6 17.3739V17.4261C6.6 17.7431 6.85695 18 7.17391 18H13.2261C13.543 18 13.8 17.7431 13.8 17.4261V17.3739C13.8 17.057 13.543 16.8 13.2261 16.8H7.17391ZM7.2 13.2C6.86863 13.2 6.6 13.4686 6.6 13.8C6.6 14.1314 6.86863 14.4 7.2 14.4H16.8C17.1314 14.4 17.4 14.1314 17.4 13.8C17.4 13.4686 17.1314 13.2 16.8 13.2H7.2ZM6.6 7.92001C6.6 7.24794 6.6 6.91191 6.73079 6.65522C6.84584 6.42942 7.02942 6.24585 7.25521 6.1308C7.51191 6.00001 7.84794 6.00001 8.52 6.00001H15.48C16.1521 6.00001 16.4881 6.00001 16.7448 6.1308C16.9706 6.24585 17.1542 6.42942 17.2692 6.65522C17.4 6.91191 17.4 7.24794 17.4 7.92001V8.28001C17.4 8.95207 17.4 9.2881 17.2692 9.5448C17.1542 9.77059 16.9706 9.95417 16.7448 10.0692C16.4881 10.2 16.1521 10.2 15.48 10.2H8.52C7.84794 10.2 7.51191 10.2 7.25521 10.0692C7.02942 9.95417 6.84584 9.77059 6.73079 9.5448C6.6 9.2881 6.6 8.95207 6.6 8.28001V7.92001Z" fill="black"/>
</svg>
