<svg width="24" height="24" viewBox="0 0 24 24" fill="none" xmlns="http://www.w3.org/2000/svg">
<path fill-rule="evenodd" clip-rule="evenodd" d="M21.972 7.788L15.948 3.708C15.798 3.606 15.618 3.576 15.444 3.63C15.27 3.678 15.132 3.804 15.06 3.966C14.562 5.094 13.392 5.898 12.012 5.898C10.632 5.898 9.46201 5.094 8.96401 3.966C8.89201 3.804 8.75401 3.678 8.58001 3.63C8.40601 3.582 8.22601 3.612 8.07601 3.708L2.06401 7.788C1.92601 7.884 1.83001 8.028 1.80601 8.196C1.78201 8.364 1.83001 8.532 1.93201 8.664L4.53601 11.886C4.72801 12.126 5.07001 12.18 5.32801 12.012L6.29401 11.388V18.3C6.29401 19.626 7.36801 20.7 8.69401 20.7H15.294C16.62 20.7 17.694 19.626 17.694 18.3V11.34L18.696 12.006C18.954 12.18 19.302 12.126 19.494 11.886L22.098 8.664C22.206 8.532 22.248 8.364 22.224 8.196C22.2 8.028 22.11 7.878 21.972 7.788Z" fill="black"/>
</svg>
