<svg stroke-width= "1.5px" width="24" height="24" viewBox="0 0 24 24" fill="none" xmlns="http://www.w3.org/2000/svg">
<path fill-rule="evenodd" clip-rule="evenodd" d="M12.4638 7.72543L8.00147 3.26313C6.00467 4.18004 4.3763 5.80543 3.4003 7.72543H12.4638Z" fill="#F1B35A"/>
<path fill-rule="evenodd" clip-rule="evenodd" d="M9.4445 8.57876H3.0268C2.62317 9.64543 2.40002 10.7934 2.40002 11.9959C2.40002 13.0933 2.58541 14.1489 2.9244 15.1307C2.9244 15.1307 9.07458 8.94868 9.4445 8.57876Z" fill="#F1DD5A"/>
<path fill-rule="evenodd" clip-rule="evenodd" d="M7.74127 20.5997V11.5429L3.28111 16.003C4.19845 17.9979 5.82127 19.6244 7.74127 20.5997Z" fill="#BAF15A"/>
<path fill-rule="evenodd" clip-rule="evenodd" d="M8.59461 14.5522V20.9731C9.66127 21.377 10.8013 21.5999 12.0039 21.5999C13.103 21.5999 14.1564 21.4141 15.1397 21.0738C15.1397 21.0738 9.04538 15.003 8.59461 14.5522Z" fill="#5EF15A"/>
<path fill-rule="evenodd" clip-rule="evenodd" d="M11.5496 16.2588L16.0074 20.7168C18.0002 19.7992 19.6251 18.1788 20.5996 16.2588H11.5496Z" fill="#5AE5F1"/>
<path fill-rule="evenodd" clip-rule="evenodd" d="M21.0755 8.86734C21.0755 8.86734 14.9883 14.9725 14.5557 15.4054H20.9731C21.377 14.3387 21.5999 13.1986 21.5999 11.9961C21.5999 10.8987 21.4147 9.8491 21.0755 8.86734Z" fill="#5A9EF1"/>
<path fill-rule="evenodd" clip-rule="evenodd" d="M16.2746 3.40027V12.4571L20.7348 7.99696C19.8174 6.00208 18.1946 4.37563 16.2746 3.40027Z" fill="#6C5AF1"/>
<path fill-rule="evenodd" clip-rule="evenodd" d="M15.4213 9.4478V3.02689C14.3546 2.62305 13.2067 2.3999 12.0039 2.3999C10.9086 2.3999 9.85477 2.58465 8.87429 2.92257C8.87429 2.92257 15.0898 9.11628 15.4213 9.4478Z" fill="#F1765A"/>
</svg>
