<svg stroke-width= "1.5px" width="24" height="24" viewBox="0 0 24 24" fill="none" xmlns="http://www.w3.org/2000/svg">
<path d="M21.6 9.71979C21.6 6.02121 18.937 3 15.6122 3C14.2936 3 13.0325 3.48054 12.0001 4.35761C10.9678 3.48054 9.70659 3 8.38778 3C5.06296 3 2.39999 6.02121 2.39999 9.71979C2.39999 10.0953 2.42181 10.4641 2.46563 10.827H7.50834C7.73602 10.827 7.94409 10.9559 8.04551 11.1597L8.40717 11.8866L9.88298 7.79635C9.96873 7.55868 10.1942 7.4002 10.4469 7.39999C10.6995 7.39978 10.9253 7.55789 11.0114 7.79542L12.8111 12.7575L14.0004 9.55027C14.0775 9.34256 14.2627 9.19419 14.4822 9.16436C14.7017 9.13453 14.9198 9.22808 15.0495 9.40771L16.074 10.827H21.5C21.5115 10.827 21.5229 10.8273 21.5342 10.828C21.5781 10.4648 21.6 10.0956 21.6 9.71979Z" fill="black"/>
<path d="M21.3036 12.027H15.7672C15.5745 12.027 15.3935 11.9344 15.2807 11.7782L14.7346 11.0217L13.3674 14.7086C13.2799 14.9446 13.0544 15.1009 12.8027 15.1C12.551 15.0991 12.3266 14.9412 12.2408 14.7046L10.4488 9.76379L9.0596 13.614C8.97808 13.84 8.76964 13.9955 8.52983 14.0094C8.29002 14.0232 8.06505 13.8927 7.95804 13.6777L7.13671 12.027H2.69638C3.25846 14.1374 4.62479 16.0685 6.83612 18.0032C7.86158 18.9003 8.96552 19.7522 10.1098 20.538C10.4783 20.791 10.8329 21.0245 11.1642 21.2333C11.3358 21.3413 11.4809 21.4301 11.5727 21.4839C11.8366 21.6387 12.1639 21.6387 12.4279 21.4839C12.5197 21.4301 12.6647 21.3413 12.8363 21.2332C13.1676 21.0245 13.5221 20.791 13.8906 20.538C15.0347 19.7522 16.1386 18.9003 17.1639 18.0031C19.3752 16.0685 20.7415 14.1374 21.3036 12.027Z" fill="black"/>
</svg>
