<svg width="24" height="24" viewBox="0 0 24 24" fill="none" xmlns="http://www.w3.org/2000/svg">
<path d="M12.9251 2.4C12.3574 2.40017 11.8793 2.52853 11.4869 2.77155C11.095 3.01432 10.8137 3.35598 10.6146 3.7435C10.224 4.50355 10.1334 5.47204 10.1334 6.351C10.1334 7.71665 9.66036 8.5969 9.03747 9.14428C8.58336 9.54334 8.03037 9.78208 7.47908 9.89059V21.798L13.5054 21.798C16.4757 21.798 18.3325 21.2984 19.5393 20.0333C20.7239 18.7915 21.2013 16.8848 21.6492 14.3334C21.8816 13.0092 21.8304 11.995 21.5761 11.22C21.3185 10.4353 20.8595 9.91806 20.3264 9.58821C19.3963 9.01278 18.2621 9.03229 17.7338 9.04138C17.6776 9.04235 17.6281 9.0432 17.5866 9.0432H15.4704C15.679 8.35419 15.7872 7.40989 15.7872 6.351C15.7872 4.64901 15.3137 3.63626 14.6701 3.05657C14.0344 2.48395 13.305 2.4 12.9251 2.4Z" fill="black"/>
<path d="M6.27908 21.798V9.96H5.6508C5.22443 9.95882 4.802 10.0418 4.40772 10.2041C4.01326 10.3665 3.65472 10.6051 3.35267 10.9064C3.05061 11.2076 2.81098 11.5655 2.64751 11.9595C2.48405 12.3535 2.39994 12.7759 2.40002 13.2025V18.557C2.40166 19.4175 2.74477 20.2421 3.35401 20.8498C3.96318 21.4575 4.78887 21.7985 5.64928 21.798H6.27908Z" fill="black"/>
</svg>
