<svg width="24" height="24" viewBox="0 0 24 24" fill="none" xmlns="http://www.w3.org/2000/svg">
<path fill-rule="evenodd" clip-rule="evenodd" d="M16.1681 2.40284L16.2 2.40273C17.7559 2.40273 19.1389 3.14303 20.016 4.29062C20.1393 4.45192 20.248 4.62134 20.355 4.79774C20.4309 4.92294 20.355 5.163 20.1561 4.98494C20.1238 4.956 20.0745 4.91014 20.0202 4.85965L20.0197 4.85921C19.913 4.75994 19.7872 4.64291 19.7333 4.60125C18.9222 3.97411 17.9047 3.60095 16.8 3.60095L16.7677 3.60106H7.23227L7.2 3.60095C6.09533 3.60095 5.07783 3.97411 4.26666 4.60125C4.21277 4.64291 4.08695 4.75995 3.98023 4.85923L3.98022 4.85923C3.92576 4.90989 3.87628 4.95592 3.84387 4.98494C3.64504 5.163 3.56914 4.92294 3.64504 4.79774C3.75198 4.62134 3.8607 4.45192 3.98398 4.29062C4.86106 3.14303 6.24408 2.40273 7.8 2.40273L7.83187 2.40284L12 2.4L16.1681 2.40284ZM2.92774 7.41539C2.4 8.4458 2.4 9.79841 2.4 12.5036V13.9204C2.4 16.6087 2.4 17.9528 2.92317 18.9796C3.38336 19.8828 4.11767 20.6171 5.02085 21.0773C6.04762 21.6004 7.39175 21.6004 10.08 21.6004H13.92C16.6083 21.6004 17.9524 21.6004 18.9792 21.0773C19.8823 20.6171 20.6166 19.8828 21.0768 18.9796C21.6 17.9528 21.6 16.6087 21.6 13.9204V12.5304C21.6 9.85903 21.6 8.52335 21.0814 7.50021C20.6251 6.60015 19.8969 5.86677 19 5.40427C17.9805 4.87853 16.6449 4.86922 13.9735 4.85059L10.1335 4.82382C7.42839 4.80496 6.0758 4.79553 5.04174 5.31607C4.13224 5.7739 3.3919 6.5091 2.92774 7.41539ZM11.4 10.2C11.4 9.86864 11.6686 9.60001 12 9.60001C12.3314 9.60001 12.6 9.86864 12.6 10.2V16.2C12.6 16.5314 12.3314 16.8 12 16.8C11.6686 16.8 11.4 16.5314 11.4 16.2V10.2ZM9.6 11.4C9.26863 11.4 9 11.6686 9 12V14.4C9 14.7314 9.26863 15 9.6 15C9.93137 15 10.2 14.7314 10.2 14.4V12C10.2 11.6686 9.93137 11.4 9.6 11.4ZM14.4 11.4C14.0686 11.4 13.8 11.6686 13.8 12V14.4C13.8 14.7314 14.0686 15 14.4 15C14.7314 15 15 14.7314 15 14.4V12C15 11.6686 14.7314 11.4 14.4 11.4Z" fill="black"/>
</svg>
