<svg stroke-width= "1.5px" width="24" height="24" viewBox="0 0 24 24" fill="none" xmlns="http://www.w3.org/2000/svg">
<path fill-rule="evenodd" clip-rule="evenodd" d="M21.6596 11.2798C21.9798 11.7066 21.9798 12.2935 21.6596 12.7202L18.1027 17.4606C17.4228 18.3668 16.356 18.9 15.2232 18.9H4.49998C3.17449 18.9 2.09998 17.8255 2.09998 16.5V7.50001C2.09998 6.17452 3.17449 5.10001 4.49998 5.10001H15.2232C16.356 5.10001 17.4228 5.63326 18.1027 6.5394L21.6596 11.2798ZM8.4 12C9.39411 12 10.2 11.1941 10.2 10.2C10.2 9.20589 9.39411 8.4 8.4 8.4C7.40589 8.4 6.6 9.20589 6.6 10.2C6.6 11.1941 7.40589 12 8.4 12ZM8.40014 10.98C8.83092 10.98 9.18014 10.6308 9.18014 10.2C9.18014 9.76923 8.83092 9.42001 8.40014 9.42001C7.96936 9.42001 7.62014 9.76923 7.62014 10.2C7.62014 10.6308 7.96936 10.98 8.40014 10.98ZM15.6 13.8C15.6 14.7941 14.7941 15.6 13.8 15.6C12.8059 15.6 12 14.7941 12 13.8C12 12.8059 12.8059 12 13.8 12C14.7941 12 15.6 12.8059 15.6 13.8ZM14.5801 13.8C14.5801 14.2308 14.2309 14.58 13.8001 14.58C13.3693 14.58 13.0201 14.2308 13.0201 13.8C13.0201 13.3692 13.3693 13.02 13.8001 13.02C14.2309 13.02 14.5801 13.3692 14.5801 13.8ZM13.6178 9.29245C13.7793 9.0617 13.7232 8.7437 13.4925 8.58218C13.2617 8.42065 12.9437 8.47677 12.7822 8.70752L8.58218 14.7075C8.42065 14.9383 8.47677 15.2563 8.70752 15.4178C8.93827 15.5793 9.25627 15.5232 9.41779 15.2924L13.6178 9.29245Z" fill="black"/>
</svg>
