<svg stroke-width= "1.5px" width="24" height="24" viewBox="0 0 24 24" fill="none" xmlns="http://www.w3.org/2000/svg">
<g clip-path="url(#clip0_385_213)">
<path fill-rule="evenodd" clip-rule="evenodd" d="M20.52 5.442C20.208 4.854 19.746 4.392 19.158 4.08C18.63 3.792 18.096 3.63 16.8 3.6V3C16.8 2.664 16.536 2.4 16.2 2.4C15.87 2.4 15.6 2.664 15.6 3V3.6H8.4V3C8.4 2.664 8.136 2.4 7.8 2.4C7.47 2.4 7.2 2.664 7.2 3V3.6C5.904 3.63 5.376 3.792 4.842 4.08C4.254 4.392 3.798 4.854 3.48 5.442C3.168 6.024 3 6.606 3 8.214V16.986C3 18.588 3.168 19.17 3.48 19.758C3.798 20.346 4.254 20.802 4.842 21.12C5.43 21.432 6.012 21.6 7.614 21.6H16.386C17.994 21.6 18.576 21.432 19.158 21.12C19.746 20.802 20.208 20.346 20.52 19.758C20.832 19.17 21 18.588 21 16.986V8.214C21 6.606 20.832 6.024 20.52 5.442ZM14.526 18.12C14.292 18.354 13.914 18.354 13.68 18.12L11.634 16.074C11.586 16.038 11.538 15.99 11.502 15.936C11.508 15.93 11.508 15.93 11.502 15.93C11.484 15.894 11.466 15.858 11.448 15.822C11.418 15.75 11.4 15.678 11.4 15.6V11.4C11.4 11.064 11.67 10.8 12 10.8C12.336 10.8 12.6 11.064 12.6 11.4V15.348L14.526 17.274C14.76 17.508 14.76 17.886 14.526 18.12ZM4.206 7.8C4.224 6.828 4.32 6.42 4.542 6.006C4.74 5.628 5.034 5.34 5.412 5.136C5.826 4.914 6.228 4.818 7.2 4.8V5.4C7.2 5.73 7.47 6 7.8 6C8.136 6 8.4 5.73 8.4 5.4V4.8H15.6V5.4C15.6 5.73 15.87 6 16.2 6C16.536 6 16.8 5.73 16.8 5.4V4.8C17.772 4.818 18.18 4.914 18.594 5.136C18.972 5.34 19.26 5.628 19.464 6.006C19.686 6.42 19.782 6.828 19.8 7.8H4.206Z" fill="black"/>
</g>
<defs>
<clipPath id="clip0_385_213">
<rect width="18" height="19.2" fill="white" transform="translate(3 2.4)"/>
</clipPath>
</defs>
</svg>
