<svg stroke-width= "1.5px" width="24" height="24" viewBox="0 0 24 24" fill="none" xmlns="http://www.w3.org/2000/svg">
<path fill-rule="evenodd" clip-rule="evenodd" d="M15 2.4C15 2.06863 14.7314 1.8 14.4 1.8C14.0686 1.8 13.8 2.06863 13.8 2.4C13.8 3.39314 12.9957 4.19843 12.0029 4.2L12 4.2C7.97508 4.2 4.61135 7.03079 3.79111 10.81C3.72831 10.8034 3.66455 10.8 3.59999 10.8C2.60588 10.8 1.79999 11.6059 1.79999 12.6C1.79999 13.5941 2.60588 14.4 3.59999 14.4C3.66455 14.4 3.72831 14.3966 3.79111 14.39C4.61135 18.1692 7.97508 21 12 21C16.0249 21 19.3886 18.1692 20.2089 14.39C20.2717 14.3966 20.3354 14.4 20.4 14.4C21.3941 14.4 22.2 13.5941 22.2 12.6C22.2 11.6059 21.3941 10.8 20.4 10.8C20.3354 10.8 20.2089 10.81 20.2089 10.81C19.5978 7.99447 17.575 5.70534 14.9188 4.72098C15.5497 4.40941 16.1236 4.00008 16.6204 3.51295C16.857 3.28095 16.8608 2.90107 16.6288 2.66446C16.3968 2.42785 16.0169 2.4241 15.7803 2.65609C15.4926 2.93817 15.1736 3.18824 14.8291 3.40062C14.9398 3.08766 15 2.75087 15 2.4ZM8.7 14.4C9.52843 14.4 10.2 13.7284 10.2 12.9C10.2 12.0716 9.52843 11.4 8.7 11.4C7.87157 11.4 7.2 12.0716 7.2 12.9C7.2 13.7284 7.87157 14.4 8.7 14.4ZM15.3 14.4C16.1284 14.4 16.8 13.7284 16.8 12.9C16.8 12.0716 16.1284 11.4 15.3 11.4C14.4716 11.4 13.8 12.0716 13.8 12.9C13.8 13.7284 14.4716 14.4 15.3 14.4Z" fill="black"/>
</svg>
