<svg width="24" height="24" viewBox="0 0 24 24" fill="none" xmlns="http://www.w3.org/2000/svg">
<path fill-rule="evenodd" clip-rule="evenodd" d="M21.6 12C21.6 17.3019 17.3019 21.6 12 21.6C6.69806 21.6 2.39999 17.3019 2.39999 12C2.39999 6.69806 6.69806 2.39999 12 2.39999C17.3019 2.39999 21.6 6.69806 21.6 12ZM8.02001 11.084C8.02001 8.78247 9.82864 6.89999 12.08 6.89999C14.3314 6.89999 16.14 8.78247 16.14 11.084C16.14 11.7647 15.9192 12.4775 15.5975 13.1515C15.2744 13.8281 14.8409 14.4837 14.3944 15.0556C13.9477 15.6276 13.4827 16.1227 13.0918 16.4774C12.8968 16.6543 12.7155 16.8007 12.5605 16.9049C12.4833 16.9569 12.4071 17.0021 12.335 17.0354C12.2699 17.0655 12.1786 17.1 12.08 17.1C11.9814 17.1 11.8902 17.0655 11.825 17.0354C11.753 17.0021 11.6768 16.9569 11.5995 16.9049C11.4445 16.8007 11.2632 16.6543 11.0682 16.4774C10.6773 16.1227 10.2123 15.6276 9.76563 15.0556C9.3191 14.4837 8.88558 13.8281 8.56256 13.1515C8.24082 12.4775 8.02001 11.7647 8.02001 11.084ZM13.2751 10.9588C13.2751 11.635 12.7269 12.1831 12.0508 12.1831C11.3747 12.1831 10.8265 11.635 10.8265 10.9588C10.8265 10.2827 11.3747 9.73458 12.0508 9.73458C12.7269 9.73458 13.2751 10.2827 13.2751 10.9588Z" fill="#3AB6FF"/>
</svg>
