<svg width="24" height="24" viewBox="0 0 24 24" fill="none" xmlns="http://www.w3.org/2000/svg">
<path fill-rule="evenodd" clip-rule="evenodd" d="M20.4 11.4H18.7976L15.8538 6.3012C15.8421 6.28107 15.8299 6.26155 15.817 6.24267L18.4096 4.74578C18.8401 4.49726 18.9876 3.94682 18.7391 3.51636C18.4905 3.0859 17.9401 2.93841 17.5096 3.18694L3.33523 11.3705C3.2847 11.3997 3.23806 11.4331 3.19551 11.4699C2.73179 11.6359 2.40002 12.0792 2.40002 12.6V14.4C2.40002 15.3941 3.20591 16.2 4.20002 16.2H4.80002L5.30614 20.755C5.35959 21.2361 5.76618 21.6 6.25018 21.6C6.77476 21.6 7.20002 21.1747 7.20002 20.6501V16.2H16.8V20.6501C16.8 21.1747 17.2253 21.6 17.7499 21.6C18.2339 21.6 18.6405 21.2361 18.6939 20.755L19.2 16.2H19.8C20.7941 16.2 21.6 15.3941 21.6 14.4V12.6C21.6 11.9372 21.0628 11.4 20.4 11.4ZM6.88418 11.4H16.719L14.2949 7.2012C14.2832 7.18107 14.2725 7.16067 14.2626 7.14006L6.88418 11.4Z" fill="black"/>
</svg>
