<svg stroke-width= "1.5px" width="24" height="24" viewBox="0 0 24 24" fill="none" xmlns="http://www.w3.org/2000/svg">
<path fill-rule="evenodd" clip-rule="evenodd" d="M17.7503 16.419L17.6951 16.4004C18.5945 15.8826 19.1999 14.9118 19.1999 13.8C19.1999 12.1434 17.8565 10.8 16.1999 10.8C14.5433 10.8 13.1999 12.1434 13.1999 13.8C13.1999 14.9304 13.8251 15.915 14.7503 16.4262L14.6861 16.446C12.9791 17.0052 11.6753 18.4968 11.4065 20.3076C11.3525 20.6802 11.6345 21 12.0113 21H20.3855L20.4551 20.9964C20.7977 20.9598 21.0533 20.6574 20.9903 20.3076C20.7617 18.4698 19.4711 16.9782 17.7503 16.419Z" fill="black"/>
<path fill-rule="evenodd" clip-rule="evenodd" d="M21.1776 15.8412C21.4554 15.261 21.6726 14.526 21.6726 13.8312C21.6726 13.2726 21.5658 12.6186 21.3072 12.1218C21.1542 11.8278 20.7918 11.7132 20.4978 11.8662C20.2038 12.0192 20.0898 12.3816 20.2422 12.6756C20.3826 12.945 20.4726 13.3896 20.4726 13.8312C20.4726 14.475 20.1846 15.2454 19.8858 15.699C19.7958 15.8352 19.7658 16.002 19.8012 16.161C19.8372 16.32 19.9362 16.458 20.0754 16.542C21.1476 17.193 21.9294 18.2496 22.1118 19.6356C22.155 19.9644 22.4562 20.1954 22.785 20.1522C23.1138 20.109 23.3448 19.8078 23.3016 19.479C23.0958 17.9172 22.2882 16.677 21.1776 15.8412Z" fill="black"/>
<path fill-rule="evenodd" clip-rule="evenodd" d="M10.2192 20.1312C10.4538 18.5538 11.316 17.1588 12.5622 16.2216L12.6996 16.1208L12.627 16.008C12.252 15.4026 12.0306 14.7 12.003 13.959L12 13.8C12 11.4804 13.8804 9.6 16.2 9.6C17.5302 9.6 18.7122 10.2198 19.4814 11.1852C19.5876 11.319 19.8 11.247 19.8 11.0766V7.6152C19.8 6.012 19.6326 5.43 19.32 4.8438C19.011 4.2654 18.534 3.7884 17.9562 3.4794C17.37 3.1668 16.7874 3 15.1842 3H6.41459C4.81199 3 4.22999 3.1668 3.64379 3.4794C3.06479 3.7884 2.58839 4.2654 2.27939 4.8438C1.96619 5.43 1.79999 6.0126 1.79999 7.6152V16.3848C1.79999 17.9874 1.96619 18.57 2.27939 19.1562C2.58839 19.734 3.06479 20.211 3.64379 20.52C4.22999 20.8332 4.81199 21 6.41459 21H10.0716C10.1832 21 10.2738 20.898 10.2486 20.7894C10.2 20.5806 10.1862 20.3598 10.2192 20.1312ZM5.39939 7.2024H12.0078C12.339 7.2024 12.6078 7.4712 12.6078 7.8024C12.6078 8.1336 12.339 8.4024 12.0078 8.4024H5.39939C5.06819 8.4024 4.79939 8.1336 4.79939 7.8024C4.79939 7.4706 5.06819 7.2024 5.39939 7.2024ZM8.59979 16.8018L5.39999 16.8012C5.06879 16.8012 4.79999 16.5324 4.79999 16.2012C4.79999 15.87 5.06879 15.6012 5.39999 15.6012L8.59979 15.6018C8.93099 15.6018 9.19979 15.8706 9.19979 16.2018C9.19979 16.5336 8.93099 16.8018 8.59979 16.8018ZM9.59999 12.6042H5.39999C5.06879 12.6042 4.79999 12.3354 4.79999 12.0042C4.79999 11.673 5.06879 11.4042 5.39999 11.4042H9.59999C9.93119 11.4042 10.2 11.673 10.2 12.0042C10.2 12.3354 9.93119 12.6042 9.59999 12.6042Z" fill="black"/>
</svg>
