<svg stroke-width= "1.5px" width="24" height="24" viewBox="0 0 24 24" fill="none" xmlns="http://www.w3.org/2000/svg">
<path d="M11.6838 13.511C11.5055 13.511 11.3596 13.4745 11.2461 13.4016C11.1326 13.3286 11.0434 13.2374 10.9786 13.128C10.9137 13.0185 10.8691 12.901 10.8448 12.7753C10.8205 12.6497 10.8083 12.5342 10.8083 12.4288C10.8083 12.2099 10.8367 11.987 10.8934 11.76C10.9502 11.533 11.0353 11.3263 11.1488 11.1398C11.2623 10.9534 11.4021 10.8014 11.5683 10.6838C11.7345 10.5663 11.927 10.5075 12.1459 10.5075C12.3243 10.5075 12.4702 10.542 12.5837 10.6109C12.6972 10.6798 12.7884 10.7689 12.8573 10.8784C12.9262 10.9878 12.9748 11.1115 13.0032 11.2493C13.0316 11.3871 13.0458 11.5289 13.0458 11.6749C13.0458 11.8532 13.0214 12.0498 12.9728 12.2646C12.9242 12.4795 12.8451 12.6781 12.7357 12.8605C12.6262 13.0429 12.4864 13.1969 12.3162 13.3225C12.1459 13.4482 11.9351 13.511 11.6838 13.511Z" fill="#FF7C3A"/>
<path fill-rule="evenodd" clip-rule="evenodd" d="M12 2.39999C6.69807 2.39999 2.4 6.69806 2.4 12C2.4 17.3019 6.69807 21.6 12 21.6C17.3019 21.6 21.6 17.3019 21.6 12C21.6 6.69806 17.3019 2.39999 12 2.39999ZM12.1824 16.5389C12.9363 16.5389 13.6396 16.4213 14.2922 16.1862C14.7076 16.0366 15.2816 15.629 15.6439 15.3525C15.836 15.2059 15.8585 14.9299 15.7001 14.7474C15.5486 14.5728 15.2864 14.5481 15.1004 14.6854C14.8019 14.9056 14.3634 15.2109 14.0611 15.3411C13.5626 15.5559 12.9687 15.6633 12.2797 15.6633C11.7365 15.6633 11.24 15.5782 10.7901 15.408C10.3402 15.2377 9.95307 14.9966 9.6288 14.6845C9.30454 14.3724 9.0512 13.9934 8.8688 13.5475C8.6864 13.1016 8.5952 12.6031 8.5952 12.0518C8.5952 11.533 8.68032 11.0486 8.85056 10.5987C9.0208 10.1488 9.264 9.75764 9.58016 9.42527C9.89632 9.09289 10.2733 8.83348 10.711 8.64703C11.1488 8.46057 11.6352 8.36735 12.1702 8.36735C12.6566 8.36735 13.1066 8.43423 13.52 8.56799C13.9334 8.70175 14.2901 8.90036 14.5901 9.16383C14.89 9.42729 15.1231 9.75359 15.2893 10.1427C15.4555 10.5318 15.5386 10.9817 15.5386 11.4925C15.5386 11.7843 15.5082 12.0559 15.4474 12.3072C15.3866 12.5585 15.3035 12.7733 15.1981 12.9517C15.0927 13.13 14.965 13.2699 14.815 13.3712C14.6651 13.4725 14.5009 13.5232 14.3226 13.5232C14.1118 13.5232 13.978 13.4664 13.9213 13.3529C13.8645 13.2395 13.8362 13.1138 13.8362 12.976C13.8362 12.8544 13.8503 12.7085 13.8787 12.5382C13.9071 12.368 13.9334 12.2261 13.9578 12.1126L14.3188 10.3723C14.3772 10.0907 14.1622 9.82655 13.8746 9.82655C13.6607 9.82655 13.4758 9.97598 13.431 10.1851L13.3984 10.3373C13.3984 10.3373 13.1552 9.97855 12.9363 9.84479C12.7174 9.71103 12.454 9.64415 12.1459 9.64415C11.7811 9.64415 11.4508 9.72319 11.1549 9.88127C10.859 10.0393 10.6057 10.2461 10.3949 10.5014C10.1841 10.7568 10.022 11.0507 9.90848 11.383C9.79499 11.7154 9.73824 12.0518 9.73824 12.3923C9.73824 12.976 9.89227 13.4523 10.2003 13.8211C10.5084 14.19 10.938 14.3744 11.4893 14.3744C11.6838 14.3744 11.8602 14.348 12.0182 14.2953C12.1763 14.2427 12.3202 14.1737 12.4499 14.0886C12.5796 14.0035 12.6891 13.9103 12.7782 13.8089C12.8674 13.7076 12.9363 13.6124 12.985 13.5232H13.0458C13.0458 13.7583 13.137 13.9589 13.3194 14.1251C13.5018 14.2913 13.7632 14.3744 14.1037 14.3744C14.4198 14.3744 14.7218 14.3116 15.0096 14.1859C15.2974 14.0603 15.5507 13.8718 15.7696 13.6205C15.9885 13.3692 16.1628 13.0571 16.2925 12.6841C16.4222 12.3112 16.487 11.8816 16.487 11.3952C16.487 10.7385 16.3675 10.167 16.1283 9.68063C15.8892 9.19423 15.569 8.78889 15.1677 8.46463C14.7664 8.14036 14.3063 7.89716 13.7875 7.73503C13.2687 7.57289 12.7337 7.49183 12.1824 7.49183C11.542 7.49183 10.9401 7.60735 10.3766 7.83839C9.81323 8.06943 9.32075 8.38761 8.8992 8.79295C8.47766 9.19828 8.14528 9.67657 7.90208 10.2278C7.65888 10.7791 7.53728 11.379 7.53728 12.0275C7.53728 12.6841 7.64875 13.2901 7.87168 13.8454C8.09462 14.4007 8.40875 14.877 8.81408 15.2742C9.21942 15.6715 9.70784 15.9815 10.2794 16.2045C10.8509 16.4274 11.4852 16.5389 12.1824 16.5389Z" fill="#FF7C3A"/>
</svg>
