<svg width="24" height="24" viewBox="0 0 24 24" fill="none" xmlns="http://www.w3.org/2000/svg">
<path d="M13.8681 11.5114C14.814 10.6839 15.4114 9.46791 15.4114 8.11323C15.4114 5.62205 13.3913 3.6 10.8982 3.6C8.40496 3.6 6.38493 5.62205 6.38493 8.11323C6.38493 9.46779 6.98277 10.6837 7.92879 11.5112C5.20382 12.6175 3.23626 15.201 3.01983 18.268H3V19.5092C3 20.07 3.45464 20.5247 4.01548 20.5247H17.7808C18.3417 20.5247 18.7963 20.07 18.7963 19.5092V18.268H18.7765C18.5601 15.2013 16.5927 12.6179 13.8681 11.5114Z" fill="black"/>
<path d="M17.0716 5.8706C16.9233 5.59657 16.581 5.49464 16.307 5.64292C16.0334 5.79097 15.9313 6.13247 16.0786 6.40627L16.0789 6.40689L16.0799 6.40875L16.0882 6.42491C16.0961 6.44055 16.1085 6.46574 16.1244 6.49972C16.1563 6.56776 16.2017 6.67052 16.2519 6.80196C16.3527 7.06594 16.4707 7.43939 16.5396 7.87521C16.6774 8.7478 16.6138 9.8277 15.8722 10.8077C15.7695 10.9434 15.7336 11.1181 15.7743 11.2833C15.8151 11.4484 15.9282 11.5864 16.0822 11.6587C18.5965 12.8401 19.7259 15.2879 19.873 17.4623C19.894 17.7731 20.1631 18.0081 20.4739 17.987C20.7848 17.966 21.0197 17.697 20.9987 17.3861C20.8428 15.0813 19.7073 12.4181 17.1337 10.9356C17.7716 9.79335 17.7982 8.61178 17.6541 7.69921C17.5702 7.16824 17.4275 6.71763 17.3059 6.39924C17.2448 6.2395 17.1885 6.11151 17.1464 6.02159C17.1254 5.97659 17.1078 5.94099 17.095 5.9156L17.0794 5.8852L17.0745 5.87589L17.0728 5.87274L17.0721 5.87154L17.0716 5.8706Z" fill="black"/>
</svg>
