<svg width="24" height="24" viewBox="0 0 24 24" fill="none" xmlns="http://www.w3.org/2000/svg">
<path d="M12.6288 4.8C14.7775 4.8 16.5692 6.42986 17.1026 8.63408C16.9251 8.69764 16.7521 8.77358 16.5848 8.8612C16.0151 8.56292 15.3806 8.4 14.7204 8.4C12.2117 8.4 10.4299 10.6345 10.4299 13.0683C10.4299 14.8006 11.1494 16.254 12.4155 17.5686C12.0496 17.8469 11.6756 18.117 11.2959 18.3778C11.0107 18.5737 10.7362 18.7545 10.4797 18.9161C10.3469 18.9997 10.2346 19.0685 10.1635 19.1101C9.95917 19.23 9.70578 19.23 9.50143 19.1102C9.43034 19.0685 9.31803 18.9997 9.18522 18.9161C8.92866 18.7545 8.65419 18.5737 8.3689 18.3778C7.48298 17.7694 6.62832 17.1099 5.83441 16.4153C3.51878 14.3894 2.39999 12.3686 2.39999 10.0024C2.39999 7.139 4.46164 4.8 7.0357 4.8C8.05671 4.8 9.03312 5.17204 9.8323 5.85106C10.6316 5.17204 11.6079 4.8 12.6288 4.8Z" fill="black"/>
<path d="M16.5848 10.3007C16.7944 10.1227 17.0222 9.97629 17.2629 9.8642C17.6342 9.6913 18.0362 9.6 18.4491 9.6C20.1652 9.6 21.5396 11.1593 21.5396 13.0683C21.5396 14.6457 20.7937 15.993 19.25 17.3435C18.7208 17.8066 18.1511 18.2463 17.5605 18.6518C17.3703 18.7825 17.1874 18.903 17.0164 19.0107C16.9278 19.0665 16.853 19.1123 16.8056 19.1401C16.6694 19.22 16.5004 19.22 16.3642 19.1401C16.3168 19.1123 16.2419 19.0665 16.1534 19.0107C15.9824 18.903 15.7994 18.7825 15.6092 18.6519C15.0186 18.2463 14.4488 17.8066 13.9195 17.3436C13.7193 17.1684 13.5324 16.9932 13.3589 16.8176C12.1948 15.6396 11.6299 14.4411 11.6299 13.0683C11.6299 11.1593 13.0043 9.6 14.7204 9.6C15.4011 9.6 16.052 9.84803 16.5848 10.3007Z" fill="black"/>
</svg>
