<svg width="24" height="24" viewBox="0 0 24 24" fill="none" xmlns="http://www.w3.org/2000/svg">
<path fill-rule="evenodd" clip-rule="evenodd" d="M12.4974 9.40458C10.1811 4.02217 3.69099 6.05643 3.3114 10.4689C2.93181 14.8814 7.35767 15.5144 6.82019 20.1378C13.2467 20.6502 20.3899 17.945 20.0785 12.7773C19.7671 7.60957 14.2685 7.60957 12.4974 9.40458Z" fill="black"/>
<path d="M22.1973 10.9408C22.3453 11.462 22.44 12.0242 22.4798 12.6263C22.5767 14.0938 22.2165 15.4595 21.4393 16.6822C21.2615 16.9618 20.8907 17.0444 20.6111 16.8666C20.3314 16.6889 20.2488 16.318 20.4266 16.0384C21.0687 15.0283 21.3622 13.9151 21.2824 12.7053C21.2481 12.1858 21.1673 11.7068 21.0429 11.2684C20.9524 10.9496 21.1375 10.6179 21.4563 10.5274C21.7751 10.4369 22.1069 10.622 22.1973 10.9408ZM5.34275 5.11379C5.50167 5.40456 5.39478 5.76912 5.10401 5.92804C3.72433 6.6821 2.75105 7.97627 2.48302 9.50028C2.42563 9.82664 2.11453 10.0447 1.78817 9.98728C1.4618 9.92989 1.24376 9.61879 1.30116 9.29243C1.63416 7.39899 2.83704 5.79951 4.5285 4.87505C4.81927 4.71613 5.18382 4.82301 5.34275 5.11379Z" fill="black"/>
</svg>
