<svg stroke-width= "1.5px" width="24" height="24" viewBox="0 0 24 24" fill="none" xmlns="http://www.w3.org/2000/svg">
<path fill-rule="evenodd" clip-rule="evenodd" d="M21.9 3H17.394C14.43 3 13.38 4.506 13.2 6.162L13.182 6.054C13.056 5.148 12.666 4.296 11.832 3.726C11.832 3.726 11.832 3.726 11.826 3.72C11.178 3.276 10.266 3 8.99999 3H4.49999C4.33199 3 4.19999 3.132 4.19999 3.3V3.6V4.8C4.19999 4.944 4.20599 5.082 4.22399 5.22C4.23599 5.364 4.25399 5.502 4.28399 5.64C4.30799 5.76 4.33199 5.88 4.36799 5.994C4.59599 6.816 5.05799 7.542 5.66999 8.1C5.80559 8.2236 5.95079 8.3364 6.10139 8.4426C6.15179 8.478 6.20459 8.5092 6.25619 8.5422C6.36659 8.613 6.47939 8.6796 6.59639 8.7402C6.62219 8.7534 6.64559 8.7708 6.67199 8.784C6.69359 8.7942 6.71699 8.8002 6.73859 8.8098C6.93959 8.9052 7.14539 8.991 7.36199 9.054C7.46999 9.09 7.58399 9.12 7.69199 9.144C7.71599 9.15 7.73399 9.15 7.75199 9.156C8.05799 9.222 8.37599 9.258 8.69999 9.258C9.52199 9.258 10.194 9.93 10.194 10.758V14.4C10.194 14.73 9.92399 15 9.59399 15C9.26399 15 8.99399 14.73 8.99399 14.4V10.758C8.99399 10.59 8.86199 10.458 8.69999 10.458C7.10999 10.458 5.67599 9.81 4.63799 8.76C2.90399 10.08 1.79999 12.114 1.79999 14.4C1.79999 18.372 5.15399 21.6 9.29999 21.6C13.23 21.6 16.458 18.69 16.776 14.994L16.8 15V10.854C16.8 10.002 17.49 9.306 18.348 9.306C20.472 9.306 22.2 7.584 22.2 5.454V3.3C22.2 3.132 22.062 3 21.9 3Z" fill="black"/>
</svg>
