<svg width="24" height="24" viewBox="0 0 24 24" fill="none" xmlns="http://www.w3.org/2000/svg">
<path fill-rule="evenodd" clip-rule="evenodd" d="M10.0065 4.01633C8.6241 3.46145 7.07055 3.46101 5.68635 4.01633C4.30216 4.57165 3 5.42618 3 6.62137V18.8132C3 19.8127 3.74701 20.3184 4.66951 19.9482L4.99351 19.8182C6.3759 19.2633 8.6223 19.2628 10.0065 19.8182L11.5046 20.4193C11.8225 20.5469 12.1775 20.547 12.4954 20.4193L13.9935 19.8182C15.3759 19.2633 17.6223 19.2628 19.0065 19.8182L19.3305 19.9482C20.2516 20.318 21 19.81 21 18.8132V6.62139C21 5.42618 19.696 4.57121 18.3136 4.01633C16.9312 3.46145 15.3777 3.46101 13.9935 4.01633L12 4.81636L10.0065 4.01633ZM12.5566 7.82385C12.0053 7.97719 11.6245 8.48014 11.6265 9.05237L11.6322 10.6941L11.6372 10.6927V12.5026C11.3643 12.3729 11.059 12.3003 10.7367 12.3003C9.57692 12.3003 8.63672 13.2405 8.63672 14.4003C8.63672 15.5601 9.57692 16.5003 10.7367 16.5003C11.8869 16.5003 12.8211 15.5756 12.8365 14.4291C12.837 14.4195 12.8372 14.4099 12.8372 14.4003V10.314C13.7644 9.88004 14.4448 9.05096 14.6948 8.06703C14.714 7.99158 14.7306 7.91519 14.7447 7.83803L14.7503 7.80612C14.7788 7.6403 14.7953 7.47086 14.7989 7.29887L14.7989 7.29782C14.7994 7.27423 14.7996 7.2506 14.7996 7.22691C14.7996 7.21338 14.7867 7.20358 14.7737 7.20721L12.5566 7.82385Z" fill="black"/>
</svg>
