<svg width="24" height="24" viewBox="0 0 24 24" fill="none" xmlns="http://www.w3.org/2000/svg">
<path fill-rule="evenodd" clip-rule="evenodd" d="M12.0497 1.8002L12 1.8C8.68629 1.8 6 4.48629 6 7.8V12.24C6 14.2562 6 15.2643 6.39238 16.0344C6.73752 16.7117 7.28825 17.2625 7.96563 17.6076C8.55546 17.9082 9.28491 17.9785 10.5 17.995V20.7C10.5 21.5284 11.1716 22.2 12 22.2C12.8284 22.2 13.5 21.5284 13.5 20.7V17.995C14.7151 17.9785 15.4445 17.9082 16.0344 17.6076C16.7117 17.2625 17.2625 16.7117 17.6076 16.0344C18 15.2643 18 14.2562 18 12.24V7.8C18 7.00146 17.844 6.23935 17.5608 5.54249C17.4847 5.29848 17.257 5.12135 16.9879 5.12135C16.8934 5.12135 16.8039 5.14322 16.7244 5.18219C16.3771 5.32265 15.9976 5.4 15.6 5.4C13.9567 5.4 12.622 4.07876 12.6003 2.44064C12.6011 2.42781 12.6015 2.41486 12.6015 2.40182C12.6015 2.08648 12.3583 1.82797 12.0492 1.80368L12.0497 1.8002ZM10.4462 5.167C10.7502 5.03516 10.8898 4.68183 10.758 4.37781C10.6261 4.0738 10.2728 3.93422 9.96877 4.06606C8.69376 4.61898 7.8 5.88952 7.8 7.37016V10.446C7.8 10.7773 8.06863 11.046 8.4 11.046C8.73137 11.046 9 10.7773 9 10.446V7.37016C9 6.38463 9.59413 5.53651 10.4462 5.167Z" fill="black"/>
</svg>
