<svg stroke-width= "1.5px" width="24" height="24" viewBox="0 0 24 24" fill="none" xmlns="http://www.w3.org/2000/svg">
<path d="M9.8739 11.1976L11.8481 11.8683C11.9829 11.9141 12.0888 12.0199 12.1346 12.1547L12.8052 14.1289C12.8084 14.1382 12.8144 14.1463 12.8225 14.1519C12.8434 14.1663 12.8719 14.1611 12.8863 14.1402L13.9897 12.5426C14.0794 12.4128 14.2297 12.3382 14.3873 12.3453L16.3949 12.4357C16.4056 12.4362 16.4162 12.4329 16.4247 12.4264C16.4449 12.4111 16.4488 12.3823 16.4335 12.3622L15.1642 10.6926C15.0746 10.5747 15.0475 10.4209 15.0913 10.2795L15.6809 8.37926C15.6836 8.37042 15.6836 8.36095 15.6809 8.35211C15.6734 8.32794 15.6477 8.31443 15.6236 8.32192L13.7233 8.91147C13.5819 8.95533 13.4281 8.9282 13.3102 8.83862L11.6406 7.56936C11.6321 7.56287 11.6216 7.55958 11.6108 7.56006C11.5856 7.5612 11.566 7.58261 11.5671 7.60789L11.6575 9.61549C11.6646 9.77316 11.5901 9.92339 11.4602 10.0131L9.8626 11.1165C9.8545 11.1221 9.84842 11.1302 9.84525 11.1395C9.83711 11.1635 9.84994 11.1895 9.8739 11.1976Z" fill="black"/>
<path fill-rule="evenodd" clip-rule="evenodd" d="M12 2.40003C6.69804 2.40003 2.39997 6.6981 2.39997 12C2.39997 17.302 6.69804 21.6 12 21.6C17.3019 21.6 21.6 17.302 21.6 12C21.6 6.6981 17.3019 2.40003 12 2.40003ZM15.5883 17.4897C15.5538 17.5958 15.4037 17.5957 15.3692 17.4896L15.113 16.7012L14.3349 16.4354C14.231 16.3999 14.231 16.2529 14.3349 16.2174L15.113 15.9516L15.3692 15.1631C15.4037 15.057 15.5538 15.057 15.5883 15.163L15.8452 15.9516L16.6731 16.2167C16.7799 16.2508 16.7799 16.4019 16.6731 16.4361L15.8452 16.7012L15.5883 17.4897ZM7.04893 13.5836C7.06617 13.6367 7.1412 13.6367 7.15847 13.5837L7.39682 12.8518L8.16199 12.6068C8.21537 12.5897 8.21537 12.5142 8.16199 12.4971L7.39682 12.2521L7.15847 11.5203C7.1412 11.4673 7.06617 11.4673 7.04893 11.5203L6.81107 12.2521L6.09288 12.4975C6.04091 12.5152 6.04091 12.5887 6.09288 12.6065L6.81107 12.8518L7.04893 13.5836ZM9.48792 12.3339L10.4804 12.671L7.35817 15.7933C7.12385 16.0276 7.12385 16.4075 7.35817 16.6418C7.59248 16.8761 7.97238 16.8761 8.20669 16.6418L11.3304 13.5181L11.669 14.5149C11.755 14.7683 11.9204 14.9872 12.1406 15.1393C12.7067 15.5303 13.4826 15.3883 13.8737 14.8222L14.7437 13.5626L16.341 13.6345C16.6322 13.6476 16.9188 13.5581 17.1509 13.3817C17.6987 12.9653 17.8052 12.1837 17.3888 11.636L16.3506 10.2704L16.827 8.73483C16.9016 8.49439 16.9016 8.23698 16.827 7.99653C16.6231 7.33939 15.9251 6.97194 15.268 7.17582L13.7325 7.6522L12.3669 6.61406C12.1348 6.43762 11.8481 6.34816 11.5569 6.36128C10.8695 6.39222 10.3374 6.97451 10.3684 7.66186L10.4403 9.25914L9.18062 10.1292C8.96045 10.2812 8.79509 10.5002 8.70902 10.7535C8.48772 11.405 8.83643 12.1125 9.48792 12.3339Z" fill="black"/>
</svg>
