<svg stroke-width= "1.5px" width="24" height="24" viewBox="0 0 24 24" fill="none" xmlns="http://www.w3.org/2000/svg">
<path d="M14.4 4.8C14.4 6.12548 13.3255 7.2 12 7.2C10.6745 7.2 9.6 6.12548 9.6 4.8C9.6 3.47452 10.6745 2.4 12 2.4C13.3255 2.4 14.4 3.47452 14.4 4.8Z" fill="black"/>
<path d="M7.8 12C7.8 13.3255 6.72548 14.4 5.4 14.4C4.07452 14.4 3 13.3255 3 12C3 10.6745 4.07452 9.6 5.4 9.6C6.72548 9.6 7.8 10.6745 7.8 12Z" fill="black"/>
<path d="M18.6 21.6C19.9255 21.6 21 20.5255 21 19.2C21 17.8745 19.9255 16.8 18.6 16.8C17.2745 16.8 16.2 17.8745 16.2 19.2C16.2 20.5255 17.2745 21.6 18.6 21.6Z" fill="black"/>
<path d="M20.7 4.8C20.7 5.9598 19.7598 6.9 18.6 6.9C17.4402 6.9 16.5 5.9598 16.5 4.8C16.5 3.6402 17.4402 2.7 18.6 2.7C19.7598 2.7 20.7 3.6402 20.7 4.8Z" fill="black"/>
<path d="M18.6 13.2C19.2627 13.2 19.8 12.6627 19.8 12C19.8 11.3373 19.2627 10.8 18.6 10.8C17.9373 10.8 17.4 11.3373 17.4 12C17.4 12.6627 17.9373 13.2 18.6 13.2Z" fill="black"/>
<path d="M6.6 4.8C6.6 5.46274 6.06274 6 5.4 6C4.73726 6 4.2 5.46274 4.2 4.8C4.2 4.13726 4.73726 3.6 5.4 3.6C6.06274 3.6 6.6 4.13726 6.6 4.8Z" fill="black"/>
<path d="M5.4 20.4C6.06274 20.4 6.6 19.8627 6.6 19.2C6.6 18.5373 6.06274 18 5.4 18C4.73726 18 4.2 18.5373 4.2 19.2C4.2 19.8627 4.73726 20.4 5.4 20.4Z" fill="black"/>
<path d="M14.1 19.2C14.1 20.3598 13.1598 21.3 12 21.3C10.8402 21.3 9.9 20.3598 9.9 19.2C9.9 18.0402 10.8402 17.1 12 17.1C13.1598 17.1 14.1 18.0402 14.1 19.2Z" fill="black"/>
<path d="M12 13.8C12.9941 13.8 13.8 12.9941 13.8 12C13.8 11.0059 12.9941 10.2 12 10.2C11.0059 10.2 10.2 11.0059 10.2 12C10.2 12.9941 11.0059 13.8 12 13.8Z" fill="black"/>
</svg>
