<svg stroke-width= "1.5px" width="24" height="24" viewBox="0 0 24 24" fill="none" xmlns="http://www.w3.org/2000/svg">
<path fill-rule="evenodd" clip-rule="evenodd" d="M12 21.6C17.302 21.6 21.6 17.3019 21.6 12C21.6 6.69807 17.302 2.4 12 2.4C6.69809 2.4 2.40002 6.69807 2.40002 12C2.40002 17.3019 6.69809 21.6 12 21.6ZM11.2188 10.1196V9.3048H12.8988V8.2044H13.7724V9.3048H15.5112V10.1196H13.7724V11.2032H15.8472V12.0264H13.7724V14.706H14.6964V12.6396H15.5196V15.8568H14.6964V15.5292H11.9664V15.8484H11.1432V12.6396H11.9664V14.706H12.8988V12.0264H10.9584V11.2032H12.8988V10.1196H11.2188ZM8.36282 15.8904V8.3808H10.8996V9.0528C10.6812 9.7668 10.4292 10.5144 10.1436 11.304C10.5972 12.0852 10.8408 12.7572 10.8828 13.3284C10.8828 13.7316 10.8072 14.0256 10.6644 14.202C10.4292 14.4204 10.0344 14.5296 9.48002 14.538L9.21123 13.6728C9.39602 13.698 9.54722 13.7148 9.66482 13.7148C9.80762 13.698 9.90002 13.6644 9.95042 13.614C9.99242 13.5636 10.0176 13.4628 10.0176 13.3284C10.0176 12.7656 9.76562 12.1356 9.27842 11.4384C9.59762 10.6068 9.84963 9.8592 10.0344 9.1872H9.20282V15.8904H8.36282Z" fill="black"/>
</svg>
