<svg stroke-width= "1.5px" width="24" height="24" viewBox="0 0 24 24" fill="none" xmlns="http://www.w3.org/2000/svg">
<path fill-rule="evenodd" clip-rule="evenodd" d="M12 21.6C17.3019 21.6 21.6 17.3019 21.6 12C21.6 6.69806 17.3019 2.39999 12 2.39999C6.69806 2.39999 2.39999 6.69806 2.39999 12C2.39999 17.3019 6.69806 21.6 12 21.6ZM7.82999 7.79999C7.48205 7.79999 7.19999 8.08206 7.19999 8.42999C7.19999 8.77793 7.48205 9.05999 7.82999 9.05999H8.13463L12.06 17.16C12.06 17.16 12.1509 17.3579 12.3833 17.3579C12.6157 17.3579 12.6987 17.16 12.6987 17.16L15.9522 8.52H16.56C16.7588 8.52 16.92 8.35883 16.92 8.16C16.92 7.96118 16.7588 7.8 16.56 7.8H14.94C14.7412 7.8 14.58 7.96118 14.58 8.16C14.58 8.35883 14.7412 8.52 14.94 8.52H15.3139L12.9542 14.8253L10.5568 9.05999H10.71C11.0579 9.05999 11.34 8.77793 11.34 8.42999C11.34 8.08206 11.0579 7.79999 10.71 7.79999H7.82999Z" fill="#FF3A3A"/>
</svg>
