<svg stroke-width= "1.5px" width="24" height="24" viewBox="0 0 24 24" fill="none" xmlns="http://www.w3.org/2000/svg">
<path fill-rule="evenodd" clip-rule="evenodd" d="M21 12C21 16.9706 16.9706 21 12 21C7.02944 21 3 16.9706 3 12C3 7.02944 7.02944 3 12 3C16.9706 3 21 7.02944 21 12ZM9 12C9 12.6627 8.46274 13.2 7.8 13.2C7.13726 13.2 6.6 12.6627 6.6 12C6.6 11.3373 7.13726 10.8 7.8 10.8C8.46274 10.8 9 11.3373 9 12ZM16.2 13.2C16.8627 13.2 17.4 12.6627 17.4 12C17.4 11.3373 16.8627 10.8 16.2 10.8C15.5373 10.8 15 11.3373 15 12C15 12.6627 15.5373 13.2 16.2 13.2ZM12 13.2C12.6627 13.2 13.2 12.6627 13.2 12C13.2 11.3373 12.6627 10.8 12 10.8C11.3373 10.8 10.8 11.3373 10.8 12C10.8 12.6627 11.3373 13.2 12 13.2Z" fill="black"/>
</svg>
