<svg stroke-width= "1.5px" width="24" height="24" viewBox="0 0 24 24" fill="none" xmlns="http://www.w3.org/2000/svg">
<path d="M21.5268 7.37279C21.3786 6.91619 21.0204 6.55799 20.5638 6.40979C20.3382 6.33659 20.0586 6.33659 19.5006 6.33659H17.0616C17.1768 6.21239 17.2782 6.07979 17.3664 5.94119L17.3688 5.93759C18.0258 4.89419 17.9004 3.49919 16.992 2.59079C16.0836 1.68239 14.6886 1.55639 13.6452 2.21399L13.6416 2.21639C13.4754 2.32139 13.3182 2.44619 13.1736 2.59079C13.029 2.73539 12.9042 2.89259 12.7986 3.05879L12.7962 3.06239L12.7956 3.06179L12.7776 3.09239C12.744 3.14699 12.7128 3.20279 12.684 3.25919C12.4062 3.76799 12.195 4.30739 12.0528 4.86419C12.0426 4.90499 12.0324 4.94519 12.0228 4.98599C12.0132 4.94579 12.0036 4.90559 11.9934 4.86539C11.853 4.31339 11.6442 3.77879 11.3712 3.27359C11.3394 3.21119 11.3052 3.14999 11.268 3.08939L11.2518 3.06119H11.2512L11.2488 3.05759C11.1438 2.89139 11.019 2.73419 10.8738 2.58959C10.7292 2.44499 10.572 2.32019 10.4058 2.21519L10.401 2.21399C9.35762 1.55639 7.96262 1.68239 7.05422 2.59079C6.14582 3.49919 6.02042 4.89419 6.67742 5.93759L6.67982 5.94119C6.76742 6.07979 6.86882 6.21239 6.98402 6.33659H4.50002C3.94142 6.33659 3.66242 6.33659 3.43622 6.40979C2.97962 6.55799 2.62202 6.91619 2.47322 7.37279C2.40002 7.59899 2.40002 7.87799 2.40002 8.43659C2.40002 8.99519 2.40002 9.27419 2.47322 9.49979C2.62142 9.95639 2.97962 10.3146 3.43622 10.4628C3.66242 10.536 3.94142 10.536 4.50002 10.536H19.5C20.0586 10.536 20.3376 10.536 20.5632 10.4628C21.0198 10.3146 21.378 9.95639 21.5262 9.49979C21.6 9.27419 21.6 8.99459 21.6 8.43659C21.6 7.87859 21.6 7.59899 21.5268 7.37279ZM8.58482 5.31899L8.56742 5.30939L8.55002 5.30039C8.53142 5.29079 8.51342 5.28059 8.49542 5.26979L8.49062 5.26679L8.48582 5.26379C8.43122 5.22899 8.37782 5.18759 8.32742 5.13719C7.97582 4.78559 7.97582 4.21559 8.32742 3.86459C8.67902 3.51299 9.24902 3.51299 9.60002 3.86459C9.65042 3.91499 9.69242 3.96839 9.72662 4.02299L9.72962 4.02779L9.73262 4.03259C9.74462 4.05239 9.75602 4.07279 9.76622 4.09319L9.77642 4.11239L9.78662 4.13159C10.0854 4.68419 10.2792 5.28419 10.362 5.90159C9.74162 5.81699 9.13862 5.62079 8.58482 5.31899ZM15.7182 5.13659C15.6678 5.18699 15.6144 5.22899 15.5598 5.26319L15.555 5.26619L15.5502 5.26919C15.5304 5.28119 15.5106 5.29259 15.4896 5.30279L15.4704 5.31299L15.4512 5.32319C14.8986 5.62199 14.2986 5.81579 13.6812 5.89859C13.764 5.27819 13.9602 4.67519 14.2626 4.12139L14.2722 4.10399L14.2812 4.08659C14.2908 4.06799 14.301 4.04999 14.3118 4.03199L14.3148 4.02719L14.3178 4.02239C14.352 3.96779 14.394 3.91439 14.4444 3.86399C14.796 3.51239 15.366 3.51239 15.717 3.86399C16.0692 4.21499 16.0692 4.78499 15.7182 5.13659Z" fill="black"/>
<path d="M20.0724 11.802C19.944 11.7366 19.776 11.7366 19.44 11.7366H4.55998C4.22398 11.7366 4.05598 11.7366 3.92758 11.802C3.81478 11.8596 3.72298 11.9514 3.66538 12.0642C3.59998 12.1926 3.59998 12.3606 3.59998 12.6966V17.1366C3.59998 18.8166 3.59998 19.6566 3.92698 20.2986C4.21438 20.8632 4.67338 21.3222 5.23798 21.6096C5.87998 21.9366 6.71998 21.9366 8.39998 21.9366H15.6C17.28 21.9366 18.12 21.9366 18.762 21.6096C19.3266 21.3222 19.7856 20.8632 20.073 20.2986C20.4 19.6566 20.4 18.8166 20.4 17.1366V12.6966C20.4 12.3606 20.4 12.1926 20.3346 12.0642C20.277 11.9508 20.1852 11.8596 20.0724 11.802Z" fill="black"/>
</svg>
