<svg width="24" height="24" viewBox="0 0 24 24" fill="none" xmlns="http://www.w3.org/2000/svg">
<path d="M7.68 4.8C6.75216 4.8 6 5.44471 6 6.24V17.76C6 18.5553 6.75216 19.2 7.68 19.2H8.445C9.37284 19.2 10.125 18.5553 10.125 17.76V6.24C10.125 5.44471 9.37284 4.8 8.445 4.8H7.68Z" fill="black"/>
<path d="M15.555 4.8C14.6272 4.8 13.875 5.44471 13.875 6.24V17.76C13.875 18.5553 14.6272 19.2 15.555 19.2H16.32C17.2478 19.2 18 18.5553 18 17.76V6.24C18 5.44471 17.2478 4.8 16.32 4.8H15.555Z" fill="black"/>
</svg>
