<svg width="24" height="24" viewBox="0 0 24 24" fill="none" xmlns="http://www.w3.org/2000/svg">
<path fill-rule="evenodd" clip-rule="evenodd" d="M11.2843 3.82203V5.18678C9.26953 5.31275 7.40325 5.94263 5.79147 6.95044C5.77026 6.90845 5.72785 6.86646 5.68543 6.82447L5.68543 6.82446L4.68867 5.83765C4.39176 5.54371 3.9464 5.48072 3.60708 5.71168C3.14051 6.02662 3.0981 6.6565 3.45863 7.03442L4.39176 7.95825C3.07689 9.07104 2.01651 10.4778 1.29545 12.0735C1.1682 12.3464 1.1682 12.6404 1.29545 12.8923C3.11931 16.9655 7.23359 19.8 12.0053 19.8C16.777 19.8 20.8913 16.9655 22.7152 12.8923C22.7788 12.7663 22.8 12.6194 22.8 12.4934C22.8 12.3464 22.7788 12.2204 22.7152 12.0945C22.0153 10.5618 20.9974 9.19701 19.7461 8.08422C19.7567 8.07373 19.7673 8.06848 19.7779 8.06323C19.7885 8.05798 19.7991 8.05273 19.8097 8.04223L20.8065 7.05542C21.1034 6.76148 21.167 6.32056 20.9337 5.98462C20.6156 5.52271 19.9794 5.48072 19.6189 5.83765L18.6221 6.82446C18.5585 6.88745 18.4949 6.97144 18.4524 7.07642C16.8619 6.04761 15.0168 5.37574 13.0233 5.22877V3.88502C13.0233 3.44411 12.7052 3.04518 12.2598 3.00319H12.175C11.666 2.9612 11.2843 3.33913 11.2843 3.82203ZM16.2 12.3C16.2 14.6196 14.3196 16.5 12 16.5C9.6804 16.5 7.8 14.6196 7.8 12.3C7.8 9.9804 9.6804 8.1 12 8.1C14.3196 8.1 16.2 9.9804 16.2 12.3ZM15 12.3C15 13.9568 13.6569 15.3 12 15.3C10.3432 15.3 9.00001 13.9568 9.00001 12.3C9.00001 10.6431 10.3432 9.29999 12 9.29999C13.6569 9.29999 15 10.6431 15 12.3Z" fill="black"/>
</svg>
