<svg width="24" height="24" viewBox="0 0 24 24" fill="none" xmlns="http://www.w3.org/2000/svg">
<path fill-rule="evenodd" clip-rule="evenodd" d="M10.6607 14.9717C10.5363 15.2055 10.2616 15.3179 10.0462 15.2205C9.83465 15.1246 9.7683 14.863 9.88871 14.6332C10.0125 14.4046 10.2765 14.2931 10.4876 14.3853C10.7021 14.4716 10.7793 14.7361 10.6607 14.9717ZM9.38213 16.4497C9.07794 16.9914 8.42658 17.2288 7.93584 16.9786C7.45223 16.7329 7.30944 16.1039 7.61383 15.5757C7.91425 15.0498 8.54382 14.8154 9.031 15.0433C9.52373 15.2776 9.68097 15.9028 9.38213 16.4497ZM10.8019 12.6416C9.25182 12.2381 7.49976 13.0112 6.82642 14.3778C6.14061 15.7716 6.80364 17.3188 8.36994 17.8246C9.99229 18.3481 11.9044 17.5459 12.5692 16.0414C13.2249 14.5709 12.4062 13.0566 10.8019 12.6416ZM10.3705 18.7128C7.18566 19.0334 4.43627 17.5651 4.22932 15.4325C4.02237 13.3005 6.43747 11.3119 9.62215 10.9907C12.8074 10.6696 15.5568 12.1378 15.7634 14.2695C15.9699 16.4027 13.5558 18.3914 10.3705 18.7128ZM16.9801 11.5754C16.7066 11.4927 16.5193 11.4364 16.6627 11.0743C16.9726 10.2877 17.0047 9.60901 16.6684 9.12503C16.0385 8.21679 14.3145 8.26601 12.3385 9.10062C12.3385 9.09941 11.718 9.37438 11.8764 8.87789C12.1804 7.89218 12.1347 7.06645 11.6616 6.58994C10.5896 5.50759 7.73859 6.63069 5.29379 9.09618C3.4631 10.9435 2.40002 12.901 2.40002 14.5937C2.40002 17.8316 6.51589 19.8 10.5426 19.8C15.8214 19.8 19.3327 16.7063 19.3327 14.2499C19.3327 12.7659 18.0935 11.9236 16.9801 11.5754ZM20.3543 5.84329C19.0752 4.42403 17.2095 3.93259 15.4677 4.33607C15.0647 4.33607 14.807 4.73653 14.8934 5.13921C14.9793 5.54209 15.3756 5.75815 15.7786 5.67221C17.0178 5.40894 18.3541 5.77349 19.2635 6.78179C20.1721 7.7899 20.4217 9.1446 20.0256 10.3502C19.8276 10.743 20.0967 11.1632 20.4896 11.2901C20.8807 11.417 21.2138 11.2026 21.4119 10.8108V10.808C21.808 9.11212 21.6341 7.26154 20.3543 5.84329ZM18.1003 10.4821C18.4389 10.5875 18.8021 10.3637 18.9114 10.0345C19.179 9.23054 19.0114 8.29163 18.3854 7.61862C17.7608 6.94561 16.8381 6.6789 15.9866 6.85462C15.6386 6.92664 15.3215 7.25367 15.3962 7.59199C15.4705 7.9289 15.8668 8.13972 16.0648 8.06649V8.06709C16.6589 7.98176 17.0277 8.195 17.333 8.52343C17.6388 8.85247 17.8163 9.37963 17.6852 9.78311C17.576 9.98485 17.7618 10.3758 18.1003 10.4821Z" fill="#FF3A3A"/>
</svg>
