<svg width="24" height="24" viewBox="0 0 24 24" fill="none" xmlns="http://www.w3.org/2000/svg">
<path fill-rule="evenodd" clip-rule="evenodd" d="M14.8882 11.4397C14.6198 12.0417 14.2492 12.5858 13.7993 13.0487C16.7296 13.7775 18.75 15.3177 18.75 17.1C18.75 19.5853 14.8213 21.6 9.975 21.6C5.1287 21.6 1.2 19.5853 1.2 17.1C1.2 15.3177 3.2204 13.7775 6.15073 13.0487C5.17698 12.0469 4.575 10.6648 4.575 9.13846C4.575 6.07965 6.99266 3.6 9.975 3.6C11.6085 3.6 13.0727 4.34394 14.0629 5.5195C13.4916 6.21735 13.1475 7.11747 13.1475 8.1C13.1475 9.49251 13.8386 10.7195 14.8882 11.4397ZM8.32417 9.5765C8.18724 9.36454 7.90871 9.30657 7.70205 9.44701C7.49539 9.58745 7.43886 9.87312 7.57579 10.0851C7.93873 10.6469 8.61018 11.3862 9.487 11.6098C9.94128 11.7256 10.4388 11.6987 10.9438 11.451C11.4409 11.2072 11.9179 10.7633 12.3694 10.0923C12.5102 9.88304 12.459 9.59632 12.255 9.45189C12.0509 9.30746 11.7714 9.36002 11.6306 9.56928C11.2383 10.1521 10.8715 10.4658 10.5565 10.6203C10.2495 10.7709 9.96649 10.7832 9.70358 10.7162C9.14603 10.5741 8.63623 10.0596 8.32417 9.5765Z" fill="black"/>
<path fill-rule="evenodd" clip-rule="evenodd" d="M14.025 8.1C14.025 7.41916 14.2379 6.78933 14.5992 6.27675C15.151 5.49396 16.0488 4.98461 17.0625 4.98461H19.7625C21.4401 4.98461 22.8 6.37942 22.8 8.1C22.8 9.82058 21.4401 11.2154 19.7625 11.2154H17.0625C16.3588 11.2154 15.711 10.9699 15.196 10.558C14.4833 9.98787 14.025 9.09883 14.025 8.1ZM20.5387 7.75384C20.2964 7.75384 20.1 7.95532 20.1 8.20385V9.38077C20.1 9.6293 20.2964 9.83077 20.5387 9.83077C20.7811 9.83077 20.9775 9.6293 20.9775 9.38077V8.20384C20.9775 7.95532 20.7811 7.75384 20.5387 7.75384ZM20.1 6.71538C20.1 6.90656 20.2511 7.06154 20.4375 7.06154H20.64C20.8264 7.06154 20.9775 6.90656 20.9775 6.71538C20.9775 6.52421 20.8264 6.36923 20.64 6.36923H20.4375C20.2511 6.36923 20.1 6.52421 20.1 6.71538ZM16.4887 6.36923C16.2464 6.36923 16.05 6.5707 16.05 6.81923V9.38077C16.05 9.6293 16.2464 9.83077 16.4887 9.83077C16.7311 9.83077 16.9275 9.6293 16.9275 9.38077V8.54998H18.075V9.38077C18.075 9.6293 18.2714 9.83077 18.5137 9.83077C18.7561 9.83077 18.9525 9.6293 18.9525 9.38077V6.81923C18.9525 6.5707 18.7561 6.36923 18.5137 6.36923C18.2714 6.36923 18.075 6.5707 18.075 6.81923V7.64998H16.9275V6.81923C16.9275 6.5707 16.7311 6.36923 16.4887 6.36923Z" fill="black"/>
</svg>
