<svg stroke-width= "1.5px" width="24" height="24" viewBox="0 0 24 24" fill="none" xmlns="http://www.w3.org/2000/svg">
<path d="M16.1681 2.40283L16.2 2.40272C17.7559 2.40272 19.139 3.14303 20.016 4.29061C20.1393 4.45191 20.248 4.62134 20.355 4.79773C20.4309 4.92293 20.355 5.16299 20.1561 4.98494C20.1238 4.95599 20.0745 4.91013 20.0202 4.85964L20.0198 4.8592C19.9131 4.75993 19.7872 4.6429 19.7334 4.60124C18.9222 3.9741 17.9047 3.60094 16.8 3.60094L16.7678 3.60105H7.23229L7.20002 3.60094C6.09536 3.60094 5.07785 3.9741 4.26668 4.60124C4.21279 4.6429 4.08697 4.75995 3.98025 4.85922C3.92579 4.90988 3.8763 4.95591 3.84389 4.98494C3.64507 5.16299 3.56917 4.92293 3.64507 4.79773C3.75201 4.62134 3.86072 4.45191 3.984 4.29061C4.86109 3.14303 6.2441 2.40272 7.80002 2.40272L7.83189 2.40283L12 2.39999L16.1681 2.40283Z" fill="black"/>
<path fill-rule="evenodd" clip-rule="evenodd" d="M2.92776 7.41538C2.40002 8.44579 2.40002 9.7984 2.40002 12.5036V13.9204C2.40002 16.6087 2.40002 17.9528 2.92319 18.9796C3.38339 19.8828 4.11769 20.6171 5.02087 21.0773C6.04765 21.6004 7.39177 21.6004 10.08 21.6004H13.92C16.6083 21.6004 17.9524 21.6004 18.9792 21.0773C19.8824 20.6171 20.6167 19.8828 21.0769 18.9796C21.6 17.9528 21.6 16.6087 21.6 13.9204V12.5304C21.6 9.85903 21.6 8.52334 21.0814 7.50021C20.6252 6.60015 19.8969 5.86676 19 5.40426C17.9805 4.87852 16.6449 4.86921 13.9736 4.85059L10.1336 4.82381C7.42841 4.80495 6.07583 4.79552 5.04177 5.31606C4.13227 5.7739 3.39193 6.5091 2.92776 7.41538ZM12.3166 9.59999C14.5742 9.59999 16.4044 11.4302 16.4044 13.6878C16.4044 15.9454 14.5742 17.7756 12.3166 17.7756C10.2006 17.7756 8.46007 16.1678 8.25004 14.1073L7.62429 14.733C7.38997 14.9673 7.01008 14.9673 6.77576 14.733C6.54145 14.4987 6.54145 14.1188 6.77576 13.8845L8.46564 12.1946C8.69926 11.961 9.07777 11.9602 9.31237 12.1928L11.0166 13.8827C11.2519 14.116 11.2535 14.4959 11.0202 14.7312C10.7869 14.9665 10.407 14.9681 10.1717 14.7348L9.41175 13.9813C9.55893 15.4558 10.8033 16.6072 12.3166 16.6072C13.9289 16.6072 15.236 15.3001 15.236 13.6878C15.236 12.0754 13.9289 10.7684 12.3166 10.7684C11.9939 10.7684 11.7324 10.5068 11.7324 10.1842C11.7324 9.86155 11.9939 9.59999 12.3166 9.59999Z" fill="black"/>
</svg>
