<svg stroke-width= "1.5px" width="24" height="24" viewBox="0 0 24 24" fill="none" xmlns="http://www.w3.org/2000/svg">
<path d="M13.11 12C13.11 10.7905 14.0905 9.81001 15.3 9.81001C16.5095 9.81001 17.49 10.7905 17.49 12C17.49 12.4974 17.3242 12.956 17.0449 13.3236L16.5606 12.8394C16.3615 12.6402 16.0386 12.6402 15.8394 12.8394C15.6402 13.0386 15.6402 13.3615 15.8394 13.5606L16.2517 13.973C15.9639 14.112 15.6411 14.19 15.3 14.19C14.0905 14.19 13.11 13.2095 13.11 12Z" fill="black"/>
<path fill-rule="evenodd" clip-rule="evenodd" d="M12 21.6C17.302 21.6 21.6 17.3019 21.6 12C21.6 6.69806 17.302 2.39999 12 2.39999C6.69809 2.39999 2.40002 6.69806 2.40002 12C2.40002 17.3019 6.69809 21.6 12 21.6ZM6.60003 8.79001C6.88169 8.79001 7.11003 9.01834 7.11003 9.30001V11.49H10.29V9.30001C10.29 9.01834 10.5184 8.79001 10.8 8.79001C11.0817 8.79001 11.31 9.01834 11.31 9.30001V14.7C11.31 14.9817 11.0817 15.21 10.8 15.21C10.5184 15.21 10.29 14.9817 10.29 14.7V12.51H7.11003V14.7C7.11003 14.9817 6.88169 15.21 6.60003 15.21C6.31836 15.21 6.09003 14.9817 6.09003 14.7V9.30001C6.09003 9.01834 6.31836 8.79001 6.60003 8.79001ZM17.0013 14.7226C16.5081 15.0315 15.9249 15.21 15.3 15.21C13.5272 15.21 12.09 13.7728 12.09 12C12.09 10.2272 13.5272 8.79001 15.3 8.79001C17.0729 8.79001 18.51 10.2272 18.51 12C18.51 12.7792 18.2324 13.4935 17.7707 14.0495L18.0606 14.3394C18.2598 14.5386 18.2598 14.8615 18.0606 15.0606C17.8615 15.2598 17.5386 15.2598 17.3394 15.0606L17.0013 14.7226Z" fill="black"/>
</svg>
