<svg stroke-width= "1.5px" width="24" height="24" viewBox="0 0 24 24" fill="none" xmlns="http://www.w3.org/2000/svg">
<path d="M18.462 2.40607C17.6432 2.36316 16.9392 2.98008 16.8743 3.79737L16.3674 9.98961V12.0594L17.8219 12.0604C18.4344 12.0605 18.9898 12.3054 19.3956 12.7025L19.8931 4.01009C19.9448 3.17059 19.3019 2.45009 18.462 2.40607Z" fill="black"/>
<path d="M19.1728 15.9423C19.1722 15.9327 19.1719 15.923 19.1719 15.9132V14.3104C19.1719 13.5648 18.5674 12.9604 17.8219 12.9604L13.2416 12.9573C12.496 12.9574 11.8917 13.5617 11.8917 14.3073C11.8917 15.0529 12.4961 15.6573 13.2417 15.6573H16.2374C16.486 15.6573 16.6874 15.8588 16.6874 16.1073C16.6874 16.3558 16.486 16.5573 16.2374 16.5573H13.2417C12.0682 16.5573 11.1045 15.6588 11.0009 14.5123C10.7143 14.6332 10.3993 14.7 10.0688 14.7C8.74327 14.7 7.66875 13.6255 7.66875 12.3V11.4948L7.08854 6.13287C7.00309 5.34316 6.31556 4.75779 5.52234 4.79936C4.66355 4.84437 4.01927 5.60217 4.11301 6.457L4.91252 13.7482L5.20014 17.1951C5.40771 19.6827 7.48729 21.596 9.98352 21.596H14.298C16.8162 21.596 18.9064 19.6498 19.0858 17.138L19.1712 15.9424L19.1728 15.9423Z" fill="black"/>
<path d="M8.86563 13.196C9.13911 13.5626 9.5762 13.8 10.0688 13.8C10.5613 13.8 10.9984 13.5626 11.2719 13.196C11.2814 13.1833 11.2906 13.1704 11.2997 13.1574C11.4601 12.9275 11.5577 12.6507 11.5679 12.3517C11.5675 12.3349 11.5674 12.3177 11.5674 12.3V8.70001C11.5674 8.6829 11.5675 8.66584 11.5679 8.64883C11.5409 7.8441 10.88 7.20001 10.0688 7.20001C9.5608 7.20001 9.11182 7.45249 8.84046 7.8388C8.67097 8.08177 8.57157 8.37727 8.57157 8.69598V12.296C8.57157 12.6337 8.68316 12.9453 8.87147 13.196H8.86563Z" fill="black"/>
<path d="M12.4716 12.1925C12.7118 12.105 12.9712 12.0573 13.2417 12.0573L15.4674 12.0588V8.70001C15.4674 7.87158 14.7958 7.20001 13.9674 7.20001C13.5663 7.20001 13.2019 7.35744 12.9328 7.61388C12.6485 7.88684 12.4716 8.27075 12.4716 8.69598V12.1925Z" fill="black"/>
</svg>
