<svg width="24" height="24" viewBox="0 0 24 24" fill="none" xmlns="http://www.w3.org/2000/svg">
<path fill-rule="evenodd" clip-rule="evenodd" d="M7.02012 4.74V4.50359C7.3607 4.5 7.73835 4.5 8.16011 4.5H15.8401C16.3636 4.5 16.8191 4.5 17.2201 4.50687V4.74C17.2201 5.40274 16.6829 5.94 16.0201 5.94H8.22012C7.55737 5.94 7.02012 5.40274 7.02012 4.74ZM2.4 10.26C2.4 8.24382 2.4 7.23573 2.79238 6.46565C3.13752 5.78826 3.68825 5.23753 4.36563 4.89239C4.75589 4.69354 5.20727 4.59547 5.82001 4.54709V4.74001C5.82001 6.0655 6.89452 7.14001 8.22001 7.14001H16.02C17.3455 7.14001 18.42 6.0655 18.42 4.74001V4.56958C18.9137 4.62384 19.2969 4.72044 19.6344 4.89239C20.3117 5.23753 20.8625 5.78826 21.2076 6.46565C21.6 7.23573 21.6 8.24382 21.6 10.26V13.74C21.6 15.7562 21.6 16.7643 21.2076 17.5344C20.8625 18.2118 20.3117 18.7625 19.6344 19.1076C18.8643 19.5 17.8562 19.5 15.84 19.5H8.16C6.14381 19.5 5.13572 19.5 4.36563 19.1076C3.68825 18.7625 3.13752 18.2118 2.79238 17.5344C2.4 16.7643 2.4 15.7562 2.4 13.74V10.26ZM16.2 15.6C17.5255 15.6 18.6 14.5255 18.6 13.2C18.6 11.8745 17.5255 10.8 16.2 10.8C14.8745 10.8 13.8 11.8745 13.8 13.2C13.8 14.5255 14.8745 15.6 16.2 15.6ZM16.2 14.4C16.8627 14.4 17.4 13.8628 17.4 13.2C17.4 12.5373 16.8627 12 16.2 12C15.5373 12 15 12.5373 15 13.2C15 13.8628 15.5373 14.4 16.2 14.4ZM7.8 15.6C9.12548 15.6 10.2 14.5255 10.2 13.2C10.2 11.8745 9.12548 10.8 7.8 10.8C6.47452 10.8 5.4 11.8745 5.4 13.2C5.4 14.5255 6.47452 15.6 7.8 15.6ZM7.8 14.4C8.46274 14.4 9 13.8628 9 13.2C9 12.5373 8.46274 12 7.8 12C7.13726 12 6.6 12.5373 6.6 13.2C6.6 13.8628 7.13726 14.4 7.8 14.4Z" fill="black"/>
</svg>
