<svg stroke-width= "1.5px" width="24" height="24" viewBox="0 0 24 24" fill="none" xmlns="http://www.w3.org/2000/svg">
<path fill-rule="evenodd" clip-rule="evenodd" d="M21.6 12C21.6 17.3019 17.302 21.6 12 21.6C6.69809 21.6 2.40002 17.3019 2.40002 12C2.40002 6.69806 6.69809 2.39999 12 2.39999C17.302 2.39999 21.6 6.69806 21.6 12ZM12 15.6C13.9882 15.6 15.6 13.9882 15.6 12C15.6 10.0118 13.9882 8.4 12 8.4C10.0118 8.4 8.4 10.0118 8.4 12C8.4 13.9882 10.0118 15.6 12 15.6ZM10.2033 5.61902C10.3217 5.92852 10.1667 6.27539 9.8572 6.39376C8.24543 7.01021 6.96672 8.30277 6.36884 9.92348C6.25416 10.2344 5.90916 10.3934 5.59827 10.2787C5.28737 10.1641 5.12832 9.81906 5.24301 9.50817C5.96077 7.56245 7.49381 6.0129 9.42853 5.27294C9.73803 5.15457 10.0849 5.30951 10.2033 5.61902Z" fill="black"/>
</svg>
