<svg width="24" height="24" viewBox="0 0 24 24" fill="none" xmlns="http://www.w3.org/2000/svg">
<path fill-rule="evenodd" clip-rule="evenodd" d="M14.5002 11.9242C16.0045 11.0262 17.012 9.38222 17.012 7.50296C17.012 4.66125 14.7083 2.35759 11.8666 2.35759C9.02488 2.35759 6.72122 4.66125 6.72122 7.50296C6.72122 9.41989 7.76948 11.092 9.32405 11.9773C5.72125 13.0908 3 16.3737 3 20.2458V20.2642C3 21.0268 3.63398 21.6424 4.3966 21.6424H19.6034C20.366 21.6424 21 21.0268 21 20.2642V20.2458C21 16.3101 18.1904 12.9831 14.5002 11.9242ZM12.8211 13.9977C12.8211 14.4616 12.445 14.8377 11.9811 14.8377C11.5172 14.8377 11.1411 14.4616 11.1411 13.9977C11.1411 13.5337 11.5172 13.1577 11.9811 13.1577C12.445 13.1577 12.8211 13.5337 12.8211 13.9977ZM13.1732 6.74548C13.0377 6.31469 12.6749 5.97721 12.1267 5.9883C11.5303 6.00036 11.201 6.30522 10.9953 6.64001C10.8886 6.81376 10.82 6.99125 10.7783 7.12768C10.7578 7.1949 10.7446 7.2495 10.7369 7.28508C10.733 7.3028 10.7306 7.31557 10.7294 7.32258L10.7283 7.32842C10.6788 7.64785 10.3805 7.86766 10.0604 7.81982C9.7392 7.77183 9.51775 7.47255 9.56574 7.15138L9.57119 7.15219L9.56836 7.15078L9.56895 7.15018L9.56574 7.15138L9.56591 7.15025L9.56611 7.14895L9.56659 7.14584L9.56791 7.13762L9.5721 7.11346C9.57561 7.09403 9.58063 7.06802 9.58748 7.03636C9.60116 6.97317 9.6223 6.8866 9.65357 6.78421C9.7155 6.5814 9.82039 6.30586 9.99329 6.02443C10.3469 5.44888 11.0014 4.83481 12.1029 4.81254C13.2527 4.78928 14.028 5.54357 14.2951 6.3927C14.5554 7.22066 14.3633 8.27885 13.4405 8.81146C12.9251 9.1089 12.7059 9.43313 12.6082 9.6492C12.5577 9.76103 12.5359 9.8527 12.5265 9.90947C12.5217 9.93786 12.5202 9.95728 12.5197 9.96574L12.5195 9.96848L12.5352 11.0378C12.54 11.3625 12.2806 11.6296 11.9559 11.6343C11.6312 11.6391 11.3641 11.3797 11.3593 11.055L11.3436 9.98464L11.3436 9.98196L11.3435 9.97629L11.3436 9.95521C11.3438 9.93925 11.3444 9.91948 11.3457 9.89623C11.3485 9.84978 11.3543 9.78914 11.3663 9.71697C11.3903 9.57263 11.4389 9.38117 11.5365 9.16499C11.7353 8.72504 12.1236 8.21369 12.8527 7.79291C13.1743 7.60729 13.3153 7.19743 13.1732 6.74548ZM12.5193 9.95667L12.5194 9.96291L12.5194 9.96065L12.5193 9.95808L12.5193 9.95667Z" fill="black"/>
</svg>
