<svg stroke-width= "1.5px" width="24" height="24" viewBox="0 0 24 24" fill="none" xmlns="http://www.w3.org/2000/svg">
<path fill-rule="evenodd" clip-rule="evenodd" d="M7.19998 9.63454C6.49399 9.67765 5.99312 9.77455 5.56561 9.99238C4.88823 10.3375 4.3375 10.8883 3.99235 11.5656C3.59998 12.3357 3.59998 13.3438 3.59998 15.36V16.44C3.59998 18.4562 3.59998 19.4643 3.99235 20.2344C4.3375 20.9117 4.88823 21.4625 5.56561 21.8076C6.33569 22.2 7.34379 22.2 9.35998 22.2H15.24C17.2562 22.2 18.2643 22.2 19.0343 21.8076C19.7117 21.4625 20.2625 20.9117 20.6076 20.2344C21 19.4643 21 18.4562 21 16.44V15.36C21 13.3438 21 12.3357 20.6076 11.5656C20.2625 10.8883 19.7117 10.3375 19.0343 9.99238C18.6068 9.77455 18.106 9.67765 17.4 9.63454L16.2 9.60203C15.9075 9.6 15.5888 9.6 15.24 9.6H9.35998C9.01113 9.6 8.69245 9.6 8.39998 9.60203L7.19998 9.63454ZM12.9 13.8C12.9 13.4686 12.6314 13.2 12.3 13.2C11.9686 13.2 11.7 13.4686 11.7 13.8V17.4C11.7 17.7314 11.9686 18 12.3 18C12.6314 18 12.9 17.7314 12.9 17.4V13.8Z" fill="black"/>
<path d="M12.3 1.8C9.4833 1.8 7.19995 4.08335 7.19995 6.9V9.63454L8.39995 9.60203V6.9C8.39995 4.74609 10.146 3 12.3 3C14.4539 3 16.2 4.74609 16.2 6.9V9.60203L17.4 9.63454V6.9C17.4 4.08335 15.1166 1.8 12.3 1.8Z" fill="black"/>
</svg>
