<svg width="24" height="24" viewBox="0 0 24 24" fill="none" xmlns="http://www.w3.org/2000/svg">
<path fill-rule="evenodd" clip-rule="evenodd" d="M3.55119 3.85103C3.08256 4.31966 3.08256 5.07946 3.55119 5.54809L3.97547 5.97237L1.85414 8.0937C1.61983 8.32802 1.61983 8.70792 1.85414 8.94223C2.08846 9.17655 2.46836 9.17655 2.70267 8.94223L4.824 6.8209L5.24827 7.24516L3.12693 9.36651C2.89261 9.60082 2.89261 9.98072 3.12693 10.215C3.36124 10.4493 3.74114 10.4493 3.97545 10.215L6.0968 8.09369L7.43445 9.43134C5.19934 12.4827 5.46055 16.7913 8.21809 19.5488C11.2642 22.5949 16.2029 22.5949 19.249 19.5488C22.295 16.5027 22.295 11.5641 19.249 8.51796C16.4914 5.76043 12.1829 5.49921 9.13151 7.73429L7.79385 6.39664L9.91515 4.27534C10.1495 4.04102 10.1495 3.66112 9.91515 3.42681C9.68084 3.1925 9.30094 3.19249 9.06662 3.42681L6.94532 5.54811L6.52106 5.12384L8.64237 3.00254C8.87668 2.76822 8.87668 2.38832 8.64237 2.15401C8.40805 1.91969 8.02815 1.91969 7.79384 2.15401L5.67253 4.27532L5.24825 3.85103C4.77962 3.3824 4.01982 3.3824 3.55119 3.85103ZM18.5145 14.885C18.5752 14.5592 18.3604 14.2459 18.0346 14.1852C17.7089 14.1245 17.3956 14.3393 17.3348 14.6651C16.9831 16.5515 15.3722 17.398 14.4301 17.5586C14.1034 17.6142 13.8838 17.9242 13.9394 18.2509C13.9951 18.5775 14.3051 18.7972 14.6317 18.7415C15.8896 18.5271 18.0412 17.4236 18.5145 14.885Z" fill="black"/>
</svg>
