<svg width="24" height="24" viewBox="0 0 24 24" fill="none" xmlns="http://www.w3.org/2000/svg">
<path fill-rule="evenodd" clip-rule="evenodd" d="M16.2 2.40272L16.1681 2.40283L12 2.39999L7.83186 2.40283L7.79999 2.40272C6.24407 2.40272 4.86106 3.14303 3.98397 4.29061C3.86069 4.45191 3.75198 4.62134 3.64504 4.79773C3.56914 4.92293 3.64504 5.16299 3.84386 4.98494C3.87627 4.95591 3.92576 4.90988 3.98022 4.85922C4.08694 4.75995 4.21276 4.6429 4.26665 4.60124C5.07782 3.9741 6.09533 3.60094 7.19999 3.60094L7.23226 3.60105H16.7677L16.8 3.60094C17.9047 3.60094 18.9222 3.9741 19.7333 4.60124C19.7872 4.6429 19.913 4.75993 20.0197 4.8592L20.0202 4.85964C20.0745 4.91013 20.1238 4.95599 20.1561 4.98494C20.3549 5.16299 20.4308 4.92293 20.3549 4.79773C20.248 4.62134 20.1393 4.45191 20.016 4.29061C19.1389 3.14303 17.7559 2.40272 16.2 2.40272ZM2.92773 7.41539C2.39999 8.44579 2.39999 9.79841 2.39999 12.5036V13.9204C2.39999 16.6087 2.39999 17.9528 2.92316 18.9796C3.38335 19.8828 4.11766 20.6171 5.02084 21.0773C6.04762 21.6004 7.39174 21.6004 10.08 21.6004H13.92C16.6082 21.6004 17.9524 21.6004 18.9791 21.0773C19.8823 20.6171 20.6166 19.8828 21.0768 18.9796C21.6 17.9528 21.6 16.6087 21.6 13.9204V12.5304C21.6 9.85903 21.6 8.52334 21.0814 7.50021C20.6251 6.60015 19.8969 5.86677 19 5.40427C17.9805 4.87853 16.6448 4.86922 13.9735 4.85059L10.1335 4.82382C7.42838 4.80496 6.0758 4.79553 5.04174 5.31607C4.13224 5.7739 3.3919 6.5091 2.92773 7.41539ZM5.70923 10.8414C5.96812 10.7304 6.26794 10.8503 6.37889 11.1092L7.71013 14.2155L9.04137 11.1092C9.15232 10.8503 9.45214 10.7304 9.71103 10.8414C9.96992 10.9523 10.0898 11.2521 9.97889 11.511L8.17889 15.711C8.09853 15.8986 7.91414 16.0201 7.71013 16.0201C7.50612 16.0201 7.32173 15.8986 7.24137 15.711L5.44137 11.511C5.33041 11.2521 5.45034 10.9523 5.70923 10.8414ZM11.91 10.8002C12.1917 10.8002 12.42 11.0285 12.42 11.3102V15.5102C12.42 15.7918 12.1917 16.0202 11.91 16.0202C11.6283 16.0202 11.4 15.7918 11.4 15.5102V11.3102C11.4 11.0285 11.6283 10.8002 11.91 10.8002ZM13.9494 10.9495C14.045 10.8539 14.1747 10.8002 14.31 10.8002H16.71C17.6544 10.8002 18.42 11.5657 18.42 12.5102C18.42 13.4546 17.6544 14.2202 16.71 14.2202H14.82V15.5102C14.82 15.7918 14.5917 16.0202 14.31 16.0202C14.0283 16.0202 13.8 15.7918 13.8 15.5102V11.3102C13.8 11.1749 13.8537 11.0452 13.9494 10.9495ZM14.8201 13.2002H16.7101C17.0912 13.2002 17.4001 12.8912 17.4001 12.5102C17.4001 12.1291 17.0912 11.8202 16.7101 11.8202H14.8201V13.2002Z" fill="black"/>
</svg>
