<svg stroke-width= "1.5px" width="24" height="24" viewBox="0 0 24 24" fill="none" xmlns="http://www.w3.org/2000/svg">
<path fill-rule="evenodd" clip-rule="evenodd" d="M7.36406 6.60109C7.61072 6.59999 7.87531 6.59999 8.16 6.59999H15.84C17.8562 6.59999 18.8643 6.59999 19.6344 6.99237C20.3118 7.33751 20.8625 7.88824 21.2076 8.56562C21.6 9.33571 21.6 10.3438 21.6 12.36V15.24C21.6 17.2562 21.6 18.2643 21.2076 19.0344C20.8625 19.7117 20.3118 20.2625 19.6344 20.6076C18.8643 21 17.8562 21 15.84 21H8.16C6.14381 21 5.13572 21 4.36564 20.6076C3.68825 20.2625 3.13752 19.7117 2.79238 19.0344C2.4 18.2643 2.4 17.2562 2.4 15.24V12.36C2.4 10.3438 2.4 9.33571 2.79238 8.56562C3.13752 7.88824 3.68825 7.33751 4.36564 6.99237C4.38501 6.98249 4.40454 6.97287 4.42422 6.96349L10.8974 3.08539C11.1816 2.91509 11.5501 3.00747 11.7204 3.29173C11.8907 3.57599 11.7984 3.94449 11.5141 4.11479L7.36406 6.60109ZM7.5 16.5C8.99117 16.5 10.2 15.2912 10.2 13.8C10.2 12.3088 8.99117 11.1 7.5 11.1C6.00883 11.1 4.8 12.3088 4.8 13.8C4.8 15.2912 6.00883 16.5 7.5 16.5ZM13.8 12.9218C13.8 12.5904 13.5314 12.3218 13.2 12.3218C12.8686 12.3218 12.6 12.5904 12.6 12.9218V14.7C12.6 15.0314 12.8686 15.3 13.2 15.3C13.5314 15.3 13.8 15.0314 13.8 14.7V12.9218ZM18 12.3218C18.3314 12.3218 18.6 12.5904 18.6 12.9218V14.7C18.6 15.0314 18.3314 15.3 18 15.3C17.6686 15.3 17.4 15.0314 17.4 14.7V12.9218C17.4 12.5904 17.6686 12.3218 18 12.3218ZM16.2 11.1C16.2 10.7686 15.9314 10.5 15.6 10.5C15.2686 10.5 15 10.7686 15 11.1V16.5C15 16.8314 15.2686 17.1 15.6 17.1C15.9314 17.1 16.2 16.8314 16.2 16.5V11.1Z" fill="black"/>
</svg>
