<svg stroke-width= "1.5px" width="24" height="24" viewBox="0 0 24 24" fill="none" xmlns="http://www.w3.org/2000/svg">
<path d="M9.81241 16.4994C9.81241 16.4994 8.74981 16.4994 7.68721 16.4994C6.83221 16.4994 6.71821 15.2658 6.70621 14.7834V9.14517H4.83241C4.48321 9.14517 4.20001 9.42837 4.20001 9.77757V15.867C4.20001 16.2162 4.48321 16.4994 4.83241 16.4994H5.45341L4.69081 17.8074L5.73421 18.867C5.97181 19.1088 6.23701 19.3218 6.52441 19.5018L7.68781 20.232C8.31361 17.8344 9.81241 16.4994 9.81241 16.4994Z" fill="#12162D"/>
<path d="M19.7232 9.14517H17.8494V14.7834C17.8374 15.2658 17.7234 16.4994 16.8684 16.4994C15.8058 16.4994 14.7432 16.4994 14.7432 16.4994C14.7432 16.4994 16.2414 17.8344 16.8684 20.232L18.0318 19.5018C18.3192 19.3218 18.5844 19.1088 18.822 18.867L19.8654 17.8074L19.1028 16.4994H19.7238C20.073 16.4994 20.3562 16.2162 20.3562 15.867V9.77757C20.3556 9.42837 20.0724 9.14517 19.7232 9.14517Z" fill="#12162D"/>
<path d="M13.2996 15.6414H15.7098C16.4472 15.6414 17.0454 15.0432 17.0454 14.3058V7.61883C17.0454 6.88143 16.4472 6.28323 15.7098 6.28323H9.02282C8.28542 6.28323 7.68722 6.88143 7.68722 7.61883V14.3058C7.68722 15.0432 8.28542 15.6414 9.02282 15.6414H11.4198C11.4198 15.6414 9.64922 16.6356 8.55902 20.6682C8.55902 20.6682 12.1554 22.4388 15.942 20.6682C15.942 20.6682 14.8524 16.8264 13.2996 15.6414Z" fill="#12162D"/>
<path d="M10.6566 5.7378L11.9646 5.7924C12.3048 4.0488 11.556 3 11.556 3L9.92096 3.327C10.9428 4.512 10.6566 5.7378 10.6566 5.7378Z" fill="#E60012"/>
<path d="M14.0075 5.7378C14.0075 5.7378 13.7213 4.512 14.7431 3.327L13.1087 3C13.1087 3 12.3593 4.0488 12.7001 5.7924L14.0075 5.7378Z" fill="#E60012"/>
</svg>
