<svg stroke-width= "1.5px" width="24" height="24" viewBox="0 0 24 24" fill="none" xmlns="http://www.w3.org/2000/svg">
<path fill-rule="evenodd" clip-rule="evenodd" d="M8.25 2.25C4.93629 2.25 2.25 4.93629 2.25 8.25V15.75C2.25 19.0637 4.93629 21.75 8.25 21.75H15.75C19.0637 21.75 21.75 19.0637 21.75 15.75V8.25C21.75 4.93629 19.0637 2.25 15.75 2.25H8.25ZM15.8733 7.13521C15.6558 7.09897 15.4334 7.16024 15.2652 7.30274C15.097 7.44524 15 7.65454 15 7.87501V13.6361C14.482 13.4751 13.88 13.4503 13.2781 13.5975C11.8666 13.9425 10.9897 15.102 11.3194 16.1872C11.649 17.2725 13.0605 17.8726 14.4719 17.5275C15.6897 17.2298 16.5096 16.3259 16.4999 15.3864L16.5 15.2033V8.76035L17.8767 8.9898C18.2853 9.0579 18.6717 8.78188 18.7398 8.3733C18.8079 7.96473 18.5319 7.57831 18.1233 7.51021L15.8733 7.13521ZM6 8.25C6 7.83579 6.33579 7.5 6.75 7.5H12C12.4142 7.5 12.75 7.83579 12.75 8.25C12.75 8.66421 12.4142 9 12 9H6.75C6.33579 9 6 8.66421 6 8.25ZM6.75 11.25C6.33579 11.25 6 11.5858 6 12C6 12.4142 6.33579 12.75 6.75 12.75H11.25C11.6642 12.75 12 12.4142 12 12C12 11.5858 11.6642 11.25 11.25 11.25H6.75ZM6 15.75C6 15.3358 6.33579 15 6.75 15H8.25C8.66421 15 9 15.3358 9 15.75C9 16.1642 8.66421 16.5 8.25 16.5H6.75C6.33579 16.5 6 16.1642 6 15.75Z" fill="#1A1A1A"/>
</svg>
