<svg stroke-width= "1.5px" width="24" height="24" viewBox="0 0 24 24" fill="none" xmlns="http://www.w3.org/2000/svg">
<path fill-rule="evenodd" clip-rule="evenodd" d="M15.6122 3C18.9371 3 21.6 6.02121 21.6 9.71979C21.6 12.776 20.1549 15.3864 17.1639 18.0031C16.1386 18.9003 15.0348 19.7522 13.8906 20.538C13.5221 20.791 13.1676 21.0245 12.8363 21.2332C12.6648 21.3413 12.5197 21.4301 12.4279 21.4839C12.164 21.6387 11.8367 21.6387 11.5727 21.4839C11.4809 21.4301 11.3358 21.3413 11.1643 21.2333C10.8329 21.0245 10.4784 20.791 10.1099 20.538C8.96555 19.7522 7.86161 18.9003 6.83615 18.0032C3.84512 15.3864 2.40002 12.776 2.40002 9.71979C2.40002 6.02121 5.06299 3 8.38781 3C9.70662 3 10.9678 3.48054 12.0001 4.35761C13.0325 3.48054 14.2936 3 15.6122 3Z" fill="black"/>
</svg>
