<svg width="24" height="24" viewBox="0 0 24 24" fill="none" xmlns="http://www.w3.org/2000/svg">
<path d="M14.5956 9.5064H13.8732V10.0608H14.5956V9.5064Z" fill="black"/>
<path d="M14.5956 10.7916H13.8732V11.3376H14.5956V10.7916Z" fill="black"/>
<path fill-rule="evenodd" clip-rule="evenodd" d="M12 21.6C17.302 21.6 21.6 17.3019 21.6 12C21.6 6.69807 17.302 2.4 12 2.4C6.69809 2.4 2.40002 6.69807 2.40002 12C2.40002 17.3019 6.69809 21.6 12 21.6ZM8.63162 8.364H11.4876V9.1368H9.46322V9.6492H11.2524V10.3716H9.46322V10.8504H11.2776V11.5728H9.46322V12.1524H11.58V12.9H9.91682C9.67322 13.656 9.45482 14.244 9.27002 14.6472C9.69002 14.58 10.1016 14.4876 10.5216 14.3868C10.3788 14.0172 10.236 13.6812 10.0848 13.362L10.7904 13.1268C11.1264 13.8324 11.4204 14.58 11.6724 15.378L10.9668 15.7056C10.9321 15.6014 10.8996 15.4995 10.8682 15.401C10.8389 15.3088 10.8104 15.2197 10.782 15.1344C10.0092 15.3024 9.18602 15.4452 8.30402 15.5544L8.11922 14.8152C8.18642 14.79 8.24522 14.7648 8.28722 14.7396C8.48882 14.5044 8.75762 13.8912 9.07682 12.9H8.14442V12.1524H8.63162V8.364ZM15.3768 10.7916V12.0768H13.8732V12.606H15.486V13.3452H13.8732V13.8996H15.7632V14.6808H13.8732V15.8316H13.05V14.6808H11.5632V13.8996H13.05V13.3452H11.7816V12.606H13.05V12.0768H11.874V11.3376H13.05V10.7916H11.6052V10.0608H13.05V9.5064H11.916V8.7672H13.05V8.1288H13.8732V8.7672H15.3768V10.0608H15.8472V10.7916H15.3768Z" fill="black"/>
</svg>
