<svg width="24" height="24" viewBox="0 0 24 24" fill="none" xmlns="http://www.w3.org/2000/svg">
<path fill-rule="evenodd" clip-rule="evenodd" d="M12 21.6C17.3019 21.6 21.6 17.3019 21.6 12C21.6 6.69806 17.3019 2.39999 12 2.39999C6.69807 2.39999 2.4 6.69806 2.4 12C2.4 17.3019 6.69807 21.6 12 21.6ZM14.2714 9.15999C14.2714 9.92895 13.9306 10.6191 13.391 11.0885C14.1696 11.4045 14.8398 11.9321 15.33 12.6C14.4868 12.6035 13.8 13.3582 13.8 14.286C13.8 14.94 14.094 15.522 14.694 16.068C14.7436 16.1125 14.7947 16.1565 14.847 16.2H7.84C7.48654 16.2 7.2 15.9135 7.2 15.56V15.0734C7.2 15.059 7.20198 15.0451 7.20568 15.0319C7.29499 13.2432 8.42864 11.7296 10.0093 11.0884C9.46968 10.619 9.12857 9.92888 9.12857 9.15999C9.12857 7.74695 10.2795 6.59999 11.7 6.59999C13.1205 6.59999 14.2714 7.74695 14.2714 9.15999ZM17.4 14.2838C17.4 13.6873 16.9839 13.2 16.4644 13.2C16.2584 13.2 16.0613 13.2775 15.9 13.419C15.7387 13.2775 15.5417 13.2 15.3356 13.2C14.8161 13.2 14.4 13.6873 14.4 14.2838C14.4 14.7768 14.6258 15.1978 15.0931 15.6199C15.2534 15.7646 15.4259 15.902 15.6047 16.0287C15.6622 16.0695 15.7176 16.1072 15.7694 16.1408C15.7962 16.1583 15.8189 16.1726 15.8332 16.1813C15.8745 16.2062 15.9256 16.2062 15.9669 16.1813C15.9812 16.1726 16.0039 16.1583 16.0307 16.1408C16.0824 16.1072 16.1378 16.0695 16.1954 16.0287C16.3742 15.902 16.5467 15.7646 16.7069 15.6199C17.1742 15.1978 17.4 14.7768 17.4 14.2838Z" fill="#FE2C55"/>
</svg>
