<svg stroke-width= "1.5px" width="24" height="24" viewBox="0 0 24 24" fill="none" xmlns="http://www.w3.org/2000/svg">
<path fill-rule="evenodd" clip-rule="evenodd" d="M17.2302 12.314V12.3931C17.2302 15.4228 14.9295 17.9177 11.9717 18.2427C11.9721 18.2545 11.9723 18.2665 11.9723 18.2786V20.2714H14.5908C14.9596 20.2714 15.2585 20.5688 15.2585 20.9357C15.2585 21.3026 14.9596 21.6 14.5909 21.6H8.03932C7.6706 21.6 7.37169 21.3026 7.37169 20.9357C7.37169 20.5688 7.6706 20.2714 8.03932 20.2714H10.6579V18.2786C10.6579 18.2665 10.6581 18.2545 10.6585 18.2427C7.95846 17.9461 5.80597 15.8411 5.45132 13.1719H9.63529C9.96945 13.1719 10.2403 12.9024 10.2403 12.5699C10.2403 12.2374 9.96945 11.9679 9.63529 11.9679H5.39999V10.1619H9.63529C9.96945 10.1619 10.2403 9.89233 10.2403 9.55985C10.2403 9.22737 9.96945 8.95784 9.63529 8.95784H5.39999V8.88543C5.39999 5.635 8.04827 3 11.3151 3C13.0413 3 14.5949 3.73577 15.6762 4.90932C15.6747 4.99297 15.6778 5.07934 15.6857 5.16843V6.7156C14.0158 6.7156 12.6605 8.0641 12.6605 9.72564C12.6605 11.3872 14.0158 12.7357 15.6857 12.7357C16.2498 12.7357 16.778 12.5818 17.2302 12.314ZM17.5843 3.83403C17.033 3.98737 16.6522 4.49032 16.6542 5.06255L16.6599 6.70429L16.6649 6.70293V7.82079C16.392 7.69107 16.0867 7.61847 15.7644 7.61847C14.6046 7.61847 13.6644 8.55868 13.6644 9.71847C13.6644 10.8783 14.6046 11.8185 15.7644 11.8185C16.9146 11.8185 17.8488 10.8938 17.8642 9.74725C17.8647 9.73771 17.8649 9.72811 17.8649 9.71846V6.32422C18.7921 5.89022 19.4725 5.06114 19.7225 4.07721C19.7417 4.00176 19.7583 3.92537 19.7724 3.84821L19.778 3.8163C19.8065 3.65048 19.823 3.48104 19.8266 3.30905L19.8266 3.30801C19.8271 3.28442 19.8273 3.26078 19.8273 3.23709C19.8273 3.22356 19.8144 3.21376 19.8014 3.21739L17.5843 3.83403Z" fill="black"/>
</svg>
