<svg width="24" height="24" viewBox="0 0 24 24" fill="none" xmlns="http://www.w3.org/2000/svg">
<path fill-rule="evenodd" clip-rule="evenodd" d="M18.8345 13.4506C18.3493 13.4506 17.9561 13.0515 17.9561 12.5593C17.9561 12.067 18.3493 11.6679 18.8345 11.6679C19.3194 11.6679 19.7127 12.067 19.7127 12.5593C19.7127 13.0515 19.3194 13.4506 18.8345 13.4506ZM13.7647 13.4506C13.2795 13.4506 12.8862 13.0515 12.8862 12.5593C12.8862 12.067 13.2795 11.6679 13.7647 11.6679C14.2498 11.6679 14.6428 12.067 14.6428 12.5593C14.6428 13.0515 14.2498 13.4506 13.7647 13.4506ZM22.8 14.6727C22.8 11.5436 19.8899 9.00704 16.2998 9.00704C12.7099 9.00704 9.79981 11.5436 9.79981 14.6727C9.79981 17.8018 12.7099 20.3386 16.2998 20.3386C17.0916 20.3386 17.8501 20.2148 18.5517 19.9888L20.8206 21L20.5909 18.9268C21.9445 17.8885 22.8 16.3682 22.8 14.6727ZM6.15943 8.33855C5.61321 8.33855 5.17037 7.89097 5.17037 7.33893C5.17037 6.7869 5.61321 6.33932 6.15943 6.33932C6.70565 6.33932 7.14827 6.7869 7.14827 7.33893C7.14827 7.89097 6.70565 8.33855 6.15943 8.33855ZM12.111 6.33932C12.6572 6.33932 13.0998 6.7869 13.0998 7.33893C13.0998 7.89097 12.6572 8.33855 12.111 8.33855C11.5648 8.33855 11.1219 7.89097 11.1219 7.33893C11.1219 6.7869 11.5648 6.33932 12.111 6.33932ZM16.3514 8.00098C16.4927 8.00098 16.6326 8.0052 16.772 8.01209C15.8298 5.11991 12.7692 3 9.13632 3C4.75332 3 1.20001 6.08464 1.20001 9.88976C1.20001 12.0592 2.35594 13.9931 4.16103 15.2561L3.84515 17.4487L6.25973 16.311C7.1518 16.6124 8.12124 16.7797 9.13632 16.7797C9.18944 16.7797 9.24168 16.7771 9.29458 16.7762C9.04792 16.1133 8.91236 15.4048 8.91236 14.6676C8.91236 10.9856 12.243 8.00098 16.3514 8.00098Z" fill="#5FCC45"/>
</svg>
