<svg width="24" height="24" viewBox="0 0 24 24" fill="none" xmlns="http://www.w3.org/2000/svg">
<path d="M19.5502 6.57473C19.5281 6.61121 19.4987 6.64209 19.4644 6.66582C19.6208 7.0341 19.7437 7.44594 19.8068 7.90041C19.8369 8.11736 19.958 9.09576 19.5913 10.2349C19.4267 10.7464 19.2879 11.0001 19.138 11.2734C19.0569 11.4214 18.9745 11.5716 18.8795 11.7783C18.4357 12.744 18.3861 13.9415 18.4666 14.954C18.5467 15.9601 18.7517 16.7426 18.783 16.8512L18.8003 16.9112C18.8561 17.1033 18.9442 17.4066 18.9697 17.7403C18.9954 18.0788 18.9592 18.4753 18.7396 18.8368C18.5422 19.162 18.2747 19.3263 18.1683 19.3916L18.1651 19.3936C17.8139 19.6091 17.4022 19.6751 17.0034 19.6664C16.6033 19.6578 16.1943 19.5737 15.8272 19.4668C15.0933 19.2533 14.4847 18.9361 14.3763 18.8785C14.3721 18.8762 14.3679 18.8739 14.3637 18.8714L13.5 18.3578L13.5 14.438C14.9648 13.5324 15.9 11.9178 15.9 10.1321C15.9 9.51431 15.3059 9.07016 14.7133 9.24497L12.0595 10.0278C11.1341 10.3008 10.4999 11.1519 10.5031 12.1168L10.5052 12.7712C10.5018 12.8033 10.5 12.8359 10.5 12.8689V15.4112C10.4011 15.4023 10.301 15.3977 10.2 15.3977C9.75397 15.3977 9.32864 15.4862 8.94058 15.6465L6.2833 14.0663L6.28215 14.0656C5.44344 13.5618 4.74159 12.9702 4.26675 12.3515C3.79529 11.7371 3.52305 11.0618 3.61918 10.4068L3.62017 10.4C3.64385 10.2376 3.70392 9.82542 4.01783 9.48746C4.4119 9.06324 4.93485 9.05041 5.4086 9.03879L5.45649 9.0376C5.79144 9.02905 6.1443 9.01936 6.54184 8.92761C7.17081 8.78277 7.57985 8.50899 8.14973 8.12352L8.15104 8.12263C8.83159 7.66223 9.13348 7.2615 9.52293 6.74322L9.52456 6.74105C9.74702 6.445 9.99846 6.11039 10.3581 5.71977C11.2519 4.74922 12.2854 3.74057 13.8392 3.45851C14.4311 3.35102 14.9904 3.37405 15.4926 3.46675C15.502 3.44745 15.5137 3.42887 15.5276 3.41137C16.3758 2.34519 17.8584 2.0956 18.9154 2.78872C19.5209 3.18594 19.8612 3.83876 19.9607 4.52625C20.0602 5.21316 19.9242 5.95846 19.5502 6.57473Z" fill="black"/>
<path d="M11.4031 12.1139C11.4013 11.5491 11.7725 11.0508 12.3142 10.891L14.968 10.1082C14.984 10.1035 15 10.1155 15 10.1321C15 11.7669 14.0466 13.2278 12.6 13.903V18.69C12.6 18.6925 12.6 18.6951 12.6 18.6977C12.6 20.0234 11.5257 21.0977 10.2 21.0977C8.87434 21.0977 7.80001 20.0234 7.80001 18.6977C7.80001 17.372 8.87434 16.2977 10.2 16.2977C10.6372 16.2977 11.047 16.4145 11.4 16.6187V12.8689H11.4056L11.4031 12.1139Z" fill="black"/>
</svg>
