<svg stroke-width= "1.5px" width="24" height="24" viewBox="0 0 24 24" fill="none" xmlns="http://www.w3.org/2000/svg">
<path fill-rule="evenodd" clip-rule="evenodd" d="M2.40002 5.4C2.40002 4.73726 2.93728 4.2 3.60002 4.2H5.76002C7.08551 4.2 8.16002 5.27452 8.16002 6.6V9.6C8.16002 10.4195 7.74924 11.1431 7.12235 11.5761C7.61024 11.8349 7.97517 12.2947 8.10669 12.8451C8.14136 12.9573 8.16002 13.0765 8.16002 13.2V19.2C8.16002 19.5314 7.8914 19.8 7.56002 19.8H6.20002C5.86865 19.8 5.60002 19.5314 5.60002 19.2V13.6C5.60002 13.4343 5.46571 13.3 5.30002 13.3H5.26002C5.09434 13.3 4.96002 13.4343 4.96002 13.6V19.2C4.96002 19.5314 4.6914 19.8 4.36002 19.8H3.00002C2.66865 19.8 2.40002 19.5314 2.40002 19.2V5.4ZM4.96002 9.75C4.96002 9.91569 5.09434 10.05 5.26002 10.05H5.30002C5.46571 10.05 5.60002 9.91569 5.60002 9.75V7.1C5.60002 6.93432 5.46571 6.8 5.30002 6.8H5.26002C5.09434 6.8 4.96002 6.93432 4.96002 7.1V9.75Z" fill="black"/>
<path fill-rule="evenodd" clip-rule="evenodd" d="M11.4464 19.2327C11.429 19.5509 11.1659 19.8 10.8473 19.8H9.39565C9.04445 19.8 8.76833 19.4997 8.79776 19.1497L9.96228 5.29946C10.0145 4.67789 10.5343 4.2 11.1581 4.2H12.6956C13.3146 4.2 13.8319 4.67072 13.8903 5.28688L15.2023 19.1434C15.2357 19.4956 14.9587 19.8 14.605 19.8H13.1959C12.8753 19.8 12.6113 19.5479 12.5966 19.2275L12.5154 17.4603C12.5035 17.2005 12.2894 16.996 12.0294 16.996C11.7709 16.996 11.5576 17.1981 11.5435 17.4561L11.4464 19.2327ZM12.0007 6.8C11.8815 6.8 11.784 6.89486 11.7807 7.01397L11.5843 14.1721C11.5779 14.4065 11.7661 14.6 12.0007 14.6C12.2352 14.6 12.4235 14.4065 12.417 14.1721L12.2206 7.01397C12.2173 6.89486 12.1198 6.8 12.0007 6.8Z" fill="black"/>
<path fill-rule="evenodd" clip-rule="evenodd" d="M15.84 4.8C15.84 4.46863 16.1087 4.2 16.44 4.2H17.8C18.0766 4.2 18.3095 4.38712 18.3789 4.64167C18.695 4.36657 19.1081 4.2 19.56 4.2H19.8C20.7941 4.2 21.6 5.00589 21.6 6V15.4C21.6 16.3941 20.7941 17.2 19.8 17.2H19.56C19.1181 17.2 18.7133 17.0407 18.4 16.7764V19.2C18.4 19.5314 18.1314 19.8 17.8 19.8H16.44C16.1087 19.8 15.84 19.5314 15.84 19.2V4.8ZM18.4 14.3C18.4 14.4657 18.5343 14.6 18.7 14.6H18.74C18.9057 14.6 19.04 14.4657 19.04 14.3V7.1C19.04 6.93432 18.9057 6.8 18.74 6.8H18.7C18.5343 6.8 18.4 6.93432 18.4 7.1V14.3Z" fill="black"/>
</svg>
