<svg stroke-width= "1.5px" width="24" height="24" viewBox="0 0 24 24" fill="none" xmlns="http://www.w3.org/2000/svg">
<path fill-rule="evenodd" clip-rule="evenodd" d="M2.39999 9.96L2.40008 9.6H21.5999L21.6 9.96V14.04C21.6 16.0562 21.6 17.0643 21.2076 17.8344C20.8625 18.5117 20.3117 19.0625 19.6344 19.4076C18.8643 19.8 17.8562 19.8 15.84 19.8H8.15999C6.14381 19.8 5.13571 19.8 4.36563 19.4076C3.68824 19.0625 3.13751 18.5117 2.79237 17.8344C2.39999 17.0643 2.39999 16.0562 2.39999 14.04V9.96ZM9.46583 14.4814C8.84472 13.9138 8.84472 12.9934 9.46583 12.4258C9.77636 12.1418 10.183 12 10.5902 12C10.9974 12 11.4041 12.1423 11.7147 12.4258L12.0035 12.6899L12.2853 12.4323C12.5959 12.1483 13.0025 12.0065 13.4098 12.0065C13.8164 12.0065 14.2236 12.1488 14.5342 12.4323C15.1553 12.9994 15.1553 13.9198 14.5342 14.4874L12.0035 16.8L9.46583 14.4814Z" fill="black"/>
<path d="M2.41052 8.4C2.43515 7.36172 2.51744 6.70524 2.79238 6.16563C3.13752 5.48825 3.68825 4.93752 4.36564 4.59238C5.13572 4.2 6.14381 4.2 8.16 4.2H15.84C17.8562 4.2 18.8643 4.2 19.6344 4.59238C20.3118 4.93752 20.8625 5.48825 21.2076 6.16563C21.4826 6.70524 21.5649 7.36172 21.5895 8.4H2.41052Z" fill="black"/>
</svg>
