<svg width="24" height="24" viewBox="0 0 24 24" fill="none" xmlns="http://www.w3.org/2000/svg">
<path fill-rule="evenodd" clip-rule="evenodd" d="M12 21.6C17.3019 21.6 21.6 17.3019 21.6 12C21.6 6.69806 17.3019 2.39999 12 2.39999C6.69806 2.39999 2.39999 6.69806 2.39999 12C2.39999 17.3019 6.69806 21.6 12 21.6ZM11.9981 7.20014C12.0186 7.19969 12.0595 7.19963 12.1052 7.20955C12.1105 7.21071 12.1158 7.21202 12.1211 7.21349C12.2681 7.25443 12.4161 7.36203 12.4753 7.54668L13.6309 10.2534L16.3223 10.5506C16.5865 10.5608 16.8 10.7845 16.8 11.0624C16.8 11.0735 16.7994 11.0847 16.7982 11.0957C16.7934 11.1406 16.7823 11.1847 16.7812 11.1878C16.7802 11.1933 16.7783 11.2036 16.7752 11.2157C16.7724 11.227 16.7681 11.2418 16.7616 11.2586C16.739 11.3185 16.7016 11.3882 16.6377 11.4492L16.6325 11.4542L14.5526 13.3438L15.1527 16.1845C15.1582 16.2101 15.1603 16.2363 15.1591 16.2624C15.1597 16.2699 15.16 16.2786 15.16 16.288C15.16 16.5723 14.9363 16.8 14.6637 16.8C14.5319 16.8 14.4179 16.7464 14.3336 16.6678L11.9975 15.3053L9.65438 16.6713C9.5697 16.7457 9.45834 16.7936 9.33375 16.7936C9.06074 16.7936 8.8374 16.5653 8.8374 16.2814C8.8374 16.2399 8.8438 16.2056 8.84891 16.1834C8.85144 16.1724 8.85401 16.1629 8.85564 16.157L8.85841 16.147L8.86039 16.1392C8.86077 16.1377 8.86124 16.1358 8.86178 16.1337C8.86258 16.1306 8.86354 16.127 8.86459 16.1232C8.86583 16.1188 8.86735 16.1135 8.86924 16.1076L9.4515 13.3516L7.35968 11.4492C7.29579 11.3883 7.25848 11.3185 7.23588 11.2586C7.22933 11.2418 7.22505 11.227 7.22219 11.2157C7.21888 11.2025 7.2169 11.1915 7.21601 11.1865L7.21573 11.1853L7.21552 11.1846C7.21479 11.1817 7.21307 11.1751 7.21146 11.1683C7.20776 11.1525 7.20121 11.1221 7.20017 11.0841L7.20011 11.0819C7.19441 10.7979 7.39969 10.5623 7.67282 10.5507L10.4099 10.2082L11.5216 7.54825C11.5788 7.36762 11.723 7.25553 11.8695 7.21599L11.871 7.2156C11.9264 7.20094 11.9688 7.19967 11.9981 7.20014Z" fill="#FFBD20"/>
</svg>
